<svg width="762" height="368" viewBox="0 0 762 368" fill="none" xmlns="http://www.w3.org/2000/svg">
<path opacity="0.2" d="M282.993 349.661C297.724 349.661 309.666 349.189 309.666 348.606C309.666 348.024 297.724 347.552 282.993 347.552C268.262 347.552 256.32 348.024 256.32 348.606C256.32 349.189 268.262 349.661 282.993 349.661Z" fill="#0083C7"/>
<path opacity="0.2" d="M474.401 368C489.132 368 501.074 367.528 501.074 366.945C501.074 366.363 489.132 365.891 474.401 365.891C459.67 365.891 447.729 366.363 447.729 366.945C447.729 367.528 459.67 368 474.401 368Z" fill="#0083C7"/>
<path opacity="0.2" d="M702.254 353.118C702.254 353.689 692.397 354.173 680.225 354.173C668.053 354.173 658.195 353.704 658.195 353.118C658.195 352.532 668.053 352.063 680.225 352.063C692.382 352.078 702.254 352.547 702.254 353.118Z" fill="#0083C7"/>
<path opacity="0.2" d="M739.969 342.966C752.136 342.966 761.998 342.494 761.998 341.912C761.998 341.329 752.136 340.857 739.969 340.857C727.802 340.857 717.939 341.329 717.939 341.912C717.939 342.494 727.802 342.966 739.969 342.966Z" fill="#0083C7"/>
<path opacity="0.2" d="M628.766 342.966C680.328 342.966 722.127 342.494 722.127 341.912C722.127 341.329 680.328 340.857 628.766 340.857C577.204 340.857 535.404 341.329 535.404 341.912C535.404 342.494 577.204 342.966 628.766 342.966Z" fill="#0083C7"/>
<path opacity="0.2" d="M363.418 345.413C393.099 345.413 417.159 344.941 417.159 344.358C417.159 343.776 393.099 343.304 363.418 343.304C333.738 343.304 309.678 343.776 309.678 344.358C309.678 344.941 333.738 345.413 363.418 345.413Z" fill="#0083C7"/>
<path opacity="0.2" d="M476.16 324.07C538.521 324.07 589.075 323.598 589.075 323.016C589.075 322.433 538.521 321.961 476.16 321.961C413.798 321.961 363.244 322.433 363.244 323.016C363.244 323.598 413.798 324.07 476.16 324.07Z" fill="#0083C7"/>
<path opacity="0.2" d="M22.7832 342.395C29.5541 342.395 35.0429 341.923 35.0429 341.341C35.0429 340.758 29.5541 340.286 22.7832 340.286C16.0123 340.286 10.5234 340.758 10.5234 341.341C10.5234 341.923 16.0123 342.395 22.7832 342.395Z" fill="#0083C7"/>
<path d="M325.132 62.7517H156.938V175.028H325.132V62.7517Z" fill="#F7FCFD"/>
<path d="M225.808 77.4583H180.035V78.5715H225.808V77.4583Z" fill="#58595B"/>
<path d="M207.16 80.7539H180.912V81.8671H207.16V80.7539Z" fill="#0083C7"/>
<path d="M187.009 88.1807H180.535V89.2939H187.009V88.1807Z" fill="#F2706D"/>
<path d="M206.471 88.1807H189.48V89.2939H206.471V88.1807Z" fill="#0083C7"/>
<path d="M194.053 91.6958H187.33V92.809H194.053V91.6958Z" fill="#58595B"/>
<path d="M201.976 91.6958H195.443V92.809H201.976V91.6958Z" fill="#58595B"/>
<path d="M217.124 91.6958H205.465V92.809H217.124V91.6958Z" fill="#38B9C6"/>
<path d="M199.179 95.2117H193.467V96.3249H199.179V95.2117Z" fill="#F2706D"/>
<path d="M205.9 95.2117H200.568V96.3249H205.9V95.2117Z" fill="#58595B"/>
<path d="M224.796 95.2117H207.996V96.3249H224.796V95.2117Z" fill="#58595B"/>
<path d="M264.858 95.2117H239.182V96.3249H264.858V95.2117Z" fill="#58595B"/>
<path d="M279.314 95.2117H268.094V96.3249H279.314V95.2117Z" fill="#38B9C6"/>
<path d="M197.817 98.7417H193.467V99.8549H197.817V98.7417Z" fill="#F2706D"/>
<path d="M207.044 98.7415H200.512V99.8547H207.044V98.7415Z" fill="#58595B"/>
<path d="M232.017 98.7415H208.244V99.8547H232.017V98.7415Z" fill="#38B9C6"/>
<path d="M234.418 102.257H202.912V103.37H234.418V102.257Z" fill="#0083C7"/>
<path d="M202.914 105.772H193.467V106.886H202.914V105.772Z" fill="#58595B"/>
<path d="M197.392 109.288H193.467V110.401H197.392V109.288Z" fill="#F2706D"/>
<path d="M206.984 109.288H200.832V110.401H206.984V109.288Z" fill="#38B9C6"/>
<path d="M238.622 109.288H211.1V110.401H238.622V109.288Z" fill="#58595B"/>
<path d="M236.457 112.818H201.143V113.931H236.457V112.818Z" fill="#58595B"/>
<path d="M201.83 116.334H193.467V117.447H201.83V116.334Z" fill="#58595B"/>
<path d="M199.999 119.849H193.467V120.962H199.999V119.849Z" fill="#F2706D"/>
<path d="M205.495 119.849H201.848V120.962H205.495V119.849Z" fill="#0083C7"/>
<path d="M226.188 119.849H209.139V120.962H226.188V119.849Z" fill="#58595B"/>
<path d="M212.184 123.365H202.414V124.478H212.184V123.365Z" fill="#38B9C6"/>
<path d="M255.159 123.365H216.168V124.478H255.159V123.365Z" fill="#58595B"/>
<path d="M271.768 123.365H258.834V124.478H271.768V123.365Z" fill="#38B9C6"/>
<path d="M304.667 123.365H275.826V124.478H304.667V123.365Z" fill="#58595B"/>
<path d="M196.072 126.88H181.234V127.993H196.072V126.88Z" fill="#58595B"/>
<path d="M215.789 126.88H202.416V127.993H215.789V126.88Z" fill="#58595B"/>
<path d="M203.661 130.41H193.467V131.524H203.661V130.41Z" fill="#58595B"/>
<path d="M197.028 133.926H188.342V135.039H197.028V133.926Z" fill="#0083C7"/>
<path d="M190.491 137.441H181.234V138.554H190.491V137.441Z" fill="#58595B"/>
<path d="M186.376 143.959H181.234V145.073H186.376V143.959Z" fill="#F2706D"/>
<path d="M196.073 143.959H188.969V145.073H196.073V143.959Z" fill="#58595B"/>
<path d="M217.371 143.959H198.037V145.073H217.371V143.959Z" fill="#58595B"/>
<path d="M202.036 147.387H187.447V148.501H202.036V147.387Z" fill="#58595B"/>
<path d="M216.743 147.387H206.344V148.501H216.743V147.387Z" fill="#0083C7"/>
<path d="M222.951 150.815H194.418V151.928H222.951V150.815Z" fill="#58595B"/>
<path d="M200.189 154.243H194.418V155.356H200.189V154.243Z" fill="#F2706D"/>
<path d="M206.913 154.242H202.797V155.356H206.913V154.242Z" fill="#38B9C6"/>
<path d="M247.998 154.242H209.578V155.356H247.998V154.242Z" fill="#58595B"/>
<path d="M259.599 154.242H251.924V155.356H259.599V154.242Z" fill="#58595B"/>
<path d="M196.074 157.67H187.447V158.783H196.074V157.67Z" fill="#58595B"/>
<path d="M193.084 161.098H181.234V162.211H193.084V161.098Z" fill="#58595B"/>
<path d="M325.132 65.4471H156.938V63.6307C156.938 61.6533 158.549 60.042 160.526 60.042H321.543C323.521 60.042 325.132 61.6533 325.132 63.6307V65.4471Z" fill="#9ABEDB"/>
<path d="M523.515 319.12C521.2 318.988 517.407 318.709 515.59 318.255C508.076 316.395 501.573 307.738 501.573 300.004V262.315H449.795V300.004C449.795 307.738 443.292 316.395 435.778 318.255C433.961 318.709 430.168 318.988 427.853 319.12C426.784 319.178 425.949 320.072 425.949 321.141V323.016H475.677H525.404V321.141C525.419 320.057 524.584 319.178 523.515 319.12Z" fill="#9ABEDB"/>
<path d="M449.795 262.3V290.19L501.573 299.228V262.3H449.795Z" fill="#73A8D2"/>
<path d="M583.097 288.198H368.266C365.146 288.198 362.598 285.664 362.598 282.544V148.179C362.598 145.058 365.132 142.51 368.266 142.51H583.112C586.232 142.51 588.78 145.044 588.78 148.179V282.544C588.766 285.664 586.232 288.198 583.097 288.198Z" fill="#9ABEDB"/>
<path d="M581.004 149.013H369.439V261.509H581.004V149.013Z" fill="#EBF3FA"/>
<path d="M471.166 242.716L470.99 242.731V242.716H471.166Z" fill="#2A2A3B"/>
<path d="M702.372 334.5H555.534C552.282 334.5 549.631 331.864 549.631 328.597V247.125C549.631 243.873 552.267 241.222 555.534 241.222H702.372C705.624 241.222 708.275 243.859 708.275 247.125V328.597C708.275 331.864 705.624 334.5 702.372 334.5Z" fill="#9ABEDB"/>
<path d="M713.722 341.912H543.506C540.753 341.912 538.512 339.671 538.512 336.917V334.5H719.376V336.258C719.376 339.378 716.842 341.912 713.722 341.912Z" fill="#9ABEDB"/>
<path d="M719.376 334.5H538.512V337.005H719.376V334.5Z" fill="#9ABEDB"/>
<path d="M701.535 249.41H555.971V326.327H701.535V249.41Z" fill="#EBF3FA"/>
<path d="M120.102 124.566H99.6108C95.7439 124.566 92.6094 121.431 92.6094 117.564V97.0718C92.6094 93.2047 95.7439 90.0701 99.6108 90.0701H120.102C123.969 90.0701 127.104 93.2047 127.104 97.0718V117.564C127.104 121.431 123.969 124.566 120.102 124.566Z" fill="#555CA1"/>
<path d="M99.4766 107.325L106.346 103.795V104.82L100.56 107.721V107.75L106.346 110.65V111.676L99.4766 108.145V107.325Z" fill="#F7FCFD"/>
<path d="M107.299 112.247L111.429 101.525H112.44L108.295 112.247H107.299Z" fill="#F7FCFD"/>
<path d="M120.233 108.131L113.363 111.646V110.621L119.193 107.721V107.691L113.363 104.791V103.766L120.233 107.281V108.131Z" fill="#F7FCFD"/>
<path d="M166.177 171.82C166.177 181.532 158.311 189.398 148.6 189.398C138.889 189.398 131.023 181.532 131.023 171.82C131.023 162.109 138.889 154.243 148.6 154.243C158.311 154.243 166.177 162.109 166.177 171.82Z" fill="#699DEE"/>
<path d="M146.532 180.712L142.269 176.435L141.713 178.734L144.276 181.298L146.532 180.712Z" fill="#F7FCFD"/>
<path d="M144.278 181.298L141.715 178.734L141.173 180.946C141.041 181.517 141.554 182.016 142.111 181.869L144.278 181.298Z" fill="#F7FCFD"/>
<path d="M145.483 179.658L145.073 179.233L147.754 176.552L146.421 175.234L143.74 177.914L146.538 180.712L149.218 178.032L148.164 176.962L145.483 179.658Z" fill="#F7FCFD"/>
<path d="M144.953 173.739L142.27 176.42L143.327 177.476L146.01 174.795L144.953 173.739Z" fill="#F7FCFD"/>
<path d="M152.776 165.932L150.154 168.554L154.417 172.831L157.038 170.209L152.776 165.932ZM151.209 169.609L153.699 167.119L154.109 167.529L151.619 170.019L151.209 169.609ZM153.362 171.762L152.952 171.352L155.442 168.862L155.852 169.272L153.362 171.762Z" fill="#F7FCFD"/>
<path d="M148.114 166.781C148.114 165.39 147.338 164.115 146.108 163.456L142.885 161.757L142.329 162.314L145.302 165.8L142.197 168.905L138.711 165.932L138.154 166.488L139.853 169.711C140.498 170.941 141.787 171.718 143.178 171.718H144.57L151.879 179.027C151.952 179.73 152.26 180.404 152.802 180.946C154.061 182.206 156.097 182.206 157.342 180.946C158.602 179.686 158.602 177.65 157.342 176.405C156.8 175.863 156.126 175.57 155.423 175.482L148.114 168.173V166.781ZM157.123 179.232L155.614 180.726L153.563 180.17L153.007 178.119L154.515 176.625L156.566 177.181L157.123 179.232Z" fill="#F7FCFD"/>
<path d="M157.504 169.726L153.227 165.448L153.886 164.804C155.057 163.617 156.976 163.617 158.148 164.804C159.334 165.99 159.334 167.895 158.148 169.081L157.504 169.726Z" fill="#F7FCFD"/>
<path d="M410.627 344.358H374.932C371.109 344.358 368.004 341.253 368.004 337.43V301.733C368.004 297.91 371.109 294.804 374.932 294.804H410.627C414.45 294.804 417.556 297.91 417.556 301.733V337.43C417.556 341.253 414.45 344.358 410.627 344.358Z" fill="#555CA1"/>
<path d="M406.951 308.661H378.594V330.486H406.951V308.661Z" fill="white"/>
<path d="M404.989 327.162H381.275V327.748H404.989V327.162Z" fill="#485E88"/>
<path d="M384.834 327.454C384.834 328.084 384.321 328.611 383.677 328.611C383.047 328.611 382.52 328.099 382.52 327.454C382.52 326.824 383.032 326.297 383.677 326.297C384.321 326.297 384.834 326.81 384.834 327.454Z" fill="#F2706D"/>
<path d="M396.317 317.802L389.242 313.935V321.669L396.317 317.802Z" fill="#F2706D"/>
<path d="M756.067 341.912H724.195C722.598 341.912 721.295 340.608 721.295 339.012V283.1C721.295 281.504 722.598 280.2 724.195 280.2H756.067C757.664 280.2 758.968 281.504 758.968 283.1V339.012C758.953 340.608 757.664 341.912 756.067 341.912Z" fill="#9ABEDB"/>
<path d="M756.168 336.727H724.076V285.386H756.168V336.727Z" fill="#EBF3FA"/>
<path d="M745.36 301.806C745.36 304.794 742.944 307.211 739.956 307.211C736.968 307.211 734.551 304.794 734.551 301.806C734.551 298.818 736.968 296.401 739.956 296.401C742.944 296.401 745.36 298.818 745.36 301.806Z" fill="#DEF3F3"/>
<path d="M742.195 301.03H741.756H741.184H738.738V300.4C738.738 299.726 739.28 299.17 739.954 299.17C740.628 299.17 741.184 299.712 741.184 300.4V300.517H741.756V300.4C741.756 299.419 740.95 298.613 739.969 298.613C738.987 298.613 738.182 299.419 738.182 300.4V301.03H737.742C737.537 301.03 737.361 301.206 737.361 301.411V304.633C737.361 304.838 737.537 305.014 737.742 305.014H742.21C742.415 305.014 742.59 304.838 742.59 304.633V301.411C742.576 301.191 742.4 301.03 742.195 301.03ZM740.379 303.989H739.544L739.676 302.89C739.514 302.788 739.412 302.627 739.412 302.421C739.412 302.114 739.661 301.879 739.954 301.879C740.262 301.879 740.496 302.129 740.496 302.421C740.496 302.612 740.393 302.788 740.232 302.89L740.379 303.989Z" fill="#2B478B"/>
<path d="M749.869 314.989H730.681C729.627 314.989 728.777 314.14 728.777 313.085C728.777 312.03 729.627 311.181 730.681 311.181H749.869C750.924 311.181 751.774 312.03 751.774 313.085C751.788 314.14 750.924 314.989 749.869 314.989Z" fill="#E7E9EC"/>
<path d="M749.869 320.262H730.681C729.627 320.262 728.777 319.413 728.777 318.358C728.777 317.303 729.627 316.454 730.681 316.454H749.869C750.924 316.454 751.774 317.303 751.774 318.358C751.788 319.413 750.924 320.262 749.869 320.262Z" fill="#E7E9EC"/>
<path d="M731.62 313.129C731.62 313.407 731.4 313.627 731.122 313.627C730.843 313.627 730.623 313.407 730.623 313.129C730.623 312.85 730.843 312.631 731.122 312.631C731.4 312.631 731.62 312.85 731.62 313.129Z" fill="#364766"/>
<path d="M733.083 313.129C733.083 313.407 732.863 313.627 732.584 313.627C732.306 313.627 732.086 313.407 732.086 313.129C732.086 312.85 732.306 312.631 732.584 312.631C732.863 312.631 733.083 312.85 733.083 313.129Z" fill="#364766"/>
<path d="M734.563 313.129C734.563 313.407 734.343 313.627 734.065 313.627C733.786 313.627 733.566 313.407 733.566 313.129C733.566 312.85 733.786 312.631 734.065 312.631C734.343 312.631 734.563 312.85 734.563 313.129Z" fill="#364766"/>
<path d="M736.044 313.129C736.044 313.407 735.824 313.627 735.545 313.627C735.267 313.627 735.047 313.407 735.047 313.129C735.047 312.85 735.267 312.631 735.545 312.631C735.809 312.631 736.044 312.85 736.044 313.129Z" fill="#364766"/>
<path d="M737.507 313.129C737.507 313.407 737.287 313.627 737.008 313.627C736.73 313.627 736.51 313.407 736.51 313.129C736.51 312.85 736.73 312.631 737.008 312.631C737.287 312.631 737.507 312.85 737.507 313.129Z" fill="#364766"/>
<path d="M731.62 318.358C731.62 318.636 731.4 318.856 731.122 318.856C730.843 318.856 730.623 318.636 730.623 318.358C730.623 318.08 730.843 317.86 731.122 317.86C731.4 317.86 731.62 318.08 731.62 318.358Z" fill="#A6A8AB"/>
<path d="M733.083 318.358C733.083 318.636 732.863 318.856 732.584 318.856C732.306 318.856 732.086 318.636 732.086 318.358C732.086 318.08 732.306 317.86 732.584 317.86C732.863 317.86 733.083 318.08 733.083 318.358Z" fill="#A6A8AB"/>
<path d="M734.563 318.358C734.563 318.636 734.343 318.856 734.065 318.856C733.786 318.856 733.566 318.636 733.566 318.358C733.566 318.08 733.786 317.86 734.065 317.86C734.343 317.86 734.563 318.08 734.563 318.358Z" fill="#A6A8AB"/>
<path d="M736.044 318.358C736.044 318.636 735.824 318.856 735.545 318.856C735.267 318.856 735.047 318.636 735.047 318.358C735.047 318.08 735.267 317.86 735.545 317.86C735.809 317.86 736.044 318.08 736.044 318.358Z" fill="#A6A8AB"/>
<path d="M737.507 318.358C737.507 318.636 737.287 318.856 737.008 318.856C736.73 318.856 736.51 318.636 736.51 318.358C736.51 318.08 736.73 317.86 737.008 317.86C737.287 317.86 737.507 318.08 737.507 318.358Z" fill="#A6A8AB"/>
<path d="M340.303 344.358H315.974C311.375 344.358 307.654 340.637 307.654 336.038V311.693C307.654 307.094 311.375 303.373 315.974 303.373H340.318C344.917 303.373 348.637 307.094 348.637 311.693V336.038C348.623 340.623 344.902 344.358 340.303 344.358Z" fill="#699DEE"/>
<path d="M329.774 322.313H336.863C338.475 322.313 339.778 323.617 339.778 325.228V327.425C339.778 328.714 338.929 329.798 337.772 330.179V332.904L335.208 330.34H329.774C328.163 330.34 326.859 329.037 326.859 327.425V325.228C326.859 323.617 328.163 322.313 329.774 322.313Z" fill="white"/>
<path d="M325.421 325.228C325.421 322.826 327.369 320.878 329.771 320.878H335C334.737 318.725 332.92 317.055 330.694 317.055H320.089C317.673 317.055 315.725 319.003 315.725 321.42V324.701C315.725 326.634 316.984 328.246 318.727 328.832V332.904L322.565 329.066H325.758C325.553 328.553 325.436 328.011 325.436 327.425V325.228H325.421Z" fill="white"/>
<path d="M58.3143 141.353H58.7537C58.9002 140.884 59.0759 140.43 59.3103 140.005L59.0027 139.697C58.1825 138.877 58.1825 137.544 59.0027 136.709C59.823 135.889 61.1559 135.889 61.9907 136.709L62.2983 137.017C62.7231 136.782 63.1772 136.607 63.6459 136.46V136.021C63.6459 134.849 64.5833 133.911 65.7551 133.911C66.9269 133.911 67.8643 134.849 67.8643 136.021V136.46C68.333 136.607 68.7871 136.782 69.2118 137.017L69.5194 136.709C70.3397 135.889 71.6726 135.889 72.5075 136.709C73.3277 137.529 73.3277 138.862 72.5075 139.697L72.1999 140.005C72.4342 140.43 72.61 140.884 72.7565 141.353H73.1959C74.353 141.353 75.3051 142.29 75.3051 143.462C75.3051 144.634 74.3677 145.571 73.1959 145.571H72.7565C72.61 146.04 72.4342 146.494 72.1999 146.919L72.5075 147.226C73.3277 148.047 73.3277 149.38 72.5075 150.215C71.6872 151.035 70.3543 151.035 69.5194 150.215L69.2118 149.907C68.7871 150.141 68.333 150.317 67.8643 150.464V150.903C67.8643 152.075 66.9269 153.012 65.7551 153.012C64.598 153.012 63.6459 152.075 63.6459 150.903V150.464C63.1772 150.317 62.7231 150.141 62.2983 149.907L61.9907 150.215C61.1705 151.035 59.8376 151.035 59.0027 150.215C58.1825 149.394 58.1825 148.061 59.0027 147.226L59.3103 146.919C59.0759 146.494 58.9002 146.04 58.7537 145.571H58.3143C57.1572 145.571 56.2051 144.634 56.2051 143.462C56.2051 142.305 57.1572 141.353 58.3143 141.353ZM65.7404 147.68C68.0694 147.68 69.9588 145.791 69.9588 143.462C69.9588 141.133 68.0694 139.243 65.7404 139.243C63.4115 139.243 61.522 141.133 61.522 143.462C61.522 145.791 63.4115 147.68 65.7404 147.68Z" fill="#699DEE"/>
<path d="M702.455 155.049H708.299L708.548 154.594H702.191L702.455 155.049Z" fill="#485E88"/>
<path d="M701.943 154.155H708.813L709.077 153.715H701.68L701.943 154.155Z" fill="#485E88"/>
<path d="M701.416 153.261H709.34L709.589 152.822H701.152L701.416 153.261Z" fill="#485E88"/>
<path d="M700.904 152.383H709.854L710.117 151.943H700.641L700.904 152.383Z" fill="#485E88"/>
<path d="M705.37 131.875C700.537 131.875 696.611 135.801 696.611 140.635C696.611 143.608 698.105 146.245 700.376 147.827V150.595L700.639 151.211H710.116L710.38 150.595V147.827C712.65 146.245 714.144 143.623 714.144 140.635C714.129 135.801 710.219 131.875 705.37 131.875Z" fill="#FBB157"/>
<path d="M705.592 128.36H705.152V130.278H705.592V128.36Z" fill="#485E88"/>
<path d="M717.645 140.415H715.727V140.855H717.645V140.415Z" fill="#485E88"/>
<path d="M695.03 140.415H693.111V140.855H695.03V140.415Z" fill="#485E88"/>
<path d="M696.842 131.808L696.531 132.119L697.889 133.477L698.201 133.166L696.842 131.808Z" fill="#485E88"/>
<path d="M713.869 131.761L712.512 133.12L712.823 133.431L714.18 132.072L713.869 131.761Z" fill="#485E88"/>
<path d="M664.538 120.465H542.424V201.98H664.538V120.465Z" fill="white"/>
<path opacity="0.1" d="M583.099 142.51H542.424V208.704L588.768 227.746V148.164C588.768 145.044 586.234 142.51 583.099 142.51Z" fill="#364766"/>
<path d="M664.538 120.465H542.424V207.503H664.538V120.465Z" fill="white"/>
<path d="M664.538 122.75H542.424V120.816C542.424 119.351 543.61 118.179 545.06 118.179H661.901C663.366 118.179 664.538 119.366 664.538 120.816V122.75Z" fill="#485E88"/>
<path opacity="0.7" d="M651.645 144.634H581.807V178.763H651.645V144.634Z" fill="#EBF3FA"/>
<path d="M578.617 199.52H555.123V144.268H578.617V199.52ZM555.87 198.787H577.899V145H555.87V198.787Z" fill="#DADFE7"/>
<path opacity="0.7" d="M578.266 128.712H555.504V139.493H578.266V128.712Z" fill="#EBF3FA"/>
<path d="M651.823 139.668H581.092V128.536H651.823V139.668ZM581.443 139.317H651.472V128.887H581.443V139.317Z" fill="#DADFE7"/>
<path d="M575.171 147.256H557.961V153.862H575.171V147.256Z" fill="#CCE6F4"/>
<path d="M575.171 155.049H557.961V161.655H575.171V155.049Z" fill="#66B5DD"/>
<path d="M575.171 162.826H557.961V169.433H575.171V162.826Z" fill="#99CDE9"/>
<path d="M575.171 170.604H557.961V177.211H575.171V170.604Z" fill="#CCE6F4"/>
<path d="M646.476 185.824H589.85V186.557H646.476V185.824Z" fill="#DADFE7"/>
<path d="M650.475 189.061H581.809V189.794H650.475V189.061Z" fill="#DADFE7"/>
<path d="M647.472 192.313H581.809V193.046H647.472V192.313Z" fill="#DADFE7"/>
<path d="M648.6 195.55H581.809V196.283H648.6V195.55Z" fill="#DADFE7"/>
<path d="M611.982 198.788H581.809V199.521H611.982V198.788Z" fill="#DADFE7"/>
<path d="M651.84 178.954H650.916V178.588H651.473V178.045H651.84V178.954Z" fill="#919EB8"/>
<path d="M649.463 178.954H648.013V178.587H649.463V178.954ZM646.549 178.954H645.099V178.587H646.549V178.954ZM643.634 178.954H642.184V178.587H643.634V178.954ZM640.734 178.954H639.284V178.587H640.734V178.954ZM637.819 178.954H636.369V178.587H637.819V178.954ZM634.904 178.954H633.454V178.587H634.904V178.954ZM632.004 178.954H630.554V178.587H632.004V178.954ZM629.089 178.954H627.639V178.587H629.089V178.954ZM626.174 178.954H624.724V178.587H626.174V178.954ZM623.274 178.954H621.824V178.587H623.274V178.954ZM620.359 178.954H618.909V178.587H620.359V178.954ZM617.459 178.954H616.009V178.587H617.459V178.954ZM614.544 178.954H613.094V178.587H614.544V178.954ZM611.63 178.954H610.18V178.587H611.63V178.954ZM608.729 178.954H607.279V178.587H608.729V178.954ZM605.815 178.954H604.365V178.587H605.815V178.954ZM602.9 178.954H601.45V178.587H602.9V178.954ZM600 178.954H598.55V178.587H600V178.954ZM597.085 178.954H595.635V178.587H597.085V178.954ZM594.17 178.954H592.72V178.587H594.17V178.954ZM591.27 178.954H589.82V178.587H591.27V178.954ZM588.355 178.954H586.905V178.587H588.355V178.954ZM585.44 178.954H583.99V178.587H585.44V178.954Z" fill="#919EB8"/>
<path d="M582.541 178.954H581.617V178.045H581.984V178.588H582.541V178.954Z" fill="#919EB8"/>
<path d="M581.984 176.624H581.617V175.204H581.984V176.624ZM581.984 173.783H581.617V172.362H581.984V173.783ZM581.984 170.941H581.617V169.52H581.984V170.941ZM581.984 168.099H581.617V166.679H581.984V168.099ZM581.984 165.258H581.617V163.837H581.984V165.258ZM581.984 162.416H581.617V160.995H581.984V162.416ZM581.984 159.574H581.617V158.153H581.984V159.574ZM581.984 156.733H581.617V155.312H581.984V156.733ZM581.984 153.891H581.617V152.47H581.984V153.891ZM581.984 151.049H581.617V149.628H581.984V151.049ZM581.984 148.207H581.617V146.787H581.984V148.207Z" fill="#919EB8"/>
<path d="M581.984 145.367H581.617V144.458H582.541V144.825H581.984V145.367Z" fill="#919EB8"/>
<path d="M649.463 144.824H648.013V144.458H649.463V144.824ZM646.549 144.824H645.099V144.458H646.549V144.824ZM643.634 144.824H642.184V144.458H643.634V144.824ZM640.734 144.824H639.284V144.458H640.734V144.824ZM637.819 144.824H636.369V144.458H637.819V144.824ZM634.904 144.824H633.454V144.458H634.904V144.824ZM632.004 144.824H630.554V144.458H632.004V144.824ZM629.089 144.824H627.639V144.458H629.089V144.824ZM626.174 144.824H624.724V144.458H626.174V144.824ZM623.274 144.824H621.824V144.458H623.274V144.824ZM620.359 144.824H618.909V144.458H620.359V144.824ZM617.459 144.824H616.009V144.458H617.459V144.824ZM614.544 144.824H613.094V144.458H614.544V144.824ZM611.63 144.824H610.18V144.458H611.63V144.824ZM608.729 144.824H607.279V144.458H608.729V144.824ZM605.815 144.824H604.365V144.458H605.815V144.824ZM602.9 144.824H601.45V144.458H602.9V144.824ZM600 144.824H598.55V144.458H600V144.824ZM597.085 144.824H595.635V144.458H597.085V144.824ZM594.17 144.824H592.72V144.458H594.17V144.824ZM591.27 144.824H589.82V144.458H591.27V144.824ZM588.355 144.824H586.905V144.458H588.355V144.824ZM585.44 144.824H583.99V144.458H585.44V144.824Z" fill="#919EB8"/>
<path d="M651.84 145.367H651.473V144.824H650.916V144.458H651.84V145.367Z" fill="#919EB8"/>
<path d="M651.835 176.624H651.469V175.204H651.835V176.624ZM651.835 173.783H651.469V172.362H651.835V173.783ZM651.835 170.941H651.469V169.52H651.835V170.941ZM651.835 168.099H651.469V166.679H651.835V168.099ZM651.835 165.258H651.469V163.837H651.835V165.258ZM651.835 162.416H651.469V160.995H651.835V162.416ZM651.835 159.574H651.469V158.153H651.835V159.574ZM651.835 156.733H651.469V155.312H651.835V156.733ZM651.835 153.891H651.469V152.47H651.835V153.891ZM651.835 151.049H651.469V149.628H651.835V151.049ZM651.835 148.207H651.469V146.787H651.835V148.207Z" fill="#919EB8"/>
<path d="M652.833 160.468H650.475V162.827H652.833V160.468Z" fill="#919EB8"/>
<path d="M652.833 143.462H650.475V145.82H652.833V143.462Z" fill="#919EB8"/>
<path d="M652.833 177.592H650.475V179.95H652.833V177.592Z" fill="#919EB8"/>
<path d="M582.981 160.468H580.623V162.827H582.981V160.468Z" fill="#919EB8"/>
<path d="M616.38 143.462H614.021V145.82H616.38V143.462Z" fill="#919EB8"/>
<path d="M582.981 143.462H580.623V145.82H582.981V143.462Z" fill="#919EB8"/>
<path d="M616.38 177.592H614.021V179.95H616.38V177.592Z" fill="#919EB8"/>
<path d="M582.981 177.592H580.623V179.95H582.981V177.592Z" fill="#919EB8"/>
<path d="M657.388 180.594L651.646 178.778L653.463 184.505L654.517 182.616L655.425 183.538L656.407 182.557L655.484 181.634L657.388 180.594Z" fill="#58595B"/>
<path d="M669.327 258.99H592.502V312.338H669.327V258.99Z" fill="white"/>
<path d="M667.13 239.127H631.815C631.654 239.127 631.537 238.996 631.537 238.849V217.668C631.537 217.507 631.669 217.39 631.815 217.39H667.13C667.291 217.39 667.408 217.522 667.408 217.668V238.849C667.408 239.01 667.291 239.127 667.13 239.127Z" fill="#364766"/>
<path d="M668.654 241.222H630.278C629.546 241.222 628.945 240.622 628.945 239.889V239.128H670.002V239.889C670.002 240.622 669.401 241.222 668.654 241.222Z" fill="#6D7EA0"/>
<path d="M665.887 218.914H633.062V237.604H665.887V218.914Z" fill="#99CDE9"/>
<path d="M661.14 221.345H638.979V234.806H661.14V221.345Z" fill="white"/>
<path d="M671.642 352.107H671.789L671.818 352.81H675.202L675.114 351.872H674.997V351.858L674.982 348.415H671.467L671.393 348.869L669.768 350.056L664.626 351.521C664.626 351.521 664.216 351.696 664.231 351.916L664.246 352.326L664.26 352.575C664.26 352.575 664.319 352.678 664.744 352.81H670.632L670.983 352.341L671.335 352.121L671.642 352.107Z" fill="#2B295E"/>
<path d="M693.977 352.107H694.124L694.153 352.81H697.537L697.449 351.872H697.331V351.858L697.112 348.415H693.596L693.523 348.869L692.117 350.056L686.976 351.521C686.976 351.521 686.566 351.696 686.58 351.916L686.595 352.326L686.61 352.575C686.61 352.575 686.668 352.678 687.093 352.81H692.981L693.333 352.341L693.684 352.121L693.977 352.107Z" fill="#2B295E"/>
<path d="M678.539 352.649L678.393 352.663V352.649H678.539Z" fill="#2A2A3B"/>
<path d="M692.824 348.826H697.628L697.76 311.927L698.99 262.857H686.145L690.451 311.927L692.824 348.826Z" fill="#2A4E96"/>
<path d="M670.836 348.621L675.64 348.841L680.342 311.415L687.841 263.897L675.45 263.326L674.952 278.018L673.033 311.078L670.836 348.621Z" fill="#2A4E96"/>
<path d="M687.034 210.564L679.359 212.19L677.103 208.982L676.371 208.645L677.47 204.895L676.605 199.153L685.775 197.996L687.034 210.564Z" fill="#F9C0B2"/>
<path d="M686.461 218.137L683.561 218.444C682.741 218.532 681.994 217.932 681.906 217.112L681.027 209.011L686.915 208.381L687.794 216.482C687.882 217.317 687.282 218.049 686.461 218.137Z" fill="#F9C0B2"/>
<path d="M683.93 196.135C684.15 196.15 684.355 196.223 684.531 196.341L687.841 198.391C688.076 198.567 688.222 198.816 688.266 199.094L688.632 203.489C688.647 203.621 688.647 203.752 688.618 203.87L688.061 205.964C688.046 206.067 688.002 206.169 687.958 206.257L687.27 208.103L687.065 208.41C687.065 208.41 683.989 208.952 683.535 208.557C683.081 208.161 682.012 206.213 682.656 205.51C683.462 204.602 682.524 203.269 681.865 203.357C681.528 203.401 681.235 204.177 680.942 204.324C680.693 204.441 679.99 203.064 680.005 202.888C680.049 202.551 680.21 201.863 680.166 201.541C680.137 201.174 678.57 200.779 678.203 200.794C677.661 200.808 676.856 200.632 676.314 200.559C675.977 200.515 675.918 200.076 675.86 199.754C675.845 199.68 676.197 199.124 676.241 199.021C676.856 197.908 680.166 196.619 680.166 196.619L683.93 196.135Z" fill="#2B478B"/>
<path d="M665.139 237.18L662.854 236.213L660.13 236.535L657.039 238.849L657.801 239.172L658.269 238.864L660.672 240.08L660.965 239.201L661.272 239.055L663.308 239.758L664.89 239.919L667.688 240.944V237.956L665.139 237.18Z" fill="#F9C0B2"/>
<path d="M682.144 248.253L681.719 248.107C680.328 247.609 679.581 246.115 680.006 244.694L689.336 217.537C690.024 215.281 692.441 214.065 694.653 214.856C696.865 215.647 697.963 218.137 697.07 220.305L685.645 246.715C685.073 248.078 683.535 248.751 682.144 248.253Z" fill="#2A8B95"/>
<path d="M665.59 241.222L666.337 237.297C666.337 237.297 680.208 241.047 684.617 243.463C685.964 244.196 686.477 245.836 685.525 247.038L685.203 247.433C684.25 248.634 682.961 248.663 681.306 247.916L665.59 241.222Z" fill="#F99746"/>
<path d="M698.987 263.897H675.464L674.541 261.597L673.105 229.987L673.135 223.966C673.516 217.609 675.332 214.797 678.862 214.606L690.492 213.947C696.995 213.947 698.797 219.294 698.973 222.839L699.368 231.583L699.954 260.308L698.987 263.897Z" fill="#F99746"/>
<path d="M648.573 235.363L646.668 235.26L641.176 237.897L641.527 238.439H643.959L646.888 239.537L649.276 239.405L652.747 240.768L653.626 237.999L648.573 235.363Z" fill="#F9C0B2"/>
<path d="M670.014 249.922L669.574 249.849C668.11 249.629 667.084 248.296 667.231 246.832L674.393 218.385C674.628 216.042 676.781 214.386 679.11 214.738L679.593 214.841C681.922 215.192 682.991 217.316 682.522 219.616L673.148 247.725C672.841 249.19 671.464 250.142 670.014 249.922Z" fill="#F99746"/>
<path d="M651.588 241.222L652.437 236.959L672.197 245.118C673.339 246.129 673.442 247.886 672.431 249.029C671.42 250.171 670.087 250.274 668.476 249.439L651.588 241.222Z" fill="#F99746"/>
<path opacity="0.9" d="M649.554 324.583H592.635V316.468H649.554V324.583ZM593.016 324.217H649.202V316.834H593.016V324.217Z" fill="white"/>
<path d="M599.238 318.314H594.814V322.737H599.238V318.314Z" fill="#231F20"/>
<path d="M604.043 318.314H599.619V322.737H604.043V318.314Z" fill="#404041"/>
<path d="M608.861 318.314H604.438V322.737H608.861V318.314Z" fill="#58595B"/>
<path d="M613.679 318.314H609.256V322.737H613.679V318.314Z" fill="#6D6E70"/>
<path d="M618.502 318.314H614.078V322.737H618.502V318.314Z" fill="#808184"/>
<path d="M623.304 318.314H618.881V322.737H623.304V318.314Z" fill="#929497"/>
<path d="M628.125 318.314H623.701V322.737H628.125V318.314Z" fill="#A6A8AB"/>
<path d="M632.941 318.314H628.518V322.737H632.941V318.314Z" fill="#BBBDBF"/>
<path d="M637.744 318.314H633.32V322.737H637.744V318.314Z" fill="#D0D2D3"/>
<path d="M642.566 318.314H638.143V322.737H642.566V318.314Z" fill="#E6E7E8"/>
<path d="M647.384 318.314H642.961V322.737H647.384V318.314Z" fill="#F1F1F2"/>
<path d="M659.572 265.259H602.271V283.642H659.572V265.259Z" fill="#D6EBF6"/>
<path d="M619.628 287.685H602.271V306.068H619.628V287.685Z" fill="#D6EBF6"/>
<path d="M639.607 287.685H622.25V306.068H639.607V287.685Z" fill="#D6EBF6"/>
<path d="M659.568 287.685H642.211V306.068H659.568V287.685Z" fill="#D6EBF6"/>
<path d="M578.264 258.99H566.883V318.314H578.264V258.99Z" fill="#2B478B"/>
<path opacity="0.7" d="M575.304 285.591H569.826V280.113H575.304V285.591ZM570.192 285.225H574.938V280.479H570.192V285.225Z" fill="#E6E7E8"/>
<path opacity="0.7" d="M575.302 276.363H569.824V270.885H575.302V276.363ZM570.19 275.997H574.936V271.251H570.19V275.997Z" fill="#E6E7E8"/>
<path opacity="0.7" d="M575.26 276.304H572.242V270.928H575.26V276.304ZM572.506 276.041H574.996V271.192H572.506V276.041Z" fill="#E6E7E8"/>
<path opacity="0.7" d="M575.302 267.135H569.824V261.656H575.302V267.135ZM570.19 266.768H574.936V262.022H570.19V266.768Z" fill="#E6E7E8"/>
<path opacity="0.7" d="M575.243 267.076H569.867V264.263H575.243V267.076ZM570.131 266.827H574.979V264.527H570.131V266.827Z" fill="#E6E7E8"/>
<path opacity="0.7" d="M575.26 267.091H572.242V261.715H575.26V267.091ZM572.506 266.812H574.996V261.964H572.506V266.812Z" fill="#E6E7E8"/>
<path d="M572.567 294.878C571.029 294.878 569.77 293.619 569.77 292.08C569.77 290.542 571.029 289.283 572.567 289.283C574.105 289.283 575.365 290.542 575.365 292.08C575.365 293.619 574.105 294.878 572.567 294.878ZM572.567 289.634C571.22 289.634 570.136 290.733 570.136 292.066C570.136 293.413 571.234 294.497 572.567 294.497C573.915 294.497 574.999 293.399 574.999 292.066C574.999 290.733 573.915 289.634 572.567 289.634Z" fill="#E6E7E8"/>
<path d="M573.9 303.403H571.249L569.916 301.104L571.249 298.804H573.9L575.233 301.104L573.9 303.403ZM571.454 303.037H573.68L574.794 301.104L573.68 299.17H571.454L570.341 301.104L571.454 303.037Z" fill="#E6E7E8"/>
<path d="M572.317 309.672H570.633V309.071H574.734V309.672H573.05V313.421H572.332V309.672H572.317Z" fill="#D0D2D3"/>
<path d="M670.616 90.2754H649.407C645.408 90.2754 642.156 87.0235 642.156 83.0247V61.8145C642.156 57.8156 645.408 54.5637 649.407 54.5637H670.616C674.615 54.5637 677.866 57.8156 677.866 61.8145V83.0247C677.866 87.0235 674.629 90.2754 670.616 90.2754Z" fill="#699DEE"/>
<path d="M670.414 76.4787V68.3638H667.118V76.4787H670.414Z" fill="white"/>
<path d="M665.799 76.4476V72.4195V68.3913L662.401 65.7546L653.803 72.4195L662.401 79.0843L665.799 76.4476Z" fill="white"/>
<path d="M666.826 76.4792V68.3643H666.372V76.4792H666.826Z" fill="white"/>
<path d="M662.889 72.4194C662.889 71.7602 663.431 71.2183 664.09 71.2183C664.749 71.2183 665.291 71.7602 665.291 72.4194C665.291 73.0785 664.749 73.6205 664.09 73.6205C663.431 73.6205 662.889 73.0785 662.889 72.4194Z" fill="#38B9C6"/>
<path d="M664.085 72.2729H654.77V72.5662H664.085V72.2729Z" fill="#38B9C6"/>
<path d="M657.527 81.8092C653.25 80.6666 650.262 76.7703 650.262 72.332C650.262 68.1134 652.942 64.3781 656.941 63.0305L657.029 63.3088C653.147 64.6125 650.54 68.2305 650.54 72.332C650.54 76.6385 653.44 80.4176 657.6 81.5309L657.527 81.8092Z" fill="white"/>
<path d="M658.332 82.4453V80.9072H656.794V82.4453H658.332Z" fill="white"/>
<path d="M658.342 63.9519V62.4138H656.804V63.9519H658.342Z" fill="white"/>
<path d="M651.166 73.1863V71.6482H649.628V73.1863H651.166Z" fill="white"/>
<path d="M565.418 91.2419C565.418 98.9761 559.545 103.751 552.075 101.715C549.306 100.968 551.108 98.8296 550.361 96.4859C549.014 92.2233 538.497 100.294 537.384 91.2273C536.432 83.5518 543.653 77.2092 551.401 77.2092C559.149 77.2239 565.418 83.5078 565.418 91.2419Z" fill="white"/>
<path opacity="0.7" d="M559.208 90.9781C559.208 93.2778 556.249 92.8677 553.949 92.8677C552.704 92.8677 550.522 94.1567 549.086 93.3071C546.626 91.8423 546.904 90.7291 546.904 89.6745C546.904 87.3747 550.478 85.4705 552.763 85.4705C555.077 85.4559 559.208 88.6784 559.208 90.9781Z" fill="#E6E7E8"/>
<path d="M542.101 91.3588C542.101 92.1791 541.442 92.8529 540.607 92.8529C539.787 92.8529 539.113 92.1791 539.113 91.3588C539.113 90.5385 539.787 89.8647 540.607 89.8647C541.442 89.8794 542.101 90.5385 542.101 91.3588Z" fill="#F2706D"/>
<path d="M542.906 86.7302C542.906 87.6383 542.174 88.3707 541.265 88.3707C540.357 88.3707 539.625 87.6383 539.625 86.7302C539.625 85.822 540.357 85.0896 541.265 85.0896C542.174 85.0749 542.906 85.8073 542.906 86.7302Z" fill="#0083C7"/>
<path d="M544.635 84.4747C545.589 84.4747 546.363 83.7009 546.363 82.7463C546.363 81.7917 545.589 81.0178 544.635 81.0178C543.68 81.0178 542.906 81.7917 542.906 82.7463C542.906 83.7009 543.68 84.4747 544.635 84.4747Z" fill="#485E88"/>
<path d="M550.699 80.9882C550.699 81.955 549.908 82.746 548.941 82.746C547.975 82.746 547.184 81.955 547.184 80.9882C547.184 80.0215 547.975 79.2305 548.941 79.2305C549.908 79.2305 550.699 80.0215 550.699 80.9882Z" fill="#38B9C6"/>
<path d="M553.95 82.746C554.994 82.746 555.84 81.9 555.84 80.8564C555.84 79.8128 554.994 78.9668 553.95 78.9668C552.906 78.9668 552.061 79.8128 552.061 80.8564C552.061 81.9 552.906 82.746 553.95 82.746Z" fill="#FBB157"/>
<path d="M552.704 98.9164L551.908 95.9907L545.93 97.6172L546.726 100.543L552.704 98.9164Z" fill="#8691A3"/>
<path d="M545.969 97.76C545.969 97.76 542.087 96.2073 539.744 98.6243C537.4 101.041 537.854 100.763 536.17 100.675C534.485 100.587 544.079 106.769 546.716 100.499L545.969 97.76Z" fill="#FECE71"/>
<path d="M549.672 99.6055L548.955 96.9543C548.896 96.7638 549.013 96.5734 549.204 96.5295L566.443 92.6478C567.132 92.4866 567.762 92.7357 567.894 93.219C568.025 93.6878 567.601 94.2297 566.927 94.4495L550.097 99.8399C549.921 99.8985 549.731 99.796 549.672 99.6055Z" fill="#364766"/>
<path d="M357.678 58.1229C363.595 52.2051 363.595 42.6254 357.678 36.7076C351.76 30.7898 342.181 30.7898 336.263 36.7076C331.166 41.8051 330.478 49.6417 334.169 55.4863L333.583 60.8034L338.9 60.2175C344.759 63.9235 352.58 63.235 357.678 58.1229Z" fill="#3FB1B5"/>
<path d="M339.633 46.9905C340.775 46.9905 340.936 46.3607 340.936 45.7894C340.936 45.3353 340.878 44.8812 340.805 44.4271C340.746 43.973 340.673 43.5336 340.673 43.0795C340.673 41.5854 341.639 40.9556 343.016 40.9556H343.368V41.8491H343.075C342.123 41.8491 341.801 42.3618 341.801 43.2407C341.801 43.6068 341.845 44.0023 341.918 44.3832C341.976 44.7933 342.035 45.1742 342.035 45.6136C342.05 46.6536 341.596 47.1663 340.863 47.3567V47.386C341.596 47.5618 342.05 48.1184 342.035 49.1438C342.035 49.5832 341.991 49.9787 341.918 50.3742C341.859 50.7843 341.801 51.1505 341.801 51.5314C341.801 52.4395 342.167 52.9376 343.075 52.9376H343.368V53.8311H343.031C341.683 53.8311 340.687 53.2452 340.687 51.6193C340.687 51.1798 340.746 50.7257 340.819 50.2863C340.878 49.8469 340.951 49.4074 340.951 48.9826C340.951 48.4846 340.79 47.7815 339.647 47.7815V46.9905H339.633Z" fill="#485E88"/>
<path d="M354.777 47.8108C353.635 47.8108 353.473 48.4992 353.473 49.0119C353.473 49.4514 353.532 49.8908 353.605 50.3156C353.664 50.755 353.737 51.2091 353.737 51.6486C353.737 53.2891 352.712 53.8604 351.394 53.8604H351.057V52.9669H351.335C352.243 52.9522 352.624 52.4688 352.624 51.5607C352.624 51.1798 352.565 50.799 352.507 50.4035C352.448 50.008 352.375 49.6125 352.375 49.1731C352.375 48.133 352.829 47.5911 353.547 47.4153V47.386C352.829 47.1956 352.375 46.6683 352.375 45.6429C352.375 45.2035 352.433 44.8226 352.507 44.4125C352.551 44.017 352.624 43.6361 352.624 43.2699C352.624 42.3911 352.287 41.893 351.35 41.8784H351.057V40.9849H351.379C352.756 40.9849 353.737 41.6147 353.737 43.1088C353.737 43.5629 353.678 44.0023 353.605 44.4564C353.547 44.9105 353.473 45.3646 353.473 45.8187C353.473 46.3899 353.635 47.0198 354.777 47.0198V47.8108Z" fill="#485E88"/>
<path d="M746.474 203.334C748.182 195.666 743.351 188.066 735.684 186.358C728.017 184.65 720.417 189.482 718.709 197.149C717.001 204.817 721.833 212.417 729.5 214.125C737.167 215.832 744.767 211.001 746.474 203.334Z" fill="white"/>
<path d="M728.105 202.493L730.141 204.514L728.779 205.056L727.549 203.841L728.105 202.493Z" fill="#FBB157"/>
<path d="M727.552 203.84L728.768 205.056L727.449 205.569C727.112 205.701 726.878 205.452 727.01 205.115L727.552 203.84Z" fill="#364766"/>
<path d="M736.426 194.187L738.447 196.223L738.711 195.96C739.179 195.491 739.121 194.641 738.564 194.085C738.008 193.528 737.158 193.455 736.69 193.938L736.426 194.187Z" fill="#CCE6F4"/>
<path d="M729.821 200.78L736.105 194.496L738.126 196.517L731.842 202.801L730.129 204.515L729.631 204.017L731.418 202.23L737.54 196.107L737.35 195.916L731.227 202.039L729.44 203.826L728.107 202.493L729.821 200.78ZM728.62 202.991L728.811 203.182L730.597 201.395L736.72 195.272L736.53 195.082L730.334 201.278L728.62 202.991Z" fill="#F2706D"/>
<path d="M739.574 206.565H723.828V207.298H739.574V206.565Z" fill="#6D6E70"/>
<path d="M741.375 206.565H740.32V207.298H741.375V206.565Z" fill="#6D6E70"/>
<path d="M368.881 347.552H348.623C344.801 347.552 341.695 344.446 341.695 340.623V320.365C341.695 316.542 344.801 313.437 348.623 313.437H368.881C372.704 313.437 375.809 316.542 375.809 320.365V340.623C375.809 344.461 372.704 347.552 368.881 347.552Z" fill="#3FB1B5"/>
<path d="M349.195 323.558L358.76 330.238L368.442 323.558H349.195Z" fill="white"/>
<path d="M358.76 331.863L358.115 331.409L348.932 324.92V336.477C348.932 337.004 349.356 337.429 349.884 337.429H367.622C368.149 337.429 368.574 337.004 368.574 336.477V324.92L359.39 331.409L358.76 331.863Z" fill="white"/>
<path d="M212.201 13.3589C212.201 20.7415 206.225 26.7178 198.843 26.7178C191.46 26.7178 185.484 20.7415 185.484 13.3589C185.484 5.97636 191.46 0 198.843 0C206.225 0 212.201 5.97636 212.201 13.3589Z" fill="white"/>
<path d="M208.496 15.8781C208.496 12.7728 206.05 11.2494 203.048 10.8539C202.564 8.87643 200.616 7.88037 198.844 7.88037C196.31 7.88037 194.259 9.93108 194.259 12.4652C194.259 12.4798 194.259 12.4798 194.259 12.4945C194.113 12.4798 193.952 12.4652 193.805 12.4652C191.271 12.4652 189.221 14.5159 189.221 17.05V17.0646C189.221 17.8556 189.733 18.8224 191.33 18.8224H205.303C207.969 18.8224 208.511 17.05 208.511 15.8928C208.496 15.8928 208.496 15.8781 208.496 15.8781Z" fill="#2B478B"/>
<path d="M8.60547 299.213C8.60547 299.213 25.069 311.239 16.6175 335.906L18.9171 336.038C18.9171 336.053 25.816 311.357 8.60547 299.213Z" fill="#A8D29F"/>
<path d="M39.0397 301.264C39.0397 301.264 22.0929 309.569 25.7986 333.416L23.6748 333.167C23.6748 333.167 21.3898 309.555 39.0397 301.264Z" fill="#A8D29F"/>
<path d="M9.67309 303.432C11.3282 300.605 12.2656 296.855 12.6465 295.082C12.0899 294.57 11.9288 293.779 11.7969 292.973C11.6505 292.08 10.7716 289.912 10.7716 289.912C10.4787 288.213 8.63313 287.627 7.35882 288.828L3.41871 292.563C0.430676 295.39 -0.755751 299.858 0.489265 303.622L3.53589 310.638C3.72631 311.224 4.09249 313.114 4.60514 314.198C4.72232 313.802 4.82485 312.967 4.91273 312.587C6.1724 307.489 7.41741 307.284 9.67309 303.432Z" fill="#82B378"/>
<path d="M5.8954 313.583L13.4973 309.276C17.4081 307.065 20.1032 302.758 20.5134 298.085L20.8063 294.702C20.9674 292.856 19.7224 292.124 17.7597 292.49C16.998 292.622 16.2364 292.944 14.8009 293.632C14.1711 293.94 13.3216 294.921 12.6624 295.068C12.2816 296.84 11.3442 300.59 9.68904 303.417C7.43336 307.255 6.18835 307.46 4.92868 312.587C4.8408 312.968 4.73827 313.803 4.62109 314.198C5.07516 313.817 5.47063 313.832 5.8954 313.583Z" fill="#A8D29F"/>
<path d="M35.04 297.529C34.542 297.719 33.9561 297.632 33.4434 297.163L30.9973 294.907C29.8841 293.882 28.8149 294.321 28.9614 295.932C29.02 296.518 28.8735 298.525 28.8735 298.525C28.8442 302.597 30.265 305.219 32.9454 307.914C34.1758 309.159 36.1971 311.928 37.6179 313.1C37.9548 313.378 39.4927 314.784 39.8296 314.726C39.2437 311.518 38.3063 307.827 37.1345 305.014C35.9774 302.172 35.3622 299.463 35.04 297.529Z" fill="#A8D29F"/>
<path d="M40.8286 312.06C41.6782 310.653 42.9671 307.343 43.1722 305.351C43.4066 303.022 42.85 299.653 40.6968 296.826C39.9937 295.888 39.8912 293.838 39.4811 292.885C38.8805 291.509 36.9911 292.153 36.6542 293.764C36.493 294.526 35.9657 296.357 35.9657 296.357C35.8193 296.943 35.4677 297.324 35.043 297.5C35.3652 299.433 35.9804 302.143 37.1522 304.97C38.324 307.782 39.2614 311.474 39.8473 314.682C40.2427 313.612 39.6129 314.081 40.8286 312.06Z" fill="#82B378"/>
<path d="M26.0046 298.364C26.0046 298.364 24.6864 303.871 23.4414 314.213C22.8848 318.754 23.0312 323.793 22.8262 328.685H23.5732C23.5732 328.685 23.0459 321.493 23.8075 314.271C24.6864 305.922 26.0193 299.755 26.2536 298.188C26.7223 295.083 26.0046 298.364 26.0046 298.364Z" fill="#A8D29F"/>
<path d="M25.2165 303.3C24.4988 303.154 24.4256 301.982 24.6746 301.03C25.2751 298.671 26.1393 294.643 26.857 292.592C27.1793 291.684 27.3404 290.923 27.604 290.937L27.7505 290.952C28.0434 291.098 28.1313 291.787 28.0581 292.387C27.7798 294.731 27.0621 299.36 26.5641 301.762C26.359 302.714 25.9342 303.447 25.2165 303.3Z" fill="#D86713"/>
<path d="M12.6348 312.367C12.6348 312.367 15.5203 314.081 17.6295 321.185C19.7387 328.289 21.1448 329.051 21.1448 329.051L20.5003 329.315C18.9184 326.385 17.3219 322.987 16.6774 320.321C15.242 314.33 12.6348 312.367 12.6348 312.367Z" fill="#82B378"/>
<path d="M18.6694 326.59C18.6694 326.59 16.3405 322.884 15.6228 318.929C14.9197 314.975 13.4404 313.173 12.6348 312.367C12.6348 312.367 15.242 314.33 16.6774 320.306C17.3219 322.987 18.9184 326.371 20.5003 329.3L20.1195 329.447L18.6694 326.59Z" fill="#A6A8AB"/>
<path d="M18.6694 326.59C18.6694 326.59 16.3405 322.884 15.6228 318.929C14.9197 314.975 13.4404 313.173 12.6348 312.367C12.6348 312.367 15.242 314.33 16.6774 320.306C17.3219 322.987 18.9184 326.371 20.5003 329.3L20.1195 329.447L18.6694 326.59Z" fill="#82B378"/>
<path d="M33.0657 310.038C33.0657 310.038 29.9165 311.972 27.6755 319.823C25.4344 327.674 23.8965 328.538 23.8965 328.538L24.6142 328.817C26.3133 325.565 28.0417 321.815 28.7154 318.856C30.2241 312.235 33.0657 310.038 33.0657 310.038Z" fill="#A8D29F"/>
<path d="M26.5897 325.8C26.5897 325.8 29.1237 321.683 29.856 317.318C30.5884 312.953 32.1996 310.947 33.0638 310.053C33.0638 310.053 30.2222 312.25 28.6989 318.856C28.0251 321.815 26.2967 325.565 24.5977 328.817L25.0224 328.978L26.5897 325.8Z" fill="#A6A8AB"/>
<path d="M26.5897 325.8C26.5897 325.8 29.1237 321.683 29.856 317.318C30.5884 312.953 32.1996 310.947 33.0638 310.053C33.0638 310.053 30.2222 312.25 28.6989 318.856C28.0251 321.815 26.2967 325.565 24.5977 328.817L25.0224 328.978L26.5897 325.8Z" fill="#82B378"/>
<path d="M28.48 304.53C28.48 304.53 25.5212 307.211 24.7156 316C23.91 324.788 22.4453 326.004 22.4453 326.004L23.2656 326.151C24.4227 322.357 25.4919 318.021 25.6238 314.755C25.8874 307.431 28.48 304.53 28.48 304.53Z" fill="#A8D29F"/>
<path d="M24.7597 322.562C24.7597 322.562 26.6198 317.684 26.5173 312.894C26.4148 308.104 27.733 305.658 28.48 304.53C28.48 304.53 25.9021 307.431 25.6238 314.755C25.492 318.036 24.4228 322.357 23.2656 326.151L23.749 326.239L24.7597 322.562Z" fill="#A6A8AB"/>
<path d="M24.7597 322.562C24.7597 322.562 26.6198 317.684 26.5173 312.894C26.4148 308.104 27.733 305.658 28.48 304.53C28.48 304.53 25.9021 307.431 25.6238 314.755C25.492 318.036 24.4228 322.357 23.2656 326.151L23.749 326.239L24.7597 322.562Z" fill="#82B378"/>
<path d="M21.4082 298.451C21.4082 298.451 24.5134 302.729 23.1512 314.315C21.789 325.902 23.3563 327.879 23.3563 327.879L22.2577 327.85C21.8037 322.635 21.584 316.732 22.3163 312.469C23.9568 302.904 21.4082 298.451 21.4082 298.451Z" fill="#A8D29F"/>
<path d="M21.302 322.782C21.302 322.782 20.2328 315.971 21.6535 309.804C23.089 303.637 22.0637 300.122 21.4045 298.452C21.4045 298.452 23.9531 302.905 22.3127 312.455C21.5803 316.718 21.8 322.621 22.2541 327.835L21.6096 327.821L21.302 322.782Z" fill="#A6A8AB"/>
<path d="M21.302 322.782C21.302 322.782 20.2328 315.971 21.6535 309.804C23.089 303.637 22.0637 300.122 21.4045 298.452C21.4045 298.452 23.9531 302.905 22.3127 312.455C21.5803 316.718 21.8 322.621 22.2541 327.835L21.6096 327.821L21.302 322.782Z" fill="#82B378"/>
<path d="M29.5043 341.355H14.3298L13.9929 337.679L12.9383 337.137L11.9716 326.297L11.1513 326.165L10.8438 324.144H32.9611L32.6535 326.151L31.8333 326.341L30.7787 337.049L29.8559 337.679L29.5043 341.355Z" fill="#D86713"/>
<path opacity="0.05" d="M325.131 93.2925L316.314 93.3803C314.234 93.3803 313.97 93.4682 306.5 92.9995L302.926 94.3032L299.557 98.1263L281.98 174.999H325.146V93.2925H325.131Z" fill="#231F20"/>
<path d="M511.692 96.3684H302.91V235.743H511.692V96.3684Z" fill="white"/>
<path opacity="0.1" d="M511.693 142.524H368.296C365.147 142.524 362.613 145.073 362.613 148.208V265.919L511.693 235.744V142.524Z" fill="#364766"/>
<path d="M511.692 96.3684H302.91V235.743H511.692V96.3684Z" fill="white"/>
<path d="M511.692 100.28H302.91V96.2369C302.91 94.1569 304.595 92.4578 306.689 92.4578H511.692V100.28Z" fill="#6D7EA0"/>
<path opacity="0.7" d="M445.091 137.705H406.188V166.884H445.091V137.705Z" fill="#EBF3FA"/>
<path d="M445.4 204.075H405.896V174.296H445.4V204.075ZM406.482 203.475H444.785V174.896H406.482V203.475Z" fill="#E6E7E8"/>
<path d="M491.495 204.076H490.586V203.475H490.894V203.182H491.495V204.076Z" fill="#E6E7E8"/>
<path d="M489.368 204.076H488.153V203.475H489.368V204.076ZM486.937 204.076H485.721V203.475H486.937V204.076ZM484.505 204.076H483.29V203.475H484.505V204.076ZM482.074 204.076H480.858V203.475H482.074V204.076ZM479.642 204.076H478.427V203.475H479.642V204.076ZM477.211 204.076H475.995V203.475H477.211V204.076ZM474.78 204.076H473.564V203.475H474.78V204.076ZM472.348 204.076H471.132V203.475H472.348V204.076ZM469.917 204.076H468.701V203.475H469.917V204.076ZM467.485 204.076H466.27V203.475H467.485V204.076ZM465.054 204.076H463.838V203.475H465.054V204.076ZM462.622 204.076H461.407V203.475H462.622V204.076ZM460.176 204.076H458.961V203.475H460.176V204.076ZM457.745 204.076H456.529V203.475H457.745V204.076ZM455.313 204.076H454.098V203.475H455.313V204.076Z" fill="#E6E7E8"/>
<path d="M452.885 204.076H451.99V203.182H452.591V203.475H452.885V204.076Z" fill="#E6E7E8"/>
<path d="M452.591 201.966H451.99V200.75H452.591V201.966ZM452.591 199.534H451.99V198.318H452.591V199.534ZM452.591 197.103H451.99V195.887H452.591V197.103ZM452.591 194.656H451.99V193.441H452.591V194.656ZM452.591 192.225H451.99V191.009H452.591V192.225ZM452.591 189.793H451.99V188.577H452.591V189.793ZM452.591 187.362H451.99V186.146H452.591V187.362ZM452.591 184.93H451.99V183.714H452.591V184.93ZM452.591 182.499H451.99V181.283H452.591V182.499ZM452.591 180.067H451.99V178.851H452.591V180.067ZM452.591 177.635H451.99V176.42H452.591V177.635Z" fill="#E6E7E8"/>
<path d="M452.591 175.205H451.99V174.296H452.885V174.897H452.591V175.205Z" fill="#E6E7E8"/>
<path d="M489.368 174.897H488.153V174.296H489.368V174.897ZM486.937 174.897H485.721V174.296H486.937V174.897ZM484.505 174.897H483.29V174.296H484.505V174.897ZM482.074 174.897H480.858V174.296H482.074V174.897ZM479.642 174.897H478.427V174.296H479.642V174.897ZM477.211 174.897H475.995V174.296H477.211V174.897ZM474.78 174.897H473.564V174.296H474.78V174.897ZM472.348 174.897H471.132V174.296H472.348V174.897ZM469.917 174.897H468.701V174.296H469.917V174.897ZM467.485 174.897H466.27V174.296H467.485V174.897ZM465.054 174.897H463.838V174.296H465.054V174.897ZM462.622 174.897H461.407V174.296H462.622V174.897ZM460.176 174.897H458.961V174.296H460.176V174.897ZM457.745 174.897H456.529V174.296H457.745V174.897ZM455.313 174.897H454.098V174.296H455.313V174.897Z" fill="#E6E7E8"/>
<path d="M491.495 175.205H490.894V174.897H490.586V174.296H491.495V175.205Z" fill="#E6E7E8"/>
<path d="M491.496 201.966H490.895V200.75H491.496V201.966ZM491.496 199.534H490.895V198.318H491.496V199.534ZM491.496 197.088H490.895V195.872H491.496V197.088ZM491.496 194.656H490.895V193.441H491.496V194.656ZM491.496 192.225H490.895V191.009H491.496V192.225ZM491.496 189.793H490.895V188.577H491.496V189.793ZM491.496 187.362H490.895V186.146H491.496V187.362ZM491.496 184.93H490.895V183.714H491.496V184.93ZM491.496 182.499H490.895V181.283H491.496V182.499ZM491.496 180.067H490.895V178.851H491.496V180.067ZM491.496 177.635H490.895V176.42H491.496V177.635Z" fill="#E6E7E8"/>
<path opacity="0.7" d="M364.178 110.475H325.275V128.917H364.178V110.475Z" fill="#D2EEFD"/>
<path d="M489.957 129.21H369.029V110.167H489.957V129.21ZM369.63 128.609H489.356V110.768H369.63V128.609Z" fill="#E6E7E8"/>
<path opacity="0.7" d="M491.186 137.705H452.283V166.884H491.186V137.705Z" fill="#EBF3FA"/>
<path d="M413.22 161.302H411.125V161.904H413.22V161.302Z" fill="#6D7EA0"/>
<path d="M418.303 161.302H415.037V161.904H418.303V161.302Z" fill="#6D7EA0"/>
<path d="M435.135 161.302H420.502V161.904H435.135V161.302Z" fill="#6D7EA0"/>
<path d="M433.973 163.178H415.195V163.779H433.973V163.178Z" fill="#6D7EA0"/>
<path d="M460.382 161.303H458.287V161.904H460.382V161.303Z" fill="#6D7EA0"/>
<path d="M465.464 161.303H462.197V161.904H465.464V161.303Z" fill="#6D7EA0"/>
<path d="M482.297 161.303H467.664V161.904H482.297V161.303Z" fill="#6D7EA0"/>
<path d="M481.135 163.178H462.357V163.779H481.135V163.178Z" fill="#6D7EA0"/>
<path d="M491.495 228.347H324.971V212.175H491.495V228.347ZM325.571 227.746H490.88V212.776H325.571V227.746Z" fill="#E6E7E8"/>
<path d="M364.298 135.845H360.592V139.566H364.298V135.845Z" fill="#B6BFCF"/>
<path d="M327.137 172.602V168.882H323.431V172.602H327.137Z" fill="#B6BFCF"/>
<path d="M399.772 203.929H399.039V203.636H399.479V203.182H399.772V203.929Z" fill="#B6BFCF"/>
<path d="M397.838 203.929H396.637V203.636H397.838V203.929ZM395.436 203.929H394.235V203.636H395.436V203.929ZM393.034 203.929H391.833V203.636H393.034V203.929ZM390.646 203.929H389.445V203.636H390.646V203.929ZM388.244 203.929H387.043V203.636H388.244V203.929ZM385.842 203.929H384.641V203.636H385.842V203.929ZM383.44 203.929H382.239V203.636H383.44V203.929ZM381.038 203.929H379.837V203.636H381.038V203.929ZM378.65 203.929H377.449V203.636H378.65V203.929ZM376.248 203.929H375.047V203.636H376.248V203.929ZM373.846 203.929H372.645V203.636H373.846V203.929ZM371.444 203.929H370.243V203.636H371.444V203.929ZM369.056 203.929H367.855V203.636H369.056V203.929ZM366.654 203.929H365.453V203.636H366.654V203.929ZM364.252 203.929H363.051V203.636H364.252V203.929ZM361.85 203.929H360.649V203.636H361.85V203.929ZM359.448 203.929H358.247V203.636H359.448V203.929ZM357.06 203.929H355.859V203.636H357.06V203.929ZM354.658 203.929H353.457V203.636H354.658V203.929ZM352.256 203.929H351.055V203.636H352.256V203.929ZM349.854 203.929H348.653V203.636H349.854V203.929ZM347.451 203.929H346.25V203.636H347.451V203.929ZM345.064 203.929H343.863V203.636H345.064V203.929ZM342.662 203.929H341.461V203.636H342.662V203.929ZM340.26 203.929H339.059V203.636H340.26V203.929ZM337.858 203.929H336.656V203.636H337.858V203.929ZM335.47 203.929H334.269V203.636H335.47V203.929ZM333.068 203.929H331.867V203.636H333.068V203.929ZM330.666 203.929H329.465V203.636H330.666V203.929ZM328.264 203.929H327.062V203.636H328.264V203.929Z" fill="#B6BFCF"/>
<path d="M325.86 203.929H325.127V203.182H325.42V203.636H325.86V203.929Z" fill="#B6BFCF"/>
<path d="M325.42 202.01H325.127V200.823H325.42V202.01ZM325.42 199.651H325.127V198.465H325.42V199.651ZM325.42 197.279H325.127V196.092H325.42V197.279ZM325.42 194.92H325.127V193.734H325.42V194.92ZM325.42 192.562H325.127V191.375H325.42V192.562ZM325.42 190.204H325.127V189.017H325.42V190.204ZM325.42 187.845H325.127V186.659H325.42V187.845ZM325.42 185.487H325.127V184.3H325.42V185.487ZM325.42 183.129H325.127V181.942H325.42V183.129ZM325.42 180.77H325.127V179.584H325.42V180.77ZM325.42 178.412H325.127V177.225H325.42V178.412ZM325.42 176.054H325.127V174.867H325.42V176.054ZM325.42 173.695H325.127V172.523H325.42V173.695ZM325.42 171.322H325.127V170.151H325.42V171.322ZM325.42 168.964H325.127V167.792H325.42V168.964ZM325.42 166.606H325.127V165.434H325.42V166.606ZM325.42 164.247H325.127V163.076H325.42V164.247ZM325.42 161.889H325.127V160.703H325.42V161.889ZM325.42 159.531H325.127V158.359H325.42V159.531ZM325.42 157.172H325.127V155.986H325.42V157.172ZM325.42 154.814H325.127V153.628H325.42V154.814ZM325.42 152.456H325.127V151.269H325.42V152.456ZM325.42 150.098H325.127V148.911H325.42V150.098ZM325.42 147.739H325.127V146.553H325.42V147.739ZM325.42 145.381H325.127V144.194H325.42V145.381ZM325.42 143.008H325.127V141.821H325.42V143.008ZM325.42 140.65H325.127V139.463H325.42V140.65Z" fill="#B6BFCF"/>
<path d="M325.42 138.292H325.127V137.559H325.86V137.852H325.42V138.292Z" fill="#B6BFCF"/>
<path d="M397.838 137.852H396.637V137.559H397.838V137.852ZM395.436 137.852H394.235V137.559H395.436V137.852ZM393.034 137.852H391.833V137.559H393.034V137.852ZM390.646 137.852H389.445V137.559H390.646V137.852ZM388.244 137.852H387.043V137.559H388.244V137.852ZM385.842 137.852H384.641V137.559H385.842V137.852ZM383.44 137.852H382.239V137.559H383.44V137.852ZM381.038 137.852H379.837V137.559H381.038V137.852ZM378.65 137.852H377.449V137.559H378.65V137.852ZM376.248 137.852H375.047V137.559H376.248V137.852ZM373.846 137.852H372.645V137.559H373.846V137.852ZM371.444 137.852H370.243V137.559H371.444V137.852ZM369.056 137.852H367.855V137.559H369.056V137.852ZM366.654 137.852H365.453V137.559H366.654V137.852ZM364.252 137.852H363.051V137.559H364.252V137.852ZM361.85 137.852H360.649V137.559H361.85V137.852ZM359.448 137.852H358.247V137.559H359.448V137.852ZM357.06 137.852H355.859V137.559H357.06V137.852ZM354.658 137.852H353.457V137.559H354.658V137.852ZM352.256 137.852H351.055V137.559H352.256V137.852ZM349.854 137.852H348.653V137.559H349.854V137.852ZM347.451 137.852H346.25V137.559H347.451V137.852ZM345.064 137.852H343.863V137.559H345.064V137.852ZM342.662 137.852H341.461V137.559H342.662V137.852ZM340.26 137.852H339.059V137.559H340.26V137.852ZM337.858 137.852H336.656V137.559H337.858V137.852ZM335.47 137.852H334.269V137.559H335.47V137.852ZM333.068 137.852H331.867V137.559H333.068V137.852ZM330.666 137.852H329.465V137.559H330.666V137.852ZM328.264 137.852H327.062V137.559H328.264V137.852Z" fill="#B6BFCF"/>
<path d="M399.772 138.292H399.479V137.852H399.039V137.559H399.772V138.292Z" fill="#B6BFCF"/>
<path d="M399.772 202.01H399.479V200.823H399.772V202.01ZM399.772 199.651H399.479V198.465H399.772V199.651ZM399.772 197.279H399.479V196.092H399.772V197.279ZM399.772 194.92H399.479V193.734H399.772V194.92ZM399.772 192.562H399.479V191.375H399.772V192.562ZM399.772 190.204H399.479V189.017H399.772V190.204ZM399.772 187.845H399.479V186.659H399.772V187.845ZM399.772 185.487H399.479V184.3H399.772V185.487ZM399.772 183.129H399.479V181.942H399.772V183.129ZM399.772 180.77H399.479V179.598H399.772V180.77ZM399.772 178.412H399.479V177.225H399.772V178.412ZM399.772 176.054H399.479V174.867H399.772V176.054ZM399.772 173.695H399.479V172.523H399.772V173.695ZM399.772 171.322H399.479V170.151H399.772V171.322ZM399.772 168.964H399.479V167.792H399.772V168.964ZM399.772 166.606H399.479V165.434H399.772V166.606ZM399.772 164.247H399.479V163.076H399.772V164.247ZM399.772 161.889H399.479V160.703H399.772V161.889ZM399.772 159.531H399.479V158.344H399.772V159.531ZM399.772 157.172H399.479V155.986H399.772V157.172ZM399.772 154.814H399.479V153.628H399.772V154.814ZM399.772 152.456H399.479V151.269H399.772V152.456ZM399.772 150.098H399.479V148.911H399.772V150.098ZM399.772 147.739H399.479V146.553H399.772V147.739ZM399.772 145.381H399.479V144.194H399.772V145.381ZM399.772 143.008H399.479V141.821H399.772V143.008ZM399.772 140.65H399.479V139.463H399.772V140.65Z" fill="#B6BFCF"/>
<path d="M327.122 135.845H323.416V139.566H327.122V135.845Z" fill="#B6BFCF"/>
<path d="M400.783 136.549H398.469V138.863H400.783V136.549Z" fill="#B6BFCF"/>
<path d="M400.783 169.579H398.469V171.894H400.783V169.579Z" fill="#B6BFCF"/>
<path d="M400.783 202.61H398.469V204.925H400.783V202.61Z" fill="#B6BFCF"/>
<path d="M363.607 202.61H361.293V204.925H363.607V202.61Z" fill="#B6BFCF"/>
<path d="M326.433 202.61H324.119V204.925H326.433V202.61Z" fill="#B6BFCF"/>
<path d="M489.751 355.739L491.054 363.869L489.809 364.557L485.957 366.286V367.179L494.365 367.296L495.009 366.462L493.456 355.402L489.751 355.739Z" fill="#F9C0B2"/>
<path d="M489.045 364.792L489.967 364.279L489.704 365.802L493.878 364.909L495.021 364.294L495.167 366.667L494.713 367.414H492.677H489.308L484.577 367.297L484.328 366.667L489.045 364.792Z" fill="#2B295E"/>
<path d="M461.552 356.047L460.263 363.4L459.004 364.074L455.166 365.802V366.71L463.574 366.827L464.203 365.978L465.507 355.695L461.552 356.047Z" fill="#F9C0B2"/>
<path d="M458.258 364.323L459.181 363.796L458.918 365.334L463.444 364.411L464.586 363.796L464.366 366.183L463.927 366.945H461.876H458.507L453.791 366.828L453.527 366.183L458.258 364.323Z" fill="#2B295E"/>
<path d="M460.719 359.123H465.655L472.466 315.238L480.961 277.505L468.936 277.842L465.025 315.238L460.719 359.123Z" fill="#2A4E96"/>
<path d="M490.042 361.115H494.626L490.349 315.531L490.027 285.854L491.756 276.948L476.742 277.915L478.397 292.621L482.923 315.531L490.042 361.115Z" fill="#2A4E96"/>
<path d="M480.36 202.17L480.052 198.933L481.268 196.326L480.682 191.858L479.994 192.386L479.979 193.777L479.774 194.905L479.496 194.876L478.646 192.283L478.163 188.929L474.018 191.038L474.164 194.099L474.545 196.179L475.892 198.465L476.478 202.712L480.36 202.17Z" fill="#F9C0B2"/>
<path d="M475.001 198.933L451.595 196.956C449.091 196.751 447.23 194.539 447.435 192.034L449.413 168.627C449.618 166.122 451.83 164.262 454.334 164.467L477.741 166.444C480.245 166.649 482.105 168.861 481.9 171.366L479.923 194.773C479.718 197.278 477.506 199.138 475.001 198.933Z" fill="#699DEE"/>
<path d="M469.843 190.584L454.756 189.309C454.405 189.28 454.141 188.973 454.17 188.606L454.976 179.041C455.005 178.69 455.313 178.426 455.679 178.455L470.766 179.73C471.117 179.759 471.381 180.067 471.351 180.433L470.546 189.998C470.517 190.349 470.209 190.613 469.843 190.584Z" fill="white"/>
<path d="M468.76 185.032L473.506 189.808L473.886 189.895L474.633 181.077H474.296L468.76 185.032Z" fill="white"/>
<path d="M462.974 175.804C462.857 177.284 461.553 178.368 460.074 178.25C458.595 178.119 457.511 176.83 457.628 175.35C457.76 173.871 459.049 172.787 460.528 172.904C462.007 173.036 463.106 174.325 462.974 175.804Z" fill="white"/>
<path d="M466.432 178.778C467.913 178.778 469.113 177.578 469.113 176.098C469.113 174.617 467.913 173.417 466.432 173.417C464.952 173.417 463.752 174.617 463.752 176.098C463.752 177.578 464.952 178.778 466.432 178.778Z" fill="white"/>
<path d="M490.395 242.599C491.04 242.291 491.538 242.013 491.538 242.013C492.9 241.354 493.501 239.2 492.753 237.882C488.857 230.997 483.789 220.759 483.789 220.759L480.611 199.929L475.924 201.702L478.18 221.872L478.707 224.098L485.972 243.565C486.602 244.898 489.414 243.067 490.395 242.599Z" fill="#C65447"/>
<path d="M483.699 231.539L474.486 228.199L475.014 223.937L474.047 223.102L476.727 219.879L478.514 214.518L488.738 218.459L483.699 231.539Z" fill="#F9C0B2"/>
<path d="M483.071 236.476L479.966 236.461C479.16 236.461 478.516 235.802 478.516 234.996L478.56 226.647L484.58 226.676L484.536 235.026C484.536 235.831 483.877 236.476 483.071 236.476Z" fill="#F9C0B2"/>
<path d="M484.943 213.464C488.576 214.679 490.67 215.676 490.436 222.677C490.392 224.171 491.285 225.255 492.604 225.724C493.072 226.661 493.746 228.888 491.564 230.309C488.766 232.14 489.367 234.938 486.408 233.312C484.211 232.11 483.639 231.847 483.054 231.319C482.819 231.1 480.681 229.108 480.388 228.873C478.777 227.496 479.626 225.9 480.285 224.904C480.783 224.157 481.603 222.619 481.867 222.223C481.999 222.018 482.131 220.89 481.457 220.744C480.315 220.48 480.915 219.308 480.827 218.942C480.754 218.664 480.578 218.415 480.578 218.415C480.578 218.415 479.201 218.005 478.923 217.638C478.073 216.598 476.828 210.754 484.943 213.464Z" fill="#163560"/>
<path d="M492.605 280.772L490.481 268.892L490.408 261.275L493.557 243.551C493.777 239.962 492.854 235.407 489.266 235.187L487.962 235.114L477.694 234.44L474.809 234.235C470.136 234.235 469.58 244.445 469.58 244.445L470.796 260.689L470.385 265.421L466.035 279.175L492.605 280.772Z" fill="#C65447"/>
<path d="M458.17 203.196L457.497 200.178L457.965 197.6L457.702 195.564L456.486 193.411L456.076 194.48L456.339 195.374L456.442 196.428H456.178L455.182 194.539L454.465 191.624L451.828 193.953L451.682 196.282L452.282 198.186L453.542 200.207L454.567 204.133L458.17 203.196Z" fill="#F9C0B2"/>
<path d="M475.058 241.383C475.644 240.973 476.083 240.607 476.083 240.607C477.313 239.728 477.548 237.501 476.581 236.329C471.572 230.206 463.062 222.297 463.062 222.297L458.184 200.984L453.57 202.493L457.73 224.347L458.624 226.457L470.854 243.082C471.733 244.298 474.179 242.013 475.058 241.383Z" fill="#C65447"/>
<path d="M84.2574 174.193H7.03711V225.739H84.2574V174.193Z" fill="#F7FCFD"/>
<path d="M38.6594 180.946H17.6406V181.459H38.6594V180.946Z" fill="#58595B"/>
<path d="M30.1055 182.469H18.0508V182.982H30.1055V182.469Z" fill="#0083C7"/>
<path d="M20.8503 185.868H17.877V186.381H20.8503V185.868Z" fill="#F2706D"/>
<path d="M29.7855 185.867H21.9785V186.381H29.7855V185.867Z" fill="#0083C7"/>
<path d="M24.071 187.493H20.9805V188.006H24.071V187.493Z" fill="#58595B"/>
<path d="M27.7195 187.493H24.7168V188.006H27.7195V187.493Z" fill="#58595B"/>
<path d="M34.6754 187.493H29.3145V188.006H34.6754V187.493Z" fill="#38B9C6"/>
<path d="M26.4324 189.105H23.8105V189.618H26.4324V189.105Z" fill="#F2706D"/>
<path d="M29.5223 189.104H27.0762V189.618H29.5223V189.104Z" fill="#58595B"/>
<path d="M38.1937 189.104H30.4746V189.618H38.1937V189.104Z" fill="#58595B"/>
<path d="M56.5899 189.104H44.7988V189.618H56.5899V189.104Z" fill="#58595B"/>
<path d="M63.2261 189.104H58.0703V189.618H63.2261V189.104Z" fill="#38B9C6"/>
<path d="M25.8026 190.716H23.8105V191.229H25.8026V190.716Z" fill="#F2706D"/>
<path d="M30.0515 190.716H27.0488V191.229H30.0515V190.716Z" fill="#58595B"/>
<path d="M41.504 190.716H30.5918V191.229H41.504V190.716Z" fill="#38B9C6"/>
<path d="M42.616 192.327H28.1445V192.84H42.616V192.327Z" fill="#0083C7"/>
<path d="M28.1461 193.953H23.8105V194.466H28.1461V193.953Z" fill="#58595B"/>
<path d="M25.6122 195.564H23.8105V196.077H25.6122V195.564Z" fill="#F2706D"/>
<path d="M30.0203 195.564H27.1934V196.077H30.0203V195.564Z" fill="#38B9C6"/>
<path d="M44.5361 195.564H31.9102V196.077H44.5361V195.564Z" fill="#58595B"/>
<path d="M43.5524 197.176H27.3379V197.689H43.5524V197.176Z" fill="#58595B"/>
<path d="M27.6481 198.802H23.8105V199.315H27.6481V198.802Z" fill="#58595B"/>
<path d="M26.8132 200.413H23.8105V200.926H26.8132V200.413Z" fill="#F2706D"/>
<path d="M29.3319 200.413H27.6621V200.926H29.3319V200.413Z" fill="#0083C7"/>
<path d="M38.8382 200.413H31.002V200.926H38.8382V200.413Z" fill="#58595B"/>
<path d="M32.3922 202.024H27.9102V202.537H32.3922V202.024Z" fill="#38B9C6"/>
<path d="M52.1372 202.024H34.2383V202.537H52.1372V202.024Z" fill="#58595B"/>
<path d="M59.7525 202.024H53.8203V202.537H59.7525V202.024Z" fill="#38B9C6"/>
<path d="M74.8681 202.024H61.627V202.537H74.8681V202.024Z" fill="#58595B"/>
<path d="M25.0121 203.65H18.2012V204.163H25.0121V203.65Z" fill="#58595B"/>
<path d="M34.0513 203.65H27.9141V204.163H34.0513V203.65Z" fill="#58595B"/>
<path d="M28.483 205.261H23.8105V205.775H28.483V205.261Z" fill="#58595B"/>
<path d="M25.4333 206.873H21.4492V207.386H25.4333V206.873Z" fill="#0083C7"/>
<path d="M22.4469 208.484H18.1992V208.997H22.4469V208.484Z" fill="#58595B"/>
<path d="M20.5594 211.472H18.2012V211.985H20.5594V211.472Z" fill="#F2706D"/>
<path d="M25.0105 211.472H21.7441V211.985H25.0105V211.472Z" fill="#58595B"/>
<path d="M34.7825 211.472H25.9062V211.985H34.7825V211.472Z" fill="#58595B"/>
<path d="M27.7329 213.054H21.0391V213.567H27.7329V213.054Z" fill="#58595B"/>
<path d="M34.5016 213.054H29.7266V213.567H34.5016V213.054Z" fill="#0083C7"/>
<path d="M37.3427 214.621H24.248V215.135H37.3427V214.621Z" fill="#58595B"/>
<path d="M26.8992 216.203H24.248V216.716H26.8992V216.203Z" fill="#F2706D"/>
<path d="M29.9735 216.203H28.084V216.716H29.9735V216.203Z" fill="#38B9C6"/>
<path d="M48.8404 216.203H31.2051V216.716H48.8404V216.203Z" fill="#58595B"/>
<path d="M54.156 216.203H50.6406V216.716H54.156V216.203Z" fill="#58595B"/>
<path d="M24.9938 217.77H21.0391V218.283H24.9938V217.77Z" fill="#58595B"/>
<path d="M23.648 219.353H18.1992V219.866H23.648V219.353Z" fill="#58595B"/>
<path d="M84.2574 175.438H7.03711V174.603C7.03711 173.695 7.76947 172.962 8.6776 172.962H82.6022C83.5104 172.962 84.2427 173.695 84.2427 174.603V175.438H84.2574Z" fill="#699DEE"/>
<path opacity="0.1" d="M379.649 185.721L308.742 216.027H307.072L302.912 224.509V203.635L305.651 199.651L308.742 198.465L378.052 183.67L379.649 185.721Z" fill="#364766"/>
<path d="M364.57 121.752L292.559 138.729L307.677 202.725L379.689 185.747L364.57 121.752Z" fill="#D6EBF6"/>
<path d="M361.411 127.311L297.857 142.31L310.801 197.156L374.355 182.157L361.411 127.311Z" fill="#9ABEDB"/>
<path d="M351.83 145.088L325.553 193.66L374.313 182.088L368.367 156.835L351.83 145.088Z" fill="#699DEE"/>
<path d="M321.132 160.263L307.744 184.242L310.791 197.132L357.223 186.131L321.132 160.263Z" fill="#699DEE"/>
<path d="M338.049 149.468C338.605 151.855 337.141 154.243 334.753 154.814C332.366 155.371 329.978 153.906 329.407 151.518C328.85 149.131 330.315 146.743 332.717 146.172C335.09 145.601 337.478 147.08 338.049 149.468Z" fill="#C65447"/>
<path opacity="0.6" d="M315.287 160.878C314.877 159.15 313.324 158.622 311.596 158.798C311.068 157.758 309.853 157.465 308.871 157.699C307.465 158.036 306.586 159.442 306.923 160.849V160.863C306.835 160.878 306.748 160.893 306.674 160.907C305.268 161.244 304.36 162.46 304.682 163.866L304.726 164.071C304.829 164.511 305.239 164.979 306.118 164.774L313.881 162.943C315.375 162.592 315.448 161.537 315.287 160.878C315.301 160.878 315.287 160.878 315.287 160.878Z" fill="white"/>
<path opacity="0.6" d="M322.317 165.2C322.039 163.999 320.94 163.618 319.739 163.75C319.373 163.017 318.523 162.812 317.835 162.973C316.853 163.208 316.238 164.189 316.473 165.185C316.473 165.185 316.473 165.185 316.473 165.2C316.414 165.214 316.355 165.214 316.297 165.229C315.315 165.463 314.7 166.445 314.935 167.441C315.008 167.748 315.286 168.071 315.916 167.924L321.35 166.635C322.375 166.401 322.419 165.654 322.317 165.2Z" fill="white"/>
<path opacity="0.6" d="M364.312 149.511C363.931 147.885 362.466 147.387 360.84 147.563C360.342 146.582 359.2 146.318 358.277 146.523C356.959 146.831 356.139 148.164 356.446 149.482V149.497C356.373 149.511 356.285 149.526 356.212 149.541C354.894 149.848 354.073 151.181 354.381 152.499V152.514C354.484 152.924 354.864 153.364 355.699 153.173L363.008 151.445C364.385 151.123 364.458 150.127 364.312 149.511Z" fill="white"/>
<path opacity="0.2" d="M152.572 343.45C152.572 344.036 136.548 344.504 116.789 344.504C97.0299 344.504 81.0059 344.036 81.0059 343.45C81.0059 342.878 97.0299 342.395 116.789 342.395C136.563 342.395 152.572 342.864 152.572 343.45Z" fill="#0083C7"/>
<path opacity="0.2" d="M206.856 346.599C221.587 346.599 233.529 346.127 233.529 345.544C233.529 344.962 221.587 344.49 206.856 344.49C192.125 344.49 180.184 344.962 180.184 345.544C180.184 346.127 192.125 346.599 206.856 346.599Z" fill="#0083C7"/>
<path opacity="0.2" d="M214.838 342.395C214.838 342.967 178.718 343.45 134.147 343.45C89.5752 343.45 53.4551 342.981 53.4551 342.395C53.4551 341.81 89.5752 341.341 134.147 341.341C178.718 341.341 214.838 341.81 214.838 342.395Z" fill="#0083C7"/>
<path d="M213.885 265.684H59.459V268.98H213.885V265.684Z" fill="#D1A586"/>
<path d="M65.8601 268.966H62.7402V341.971H65.8601V268.966Z" fill="#D1A586"/>
<path d="M209.415 268.966H206.295V341.971H209.415V268.966Z" fill="#D1A586"/>
<path d="M140.575 264.82C139.93 264.776 138.847 264.703 138.334 264.571C136.21 264.043 134.379 261.597 134.379 259.415V248.78H119.761V259.415C119.761 261.597 117.93 264.043 115.806 264.571C115.294 264.703 114.225 264.776 113.565 264.82C113.258 264.834 113.023 265.083 113.023 265.391V265.918H127.056H141.088V265.391C141.117 265.083 140.882 264.834 140.575 264.82Z" fill="#699DEE"/>
<path d="M119.775 248.78V256.661L134.379 259.21V248.78H119.775Z" fill="#699DEE"/>
<path d="M157.406 256.089H96.7665C95.8876 256.089 95.1699 255.372 95.1699 254.493V211.457C95.1699 210.578 95.8876 209.861 96.7665 209.861H157.406C158.285 209.861 159.003 210.578 159.003 211.457V254.493C159.003 255.372 158.285 256.089 157.406 256.089Z" fill="#699DEE"/>
<path d="M156.936 211.926H97.2188V248.795H156.936V211.926Z" fill="#C5E9ED"/>
<path d="M160.351 264.586H111.648V265.568H160.351V264.586Z" fill="#699DEE"/>
<path d="M196.19 344.856H196.322L196.351 345.53H199.588L199.5 344.637H199.398V344.622L199.383 341.341H196.029L195.955 341.78L194.403 342.923L189.496 344.329C189.496 344.329 189.115 344.49 189.115 344.71L189.13 345.091L189.145 345.325C189.145 345.325 189.203 345.428 189.599 345.545H195.223L195.56 345.091L195.897 344.886L196.19 344.856Z" fill="#2B295E"/>
<path d="M224.896 344.856H225.028L225.057 345.53H228.294L228.206 344.637H228.104V344.622L227.899 341.341H224.544L224.471 341.78L223.124 342.923L218.217 344.329C218.217 344.329 217.836 344.49 217.836 344.71L217.851 345.091L217.865 345.325C217.865 345.325 217.924 345.428 218.319 345.545H223.944L224.281 345.091L224.618 344.886L224.896 344.856Z" fill="#2B295E"/>
<path d="M223.813 341.736H228.398L228.72 301.572L230.053 261.392H217.793L221.733 301.572L223.813 341.736Z" fill="#C65447"/>
<path d="M195.34 341.531L199.924 341.751L208.61 304.677L219.552 261.451L207.6 261.392L205.666 276.568L201.638 304.355L195.34 341.531Z" fill="#C65447"/>
<path d="M184.064 238.029L180.359 239.127L177.839 238.571L175.745 238.717L173.899 239.171L174.983 239.772L175.964 239.684L176.697 239.86V240.109L174.632 241.046L170.75 241.632L171.233 242.247L172.317 242.818L173.548 243.624L176.96 243.199L180.769 241.984L185.104 241.105L184.064 238.029Z" fill="#F9C0B2"/>
<path d="M199.529 239.084L199.163 238.864C197.962 238.132 197.537 236.594 198.197 235.349L211.877 216.233C213.181 214.256 215.436 213.567 217.355 214.739L217.751 215.003C219.669 216.16 219.845 218.43 218.586 220.29L203.074 238.293C202.298 239.465 200.731 239.816 199.529 239.084Z" fill="#F7FCFD"/>
<path d="M183.226 242.218L181.41 238.307L200.378 233.84C202.868 233.4 203.777 235.846 203.469 237.267C203.147 238.688 202.37 239.435 200.393 239.684L183.226 242.218Z" fill="#DDE3F2"/>
<path d="M211.219 218.913L208.744 219.382C207.997 219.529 207.265 219.031 207.118 218.269L205.668 210.579L210.868 209.597L212.318 217.288C212.479 218.049 211.981 218.767 211.219 218.913Z" fill="#F9C0B2"/>
<path d="M211.262 211.662L203.748 213.742L201.961 211.164L200.496 210.168L201.39 207.59L201.038 202.302L209.138 200.384L211.262 211.662Z" fill="#F9C0B2"/>
<path d="M210.544 207.839C210.544 207.839 207.468 206.624 207.234 205.642C206.999 204.661 206.165 202.244 205.183 203.255C204.524 203.943 203.777 203.782 202.576 203.43C201.375 203.079 200.686 203.518 199.778 202.171C198.87 200.823 199.251 199.827 199.705 199.358C199.939 199.124 200.716 198.67 202.708 199.051C204.7 199.432 206.34 198.099 207.571 198.436C209.504 198.963 211.482 201.204 211.701 203.24C211.906 205.261 210.544 207.839 210.544 207.839Z" fill="#2B478B"/>
<path d="M229.939 262.242L207.426 263.252L206.225 261.216L200.425 231.569L199.722 226.662C199.18 220.612 200.396 216.921 203.706 216.247L212.582 213.991C218.719 213.068 221.986 217.419 223.172 221.213L225.618 230.192L230.833 256.587L229.939 262.242Z" fill="#DDE3F2"/>
<path d="M184.561 265.567L186.553 265.684L189.248 264.512L190.201 264.688L189.571 265.684H190.977L191.973 263.897L192.046 262.388L194.126 259.18L191.109 258.272L188.809 261.48L186.773 263.399L182.438 265.215V265.684L184.561 265.567Z" fill="#F9C0B2"/>
<path d="M200.309 246.451L199.885 246.437C198.478 246.393 197.351 245.25 197.336 243.844L199.958 220.48C200.119 218.107 201.774 216.423 204.015 216.496L204.484 216.54C206.725 216.613 207.97 218.503 207.794 220.744L203.034 244.034C202.917 245.426 201.715 246.495 200.309 246.451Z" fill="#DDE3F2"/>
<path d="M193.41 261.392L189.514 259.942L197.614 242.525C198.815 240.299 201.29 241.104 202.213 242.232C203.136 243.36 203.223 244.43 202.198 246.143L193.41 261.392Z" fill="#DDE3F2"/>
<path d="M142.714 216.643H101.365V244.255H142.714V216.643Z" fill="#F7FCFD"/>
<path d="M118.298 220.26H107.049V220.539H118.298V220.26Z" fill="#58595B"/>
<path d="M113.717 221.067H107.258V221.345H113.717V221.067Z" fill="#0083C7"/>
<path d="M108.763 222.897H107.166V223.176H108.763V222.897Z" fill="#F2706D"/>
<path d="M113.538 222.897H109.363V223.176H113.538V222.897Z" fill="#0083C7"/>
<path d="M110.493 223.761H108.838V224.04H110.493V223.761Z" fill="#58595B"/>
<path d="M112.443 223.761H110.832V224.04H112.443V223.761Z" fill="#58595B"/>
<path d="M116.162 223.761H113.291V224.04H116.162V223.761Z" fill="#38B9C6"/>
<path d="M111.75 224.625H110.344V224.904H111.75V224.625Z" fill="#F2706D"/>
<path d="M113.393 224.625H112.09V224.904H113.393V224.625Z" fill="#58595B"/>
<path d="M118.05 224.625H113.92V224.904H118.05V224.625Z" fill="#58595B"/>
<path d="M127.909 224.625H121.596V224.904H127.909V224.625Z" fill="#58595B"/>
<path d="M131.451 224.625H128.697V224.904H131.451V224.625Z" fill="#38B9C6"/>
<path d="M111.413 225.49H110.344V225.769H111.413V225.49Z" fill="#F2706D"/>
<path d="M113.687 225.49H112.076V225.768H113.687V225.49Z" fill="#58595B"/>
<path d="M119.823 225.49H113.979V225.768H119.823V225.49Z" fill="#38B9C6"/>
<path d="M120.422 226.354H112.674V226.632H120.422V226.354Z" fill="#0083C7"/>
<path d="M112.673 227.218H110.344V227.497H112.673V227.218Z" fill="#58595B"/>
<path d="M111.311 228.083H110.344V228.361H111.311V228.083Z" fill="#F2706D"/>
<path d="M113.673 228.083H112.164V228.361H113.673V228.083Z" fill="#38B9C6"/>
<path d="M121.449 228.083H114.682V228.361H121.449V228.083Z" fill="#58595B"/>
<path d="M120.922 228.947H112.236V229.225H120.922V228.947Z" fill="#58595B"/>
<path d="M112.394 229.811H110.344V230.09H112.394V229.811Z" fill="#58595B"/>
<path d="M111.955 230.675H110.344V230.954H111.955V230.675Z" fill="#F2706D"/>
<path d="M113.305 230.675H112.41V230.954H113.305V230.675Z" fill="#0083C7"/>
<path d="M118.39 230.675H114.201V230.954H118.39V230.675Z" fill="#58595B"/>
<path d="M114.945 231.554H112.543V231.833H114.945V231.554Z" fill="#38B9C6"/>
<path d="M125.522 231.554H115.928V231.833H125.522V231.554Z" fill="#58595B"/>
<path d="M129.606 231.554H126.428V231.833H129.606V231.554Z" fill="#38B9C6"/>
<path d="M137.693 231.554H130.604V231.833H137.693V231.554Z" fill="#58595B"/>
<path d="M110.989 232.418H107.342V232.697H110.989V232.418Z" fill="#58595B"/>
<path d="M115.839 232.418H112.543V232.697H115.839V232.418Z" fill="#58595B"/>
<path d="M112.848 233.282H110.344V233.561H112.848V233.282Z" fill="#58595B"/>
<path d="M111.224 234.147H109.086V234.425H111.224V234.147Z" fill="#0083C7"/>
<path d="M109.612 235.011H107.342V235.29H109.612V235.011Z" fill="#58595B"/>
<path d="M108.601 236.607H107.342V236.886H108.601V236.607Z" fill="#F2706D"/>
<path d="M110.989 236.607H109.246V236.886H110.989V236.607Z" fill="#58595B"/>
<path d="M116.233 236.607H111.473V236.886H116.233V236.607Z" fill="#58595B"/>
<path d="M112.456 237.457H108.867V237.736H112.456V237.457Z" fill="#58595B"/>
<path d="M116.073 237.457H113.51V237.736H116.073V237.457Z" fill="#0083C7"/>
<path d="M117.594 238.292H110.578V238.571H117.594V238.292Z" fill="#58595B"/>
<path d="M111.999 239.142H110.578V239.42H111.999V239.142Z" fill="#F2706D"/>
<path d="M113.655 239.142H112.645V239.42H113.655V239.142Z" fill="#38B9C6"/>
<path d="M123.764 239.142H114.316V239.42H123.764V239.142Z" fill="#58595B"/>
<path d="M126.62 239.142H124.73V239.42H126.62V239.142Z" fill="#58595B"/>
<path d="M110.991 239.977H108.867V240.255H110.991V239.977Z" fill="#58595B"/>
<path d="M110.257 240.826H107.342V241.105H110.257V240.826Z" fill="#58595B"/>
<path d="M142.714 217.302H101.365V216.848C101.365 216.364 101.761 215.969 102.244 215.969H141.836C142.319 215.969 142.714 216.364 142.714 216.848V217.302Z" fill="#699DEE"/>
<path d="M207.339 222.941L202.945 244.415L203.868 249.117L207.339 222.941Z" fill="#DADFE7"/>
<path d="M91.3204 296.414H116.309V281.648H91.3204V296.414Z" fill="#333380"/>
<path d="M130.673 341.692H130.498L130.454 342.571H126.221L126.338 341.399H126.47V341.384L126.865 337.151L130.644 337.195L133.002 339.129L139.682 340.96C139.682 340.96 140.194 341.179 140.18 341.458L140.165 341.97L140.15 342.278C140.15 342.278 140.077 342.41 139.55 342.571H131.918L131.479 341.985L131.04 341.707L130.673 341.692Z" fill="#2B295E"/>
<path d="M131.727 337.796L126.22 338.557L129.647 298.495L123.188 298.012L91.5938 296.415V287.597L114.81 288.33L133.646 289.75C135.096 289.853 136.385 290.688 137.073 291.962L138.216 294.042C138.67 294.892 138.846 295.859 138.685 296.811L131.727 337.796Z" fill="#333380"/>
<path d="M116.011 339.963H115.836L115.792 340.842H111.559L111.676 339.671H111.808V339.656L112.203 335.423L115.982 335.467L118.326 337.4L125.005 339.231C125.005 339.231 125.517 339.451 125.503 339.729L125.488 340.242L125.473 340.549C125.473 340.549 125.4 340.681 124.873 340.842H117.242L116.802 340.256L116.363 339.978L116.011 339.963Z" fill="#2B295E"/>
<path d="M117.066 335.716L111.559 336.478L116.246 295.874L107.868 296.43L91.3164 296.972L91.8876 288.345H100.896L121.958 288.198C122.618 288.198 123.218 288.55 123.526 289.121L125.181 292.153C125.386 292.519 125.444 292.944 125.371 293.34L117.066 335.716Z" fill="#333380"/>
<path d="M104.469 236.52L113.242 235.846C113.726 235.817 114.092 235.407 114.077 234.923L114.004 231.862L115.718 231.906L114.37 228.522L113.931 227.79L113.975 222.648L103.004 222.561L104.132 234.015L104.469 236.52Z" fill="#F9C0B2"/>
<path d="M104.396 243.024L109.273 243.361C109.537 243.375 109.771 243.185 109.786 242.921L110.343 234.835L104.191 234.411L103.649 242.174C103.634 242.613 103.957 242.994 104.396 243.024Z" fill="#F9C0B2"/>
<path d="M114.608 222.927C114.52 222.605 114.359 222.209 114.315 222.107C113.7 220.1 109.569 219.704 109.569 219.704L105.644 219.807C105.424 219.865 103.871 220.818 103.725 220.993L101.821 223.557C101.63 223.791 101.161 225.886 101.191 226.179L102.377 230.412C102.392 230.544 102.421 230.676 102.48 230.793L103.007 232.126C103.051 232.228 103.197 232.77 103.271 232.858L104.003 233.869L106.273 233.766C106.991 233.737 107.621 233.312 107.914 232.668C108.295 231.847 108.69 230.749 108.47 230.163C108.002 228.976 107.753 227.834 108.353 227.453C109.027 227.028 109.203 227.951 109.54 228.024C109.818 228.083 109.921 226.516 109.906 226.325C109.891 226.179 109.921 226.032 109.95 225.886C110.272 225.666 109.994 225.52 110.829 225.695C112.088 225.944 112.132 226.325 113.304 224.26C113.626 223.703 113.568 222.971 113.421 222.693C113.582 222.78 113.773 222.868 113.787 222.898C114.066 223.425 113.89 224.099 113.963 224.084C114.271 224.011 114.696 223.264 114.608 222.927Z" fill="#2B478B"/>
<path opacity="0.2" d="M110.535 236.037L110.784 235.656L112.542 235.026C113.025 234.894 113.406 234.528 113.553 234.059L114.051 233.092L114.065 233.576L114.094 234.938C114.109 235.421 113.743 235.831 113.26 235.861L110.535 236.037Z" fill="#005486"/>
<path d="M127.481 261.466L129.869 260.455L132.71 260.807L135.933 263.209L135.142 263.56L134.658 263.224L132.139 264.498L131.846 263.575L131.524 263.443L129.385 264.161L127.745 264.337L124.83 265.406V262.286L127.481 261.466Z" fill="#F9C0B2"/>
<path d="M109.729 273.038L110.169 272.877C111.619 272.364 112.41 270.797 111.956 269.318L102.45 242.981C101.732 240.637 99.2125 239.363 96.8982 240.183C94.584 241.018 93.4415 243.61 94.3789 245.866L106.082 271.427C106.683 272.848 108.279 273.551 109.729 273.038Z" fill="#7ACFD1"/>
<path d="M127.013 265.699L126.236 261.597C126.236 261.597 111.765 265.508 107.151 268.042C105.745 268.804 105.203 270.532 106.199 271.777L106.536 272.188C107.532 273.433 108.879 273.462 110.608 272.686L127.013 265.699Z" fill="#F58D8A"/>
<path d="M91.3163 285.444H116.305L117.125 283.056L119.395 255.972L119.366 249.688C118.97 243.053 117.081 240.123 113.375 239.918L101.233 239.23C94.0554 239.083 92.5613 244.811 92.3709 248.517L91.9608 257.657L90.291 281.723L91.3163 285.444Z" fill="#F2706D"/>
<path d="M144.31 261.144H146.317L151.897 264.161L151.502 264.718L148.983 264.6L145.863 265.582L143.373 265.304L139.682 266.549L138.92 263.619L144.31 261.144Z" fill="#F9C0B2"/>
<path d="M121.214 275.177L121.682 275.133C123.22 274.972 124.363 273.653 124.275 272.115L118.548 244.094C118.431 241.648 116.277 239.787 113.831 240.036L113.319 240.124C110.873 240.373 109.657 242.526 110.023 244.958L118.079 272.745C118.284 274.269 119.676 275.338 121.214 275.177Z" fill="#F2706D"/>
<path d="M140.869 267.09L140.21 262.594L119.177 270.049C117.932 271.045 117.726 272.862 118.737 274.107C119.733 275.352 121.125 275.528 122.838 274.737L140.869 267.09Z" fill="#F2706D"/>
<path d="M103.281 239.362L103.955 237.955L110.107 238.351L110.795 239.772L103.281 239.362Z" fill="#F2706D"/>
<path d="M102.786 336.166H105.408V309.272H102.786V336.166Z" fill="#A0795F"/>
<path d="M117.537 338.793V336.171H90.6447V338.793H117.537Z" fill="#D1A586"/>
<path d="M95.9623 341.15C95.9623 339.304 94.4537 337.795 92.6081 337.795C90.7626 337.795 89.2539 339.304 89.2539 341.15C89.2539 342.995 90.7626 344.504 92.6081 344.504C94.4537 344.519 95.9623 343.01 95.9623 341.15Z" fill="#D1A586"/>
<path d="M107.548 341.15C107.548 339.304 106.04 337.795 104.194 337.795C102.349 337.795 100.84 339.304 100.84 341.15C100.84 342.995 102.349 344.504 104.194 344.504C106.054 344.519 107.548 343.01 107.548 341.15Z" fill="#D1A586"/>
<path d="M119.148 341.15C119.148 339.304 117.639 337.795 115.794 337.795C113.948 337.795 112.439 339.304 112.439 341.15C112.439 342.995 113.948 344.504 115.794 344.504C117.639 344.519 119.148 343.01 119.148 341.15Z" fill="#D1A586"/>
<path d="M87.3912 304.779H121.021C123.877 304.779 126.192 302.904 126.192 300.605C126.192 298.29 123.877 296.43 121.021 296.43H87.3912C84.535 296.43 82.2207 298.305 82.2207 300.605C82.2207 302.904 84.535 304.779 87.3912 304.779Z" fill="#D1A586"/>
<path d="M117.724 304.779C117.724 304.779 105.069 316.073 90.6562 304.779H117.724Z" fill="#A0795F"/>
<path d="M93.0782 283.598H108.619C114.434 283.598 119.15 278.882 119.15 273.066V263.457C119.15 257.642 114.434 252.926 108.619 252.926H93.0782C87.2633 252.926 82.5469 257.642 82.5469 263.457V273.066C82.5469 278.896 87.2633 283.598 93.0782 283.598Z" fill="#D1A586"/>
<path d="M100.043 307.972H101.654V271.88H100.043V307.972Z" fill="#A0795F"/>
<path d="M155.411 215.983H146.242V223.058H155.411V215.983Z" fill="#E8F6F8"/>
<path d="M155.411 224.816H146.242V228.346H155.411V224.816Z" fill="#E8F6F8"/>
<path d="M155.411 230.104H146.242V235.948H155.411V230.104Z" fill="#E8F6F8"/>
<path d="M155.411 237.179H146.242V244.254H155.411V237.179Z" fill="#E8F6F8"/>
<path d="M285.275 348.035L285.451 348.05V348.035H285.275Z" fill="#2A2A3B"/>
<path d="M289.962 347.829H289.815L289.786 348.591H286.109L286.212 347.58H286.329V347.566L286.549 343.743H290.357L290.328 344.05L291.983 345.618L297.783 347.214C297.783 347.214 298.223 347.405 298.208 347.639L298.193 348.078L298.179 348.342C298.179 348.342 298.105 348.459 297.651 348.591H291.031L290.65 348.078L290.269 347.844L289.962 347.829Z" fill="#2B295E"/>
<path d="M266.905 347.83H266.758L266.729 348.592H263.053L263.155 347.581H263.272V347.566L263.756 343.743H267.564L267.535 344.051L268.941 345.618L274.741 347.215C274.741 347.215 275.181 347.405 275.166 347.64L275.151 348.079L275.137 348.343C275.137 348.343 275.063 348.46 274.609 348.592H267.989L267.608 348.079L267.227 347.845L266.905 347.83Z" fill="#2B295E"/>
<path d="M268.237 344.051H263.213L266.552 305.541L269.16 262.198H281.61L274.198 305.541L268.237 344.051Z" fill="#0083C7"/>
<path d="M291.101 344.168H286.077L282.533 304.897L276.381 262.198H289.344L289.402 266.754L290.179 304.897L291.101 344.168Z" fill="#0083C7"/>
<path d="M271.681 211.516L281.759 208.982L281.056 205.247L281.964 203.313L279.444 201.189L277.145 194.773L267.346 199.622L271.681 211.516Z" fill="#F9C0B2"/>
<path d="M273.994 217.082L276.689 216.745C277.582 216.628 278.315 216.247 278.198 215.368L277.099 206.902L271.182 207.634L272.178 215.676C272.295 216.569 273.1 217.199 273.994 217.082Z" fill="#F9C0B2"/>
<path d="M271.185 209.289C271.185 209.289 271.141 208.469 271.419 207.927C271.698 207.385 272.488 204.47 271.624 204.06C270.526 203.533 270.892 201.921 271.551 201.746C271.873 201.658 272.445 202.273 272.781 202.288C273.06 202.302 273.192 200.749 273.104 200.603C272.928 200.31 272.957 199.856 272.855 199.534C272.752 199.182 273.162 198.084 273.499 197.966C274.012 197.776 277.747 198.142 278.216 197.878C278.509 197.717 278.406 197.278 278.333 196.956C278.23 196.458 277.395 195.169 277.395 195.169C277.293 194.978 277.132 194.817 276.941 194.715L275.579 194.026C275.301 193.88 274.979 193.865 274.686 193.967L273.66 195.535C273.631 195.549 273.616 195.549 273.587 195.564L269.398 196.677C269.193 196.765 269.032 196.912 268.915 197.102L266.6 200.266C266.454 200.515 266.41 200.808 266.468 201.086L267.757 205.554C267.787 205.686 267.845 205.803 267.919 205.906L269.193 207.546C269.251 207.634 269.325 207.707 269.413 207.78L270.848 209.421L271.185 209.289Z" fill="#2B478B"/>
<path d="M306.163 196.473L305.914 196.736L305.738 196.502L306.676 195.301L306.544 194.422L304.405 196.443L304.376 198.875L303.189 200.72L305.489 202.727L306.646 200.794L307.071 200.413L306.163 196.473Z" fill="#F9C0B2"/>
<path d="M277.379 219.074L277.306 218.679C276.94 217.522 278.654 214.504 279.855 214.299C286.666 213.171 294.575 212.615 294.575 212.615L303.964 199.197L306.425 201.922L299.16 215.544L297.241 217.097L282.008 221.857C280.88 222.37 278.112 221.403 277.379 219.074Z" fill="#364766"/>
<path d="M269.222 262.579H289.435L290.152 259.268L287.399 225.988L286.681 219.924C286.256 216.379 283.034 213.845 279.489 214.27L266.409 215.603C262.865 216.028 262.235 222.722 262.645 226.267L265.355 240.563L267.933 259.298L269.222 262.579Z" fill="#364766"/>
<path d="M276.108 218.43L276.548 218.621L278.013 218.445L278.349 218.093L278.13 216.262L275.889 216.541L276.108 218.43Z" fill="white"/>
<path d="M277.994 218.445L278.844 221.462L284.16 257.042L282.022 258.785L279.532 257.598L276.383 221.565L276.544 218.62L277.994 218.445Z" fill="#F99746"/>
<path d="M278.873 213.889L277.833 212.747L277.789 216.262L280.294 218.342L278.873 213.889Z" fill="#5E6C85"/>
<path d="M270.424 215.208L271.889 213.333L276.561 216.468L273.47 219.676L270.424 215.208Z" fill="#5E6C85"/>
<path opacity="0.8" d="M269.896 222.692L281.497 217.976L286.917 215.544C286.917 215.544 289.407 213.742 289.626 213.054L289.436 213.113L283.929 213.713L273.075 219.294L270.644 220.978L269.896 222.692Z" fill="#1B2433"/>
<path d="M308.737 189.119L308.444 185.867L305.836 186.761L303.947 187.025L303.581 186.688L303.698 186.292L303.434 185.179L302.292 186.805L302.057 189.134L300.52 190.994L302.687 193.294L304.738 190.994L306.393 190.511L308.737 189.119Z" fill="#F9C0B2"/>
<path d="M264.46 220.788L264.211 220.261C263.683 219.162 263.742 216.613 266.071 215.72C271.959 213.42 285.317 208.015 285.317 208.015L301.298 189.822L303.919 192.459L290.21 211.574L288.144 213.376L270.509 222.355C268.502 223.732 265.514 222.971 264.46 220.788Z" fill="#364766"/>
<path d="M682.024 221.11C682.024 221.11 676.897 240.548 675.813 243.829C674.729 247.096 673.938 248.136 673.938 248.136L673.836 245.719L678.128 232.829L682.024 221.11Z" fill="#F99746"/>
</svg>
