<svg width="32" height="17" viewBox="0 0 32 17" fill="none" xmlns="http://www.w3.org/2000/svg">
<path d="M16.0009 15.9999C15.4751 16.001 14.9657 15.8179 14.5609 15.4824L1.06086 4.23245C0.601377 3.85054 0.312422 3.30174 0.257568 2.70678C0.202713 2.11182 0.386453 1.51944 0.768364 1.05995C1.15028 0.600461 1.69908 0.311507 2.29404 0.256652C2.889 0.201798 3.48138 0.385536 3.94086 0.767448L16.0009 10.8474L28.0609 1.12745C28.291 0.940551 28.5558 0.80098 28.8401 0.716758C29.1244 0.632537 29.4225 0.605326 29.7173 0.636689C30.0121 0.668052 30.2978 0.75737 30.558 0.899511C30.8182 1.04165 31.0477 1.23381 31.2334 1.46495C31.4394 1.6963 31.5955 1.96771 31.6918 2.26217C31.788 2.55664 31.8225 2.86781 31.7929 3.17621C31.7633 3.4846 31.6704 3.78356 31.5199 4.05436C31.3694 4.32517 31.1646 4.56197 30.9184 4.74995L17.4184 15.6174C17.0019 15.8999 16.5028 16.0345 16.0009 15.9999Z" fill="#547594"/>
</svg>
