<svg width="20" height="20" viewBox="0 0 20 20" fill="none" xmlns="http://www.w3.org/2000/svg">
<path d="M19.8433 10.1871C19.8433 9.3677 19.7766 8.76977 19.6323 8.14969H10.248V11.848H15.7564C15.6454 12.7671 15.0457 14.1512 13.713 15.0813L13.6943 15.2051L16.6614 17.4969L16.867 17.5174C18.7549 15.7789 19.8433 13.2211 19.8433 10.1871Z" fill="#4285F4"/>
<path d="M10.2473 19.9313C12.9459 19.9313 15.2114 19.0454 16.8662 17.5174L13.7122 15.0813C12.8682 15.6682 11.7354 16.0779 10.2473 16.0779C7.60418 16.0779 5.36086 14.3395 4.56118 11.9366L4.44396 11.9466L1.35871 14.3273L1.31836 14.4391C2.96197 17.6945 6.33809 19.9313 10.2473 19.9313Z" fill="#34A853"/>
<path d="M4.56284 11.9366C4.35184 11.3166 4.22972 10.6521 4.22972 9.96565C4.22972 9.27908 4.35184 8.61473 4.55174 7.99466L4.54615 7.8626L1.42223 5.44366L1.32002 5.49214C0.642607 6.84305 0.253906 8.36008 0.253906 9.96565C0.253906 11.5712 0.642607 13.0882 1.32002 14.4391L4.56284 11.9366Z" fill="#FBBC05"/>
<path d="M10.2473 3.85336C12.1241 3.85336 13.3901 4.66168 14.112 5.33718L16.9328 2.59107C15.2004 0.985496 12.9459 0 10.2473 0C6.33809 0 2.96197 2.23672 1.31836 5.49214L4.55008 7.99466C5.36086 5.59183 7.60418 3.85336 10.2473 3.85336Z" fill="#EB4335"/>
</svg>
