<svg width="720" height="449" viewBox="0 0 720 449" fill="none" xmlns="http://www.w3.org/2000/svg">
<path d="M81.1809 34.5995C189.622 -5.61073 299.836 29.9382 374.585 107.367C449.335 184.797 606.21 53.9253 689.408 131.229C746.187 183.984 720.18 319.619 642.326 378.368C536.506 458.219 142.275 460.616 76.8654 433.215C-34.9089 386.392 76.1525 299.682 23.9772 216.562C-37.5756 118.501 33.2602 52.3688 81.1809 34.5995Z" fill="#E7F3FE"/>
<path d="M691.584 410.131C637.301 407.48 452.645 411.971 396.484 413.721C340.323 415.471 275.134 411.411 241.273 405.441C207.411 399.471 11.6734 405.949 20.5568 422.002C29.4402 438.055 107.765 429.184 196.591 435.635C285.414 442.088 485.183 434.828 530.244 435.635C575.304 436.442 616.626 434.022 674.696 430.795C732.766 427.569 723.048 411.667 691.584 410.131Z" fill="#CCE2FF"/>
<path opacity="0.5" d="M573.858 56.7695C574.073 54.8538 574.187 52.9065 574.187 50.934C574.187 49.8921 574.153 48.8607 574.092 47.8335L564.437 44.714C563.842 40.6493 562.674 36.7694 561.019 33.1606L567.421 25.2916C565.94 22.6889 564.243 20.227 562.35 17.9289L552.695 21.0756C549.881 18.2041 546.666 15.7274 543.137 13.736L543.686 3.60258C540.992 2.37791 538.174 1.37591 535.257 0.619685L529.294 8.83735C526.97 8.44663 524.583 8.24077 522.148 8.24077C520.489 8.24077 518.85 8.3395 517.239 8.52226L511.719 0C508.762 0.60078 505.895 1.45154 503.143 2.53126L503.155 12.6794C499.519 14.4838 496.179 16.7882 493.22 19.5044L483.748 15.8535C481.735 18.0507 479.908 20.4202 478.293 22.9389L484.27 31.1355C482.419 34.6604 481.046 38.473 480.24 42.4916L470.436 45.0984C470.221 47.0142 470.107 48.9615 470.107 50.934C470.107 51.9759 470.141 53.0094 470.202 54.0345L479.857 57.154C480.452 61.2187 481.62 65.0985 483.275 68.7074L476.873 76.5764C478.354 79.1791 480.051 81.641 481.944 83.9391L491.599 80.7924C494.413 83.6639 497.628 86.1406 501.157 88.132L500.608 98.2654C503.302 99.4901 506.12 100.494 509.037 101.248L515 93.0306C517.324 93.4213 519.711 93.6272 522.146 93.6272C523.805 93.6272 525.444 93.5285 527.052 93.3457L532.573 101.868C535.53 101.267 538.396 100.416 541.149 99.3367L541.137 89.1886C544.773 87.3841 548.115 85.0797 551.072 82.3636L560.544 86.0145C562.557 83.8173 564.384 81.4478 565.999 78.9291L560.022 70.7324C561.873 67.2076 563.246 63.3949 564.052 59.3764L573.858 56.7695ZM522.148 71.3206C510.876 71.3206 501.738 62.1934 501.738 50.934C501.738 39.6746 510.876 30.5474 522.148 30.5474C533.421 30.5474 542.558 39.6746 542.558 50.934C542.558 62.1934 533.421 71.3206 522.148 71.3206Z" fill="#9EC8FF"/>
<path d="M549.987 74.4737C549.75 74.4737 549.512 74.3938 549.316 74.23C548.87 73.8582 548.809 73.1965 549.18 72.7511C554.267 66.6425 557.068 58.8933 557.068 50.934C557.068 47.1213 556.444 43.3801 555.213 39.809C555.024 39.2608 555.316 38.6621 555.865 38.4731C556.414 38.284 557.014 38.576 557.203 39.1242C558.509 42.9138 559.173 46.8882 559.173 50.9319C559.173 59.3806 556.2 67.6067 550.799 74.0934C550.589 74.3434 550.288 74.4737 549.987 74.4737Z" fill="white"/>
<path d="M547.032 26.3566C546.773 26.3566 546.515 26.262 546.311 26.0709C542.893 22.8569 538.933 20.4202 534.542 18.8279C533.995 18.6304 533.713 18.0276 533.911 17.4814C534.108 16.9352 534.712 16.6538 535.259 16.8533C539.919 18.5422 544.123 21.1281 547.751 24.5416C548.174 24.9386 548.195 25.6045 547.795 26.0268C547.591 26.2452 547.312 26.3566 547.032 26.3566Z" fill="white"/>
<path d="M514.232 17.8596C513.761 17.8596 513.334 17.5424 513.214 17.0656C513.071 16.5026 513.414 15.9312 513.975 15.7905C516.871 15.0595 519.868 14.6898 522.884 14.6898C523.465 14.6898 523.936 15.1603 523.936 15.7401C523.936 16.3198 523.465 16.7904 522.884 16.7904C520.043 16.7904 517.218 17.1391 514.491 17.8281C514.402 17.8491 514.316 17.8596 514.232 17.8596Z" fill="white"/>
<path opacity="0.5" d="M490.674 0.149309H165.443V195.273H490.674V0.149309Z" fill="#9EC8FF"/>
<path d="M487.268 4.91125H181.287V184.038H487.268V4.91125Z" fill="white"/>
<path d="M442.205 97.484C456.785 83.6198 481.707 83.9349 481.181 105.046C480.655 126.158 482.401 128.143 488.401 139.217C509.221 177.644 463.585 175.384 444.552 176.644C425.519 177.905 427.096 142.089 430.461 122.238C433.826 102.387 437.938 101.542 442.205 97.484Z" fill="#303C60"/>
<path d="M449.002 218.531C444.327 257.743 435.833 286.732 434.886 305.32C433.94 323.911 430.154 397.105 430.154 397.105C430.154 397.105 440.565 396.379 441.511 394.803C442.457 393.228 461.07 351.952 460.123 326.432C459.177 300.911 478.712 262.106 478.712 262.106L474.003 224.032L449.002 218.531Z" fill="#4476BD"/>
<path d="M453.491 235.6L446.181 238.657C444.194 251.09 441.99 262.27 440.053 272.187C451.687 279.701 457.698 304.73 460.272 320.033C461.584 302.911 469.673 282.22 474.69 270.778L453.491 235.6Z" fill="#3E6BAB"/>
<path d="M487.25 214.577C487.25 214.577 503.006 234.653 502.512 257.428C501.759 292.099 497.974 301.997 504.561 338.351C507.133 352.549 498.882 398.996 498.882 398.996C498.882 398.996 491.835 399.548 488.049 397.666C488.365 394.253 483.494 338.739 474.009 313.219C469.416 300.861 462.96 266.251 459.49 246.402C456.019 226.551 455.389 222.457 456.65 222.457C457.912 222.457 487.25 214.577 487.25 214.577Z" fill="#4476BD"/>
<path d="M397.481 158.822C397.481 158.822 398.181 148.435 397.06 145.225C395.939 142.017 386.265 139.215 386.265 139.215C386.265 139.215 385.845 154.06 386.827 155.879C387.809 157.699 393.557 162.881 393.557 162.881L397.481 158.822Z" fill="#F09959"/>
<path d="M451.876 151.254C429.724 175.069 422.496 185.089 420.813 185.089C415.555 175.819 398.092 156.213 398.092 156.213L390.645 160.994C390.645 160.994 407.852 205.9 418.788 206.364C429.724 206.828 451.951 190.878 452.235 189.046C452.519 187.215 451.876 151.254 451.876 151.254Z" fill="#A2DFF2"/>
<path d="M428.773 204.036C439.608 199.629 452.025 190.414 452.235 189.048C452.517 187.217 451.876 151.256 451.876 151.256C447.047 156.447 442.83 161.051 439.173 165.078C435.205 179.837 435.465 195.909 428.773 204.036Z" fill="#96CFE0"/>
<path d="M474.381 135.577C474.381 135.577 495.578 146.189 500.205 164.975C504.831 183.761 491.14 206.969 489.458 219.354C487.775 231.74 449.081 233.918 449.081 220.661C449.081 207.952 439.386 180.971 439.932 174.1C441.215 157.976 464.814 138.224 464.814 138.224L474.381 135.577Z" fill="#A2DFF2"/>
<path d="M468.222 111.241L477.322 139.27C477.322 139.27 467.606 146.758 450.977 164.776C451.622 152.787 461.679 139.717 461.679 139.717L454.796 113.249L468.222 111.241Z" fill="#F09959"/>
<path d="M472.465 124.313L468.221 111.239L454.793 113.247L461.676 139.715C461.676 139.715 461.005 140.784 460.013 142.467C466.499 137.661 470.478 131.678 472.465 124.313Z" fill="#E38540"/>
<path d="M463.208 117.566C460.753 126.485 451.249 131.397 444.494 129.542C437.741 127.687 436.297 119.772 438.751 110.852C441.205 101.933 448.669 96.2047 455.424 98.0596C462.177 99.9124 465.662 108.647 463.208 117.566Z" fill="#F09959"/>
<path d="M447.39 208.093C450.337 226.744 439.396 266.646 439.396 266.646C439.396 266.646 445.92 268.127 465.479 266.236C485.037 264.346 493.66 244.847 496.604 244.303C499.549 243.759 501.061 262.449 502.514 263.925C503.965 265.402 504.188 240.325 500.39 230.467C493.66 212.991 494.979 205.578 497.494 194.989C501.965 176.161 447.39 208.093 447.39 208.093Z" fill="#A2DFF2"/>
<path d="M430.629 387.926C432.389 395.074 428.913 400.746 424.259 404.878C420.473 408.239 408.837 409.667 409.396 411.348C409.958 413.028 423.697 413.562 428.324 412.86C432.951 412.161 434.213 409.919 439.971 409.921C443.746 409.923 444.446 406.856 442.764 403.065C441.081 399.273 440.493 397.179 442.013 393.78C443.536 390.383 430.629 387.926 430.629 387.926Z" fill="#4476BD"/>
<path d="M499.29 387.926C499.01 395.347 498.146 400.878 499.969 404.317C507.008 410.199 512.859 416.879 510.625 417.341C499.969 419.538 495.904 413.16 489.874 411.346C482.476 409.121 490.575 399.834 487.677 387.923C486.066 381.302 498.848 382.888 498.848 382.888L499.29 387.926Z" fill="#4476BD"/>
<path d="M501.98 236.55C501.555 234.222 501.03 232.128 500.39 230.467C493.66 212.991 494.979 205.578 497.494 194.989C497.692 194.155 497.772 193.422 497.749 192.779C498.317 190.891 498.844 188.977 499.309 187.053L497.025 166.458L480.556 146.922C468.213 164.988 476.543 187.464 474.691 199.858C472.84 212.252 452.158 228.055 452.158 228.055L452.831 232.452C453.754 238.485 459.353 242.673 465.403 241.835C473.927 240.655 485.109 238.279 490.085 233.668C494.899 229.202 499.164 232.655 501.98 236.55Z" fill="#96CFE0"/>
<path d="M456.993 227.343C456.993 227.343 447.864 229.895 446.773 230.464C445.681 231.034 445.077 234.05 445.077 234.05C445.077 234.05 439.851 238.583 441.853 240.188C443.856 241.793 447.431 245.858 452.158 243.967C455.061 242.808 457.309 232.16 459.21 232.073C461.113 231.987 456.993 227.343 456.993 227.343Z" fill="#F09959"/>
<path d="M482.852 144.538C492.623 144.815 501.483 162.394 504.57 177.644C507.658 192.895 510.907 214.575 510.907 214.575C510.907 214.575 494.713 227.341 478.713 231.072C464.755 234.325 457.63 235.598 457.63 235.598L454.799 227.639L488.196 208.047C488.196 208.047 475.916 184.94 474.694 167.504C473.472 150.071 475.426 144.328 482.852 144.538Z" fill="#A2DFF2"/>
<path d="M388.867 135.74L364.508 140.621L367.611 156.073L391.97 151.192L388.867 135.74Z" fill="#F5DC95"/>
<path d="M391.622 157.562C391.958 151.172 388.789 142.454 386.965 142.467C385.142 142.48 387.527 148.179 386.545 151.96C386.013 154.01 391.622 157.562 391.622 157.562Z" fill="#F09959"/>
<path d="M440.541 100.845C441.082 118.35 461.553 117.007 467.16 115.93C472.769 114.85 460.333 152.861 471.015 155.054C478.859 156.665 477.092 144.408 485.806 145.227C489.66 145.591 493.536 151.542 493.536 151.542C493.536 151.542 492.956 147.874 490.012 145.227C487.067 142.578 479.349 126.334 477.32 114.711C475.29 103.089 461.551 95.5704 457.486 95.3372C453.42 95.104 443.464 99.7254 443.464 99.7254L440.541 100.845Z" fill="#303C60"/>
<path d="M470.835 159.016C470.557 159.016 470.277 158.986 469.991 158.925C466.572 158.199 464.914 154.609 464.774 147.63C464.654 141.648 465.642 133.97 466.692 125.843C467.114 122.559 467.554 119.163 467.913 115.875C467.945 115.594 468.195 115.39 468.479 115.421C468.761 115.453 468.963 115.705 468.933 115.986C468.572 119.284 468.132 122.685 467.709 125.975C465.682 141.702 463.766 156.556 470.206 157.925C470.406 157.967 470.605 157.988 470.805 157.988C474.505 157.988 477.836 150.788 479.779 143.774C479.855 143.5 480.137 143.341 480.41 143.416C480.683 143.492 480.843 143.774 480.767 144.047C479.48 148.674 476.033 159.016 470.835 159.016Z" fill="#303C60"/>
<path d="M469.465 163.085C468.3 163.085 467.284 162.633 466.437 161.74C459.459 154.373 466.359 117.404 466.655 115.835C466.708 115.558 466.977 115.375 467.255 115.428C467.532 115.48 467.715 115.747 467.663 116.026C467.591 116.406 460.561 154.048 467.181 161.039C467.951 161.852 468.862 162.175 469.966 162.03C473.589 161.551 475.682 156.642 477.526 152.308C479.316 148.105 481.001 144.137 484 144.24C484.281 144.25 484.504 144.488 484.494 144.769C484.483 145.053 484.246 145.28 483.964 145.263C483.938 145.263 483.913 145.261 483.89 145.261C481.642 145.261 480.1 148.88 478.468 152.707C476.515 157.293 474.302 162.488 470.098 163.043C469.886 163.07 469.673 163.085 469.465 163.085Z" fill="#303C60"/>
<path d="M467.92 119.293C466.478 121.15 464.217 121.809 462.871 120.767C461.525 119.723 461.603 117.373 463.045 115.516C464.488 113.659 466.749 112.999 468.095 114.041C469.441 115.083 469.363 117.436 467.92 119.293Z" fill="#F09959"/>
<path d="M308.871 184.114C313.868 194.096 309.731 205.591 299.903 209.651C290.011 213.739 279.192 211.418 274.195 201.436C269.198 191.454 272.91 179.484 282.486 174.701C292.059 169.92 303.872 174.134 308.871 184.114Z" fill="#303C60"/>
<path d="M281.932 210.851C280.828 210.851 278.655 210.462 275.89 208.011C273.623 206 271.993 202.919 271.305 199.335C270.436 194.81 271.002 189.607 272.988 183.87C273.08 183.603 273.37 183.461 273.639 183.553C273.907 183.645 274.05 183.937 273.957 184.204C272.031 189.769 271.478 194.794 272.312 199.142C272.958 202.507 274.47 205.385 276.571 207.246C280.077 210.353 282.426 209.788 282.451 209.782C282.723 209.71 283.004 209.872 283.078 210.141C283.152 210.412 282.996 210.691 282.727 210.767C282.691 210.777 282.414 210.851 281.932 210.851Z" fill="#303C60"/>
<path d="M297.214 222.957C302.903 224.23 310.083 240.016 313.599 250.13C317.145 260.331 323.158 272.985 327.095 276.918C331.032 280.85 356.898 289.965 356.898 289.965C356.898 289.965 292.987 290.089 294.295 289.963C295.605 289.834 297.214 222.957 297.214 222.957Z" fill="#A8CEFF"/>
<path d="M331.143 284.892C327.644 284.392 315.023 286.016 320.397 283.768C325.77 281.52 325.021 278.651 325.021 278.651C325.021 278.651 317.398 285.016 316.024 279.449C314.838 274.649 314.386 257.703 309.888 240.718C306.171 232.296 301.307 223.87 297.217 222.955C297.217 222.955 297.074 228.935 296.836 237.321C298.405 255.878 301.069 283.14 301.745 290.011C310.216 290.024 324.393 290.011 336.254 289.996L344.143 289.62C344.14 289.62 334.643 285.392 331.143 284.892Z" fill="#93BBF0"/>
<path d="M276.302 219.459C276.302 219.459 258.209 229.557 253.992 231.704C249.775 233.851 265.807 296.88 269.374 299.581C272.939 302.283 304.331 300.046 307.907 296.643C311.482 293.24 305.164 282.795 308.258 261.883C311.352 240.972 298.823 222.917 297.215 222.957C295.606 222.997 285.103 219.459 285.103 219.459H276.302Z" fill="#A8CEFF"/>
<path d="M269.376 299.581C272.94 302.283 295.405 302.344 304.966 299.371C306.045 299.035 310.945 297.086 311.061 295.252C309.906 295.036 305.326 295.586 303.464 295.157C296.997 293.672 293.437 285.671 293.437 285.671C293.437 285.671 289.876 284.392 281.91 281.022C273.944 277.653 277.224 267.448 277.037 262.955C276.85 258.462 269.165 243.763 254.732 232.624L253.407 233.216C252.374 243.459 266.076 297.082 269.376 299.581Z" fill="#93BBF0"/>
<path d="M393.673 250.131H350.108L330.268 292.305H378.254L396.214 254.128C397.091 252.267 395.732 250.131 393.673 250.131Z" fill="#75A1DE"/>
<path d="M332.864 292.901H306.649C305.024 292.901 303.705 291.584 303.705 289.96C303.705 288.337 305.024 287.02 306.649 287.02H330.984L347.439 251.649C348.124 250.177 349.874 249.538 351.35 250.221C352.825 250.906 353.464 252.653 352.78 254.128L335.535 291.2C335.051 292.238 334.01 292.901 332.864 292.901Z" fill="#3E6BAB"/>
<path d="M287.404 283.894C298.775 286.015 301.573 288.624 307.77 289.622C314.797 290.754 313.962 292.305 308.742 292.305C303.522 292.305 290.407 292.506 285.907 291.509C281.406 290.509 287.404 283.894 287.404 283.894Z" fill="#F09959"/>
<path d="M252.571 232.886C243.856 260.72 231.5 292.303 233.469 292.303C235.437 292.303 285.482 294.323 287.451 292.641C289.419 290.958 288.858 284.499 288.576 283.656C288.294 282.814 260.123 277.821 260.123 277.821C260.123 277.821 263.833 270.599 265.238 256.487C266.645 242.375 254.224 227.607 252.571 232.886Z" fill="#A8CEFF"/>
<path d="M282.93 195.272L275.91 220.898C275.91 220.898 287.774 239.394 291.035 237.751C294.297 236.109 289.212 222.717 289.212 220.898C289.212 219.079 294.297 200.303 294.297 200.303L282.93 195.272Z" fill="#F09959"/>
<path d="M289.453 222.205C289.302 221.598 289.209 221.144 289.209 220.898C289.209 219.079 294.294 200.303 294.294 200.303L282.929 195.272L280.605 203.753C282.635 212.512 286.296 218.346 289.453 222.205Z" fill="#E38540"/>
<path d="M309.2 194.848C310.538 202.278 309.656 212.149 303.051 214.657C296.445 217.167 288.487 212.365 285.277 203.935C282.068 195.504 284.821 186.635 291.427 184.127C298.033 181.616 307.602 185.971 309.2 194.848Z" fill="#F09959"/>
<path d="M286.84 199.03C287.766 201.629 286.962 204.286 285.044 204.969C283.126 205.652 280.821 204.097 279.894 201.501C278.969 198.902 279.772 196.245 281.69 195.562C283.608 194.88 285.915 196.432 286.84 199.03Z" fill="#F09959"/>
<path d="M309.277 185.513C307.029 202.95 285.817 200.705 285.817 200.705C285.817 200.705 281.443 194.962 279.474 197.974C277.506 200.986 282.204 180.295 294.375 179.644C298.375 179.427 309.277 185.513 309.277 185.513Z" fill="#303C60"/>
<path d="M276.229 188.905C282.573 188.905 287.716 184.085 287.716 178.14C287.716 172.194 282.573 167.374 276.229 167.374C269.885 167.374 264.742 172.194 264.742 178.14C264.742 184.085 269.885 188.905 276.229 188.905Z" fill="#303C60"/>
<path d="M253.348 419.006H255.974L272.938 340.504H267.159L253.348 419.006Z" fill="#2E5B9A"/>
<path d="M335.021 419.006H332.394L312.652 337.729H318.432L335.021 419.006Z" fill="#2E5B9A"/>
<path d="M283.321 343.445C272.798 343.445 266.131 341.556 261.876 337.418C256.602 332.286 255.51 324.337 255.496 313.981C255.483 305.831 255.289 300.522 254.846 296.231C254.68 294.615 255.855 293.17 257.472 293.004C259.09 292.838 260.537 294.013 260.703 295.628C261.165 300.125 261.369 305.612 261.382 313.971C261.399 324.467 262.732 330.038 265.984 333.204C269.319 336.449 275.353 337.79 285.538 337.535C295.374 337.294 302.144 335.918 307.585 334.813C314.739 333.362 319.911 332.311 326.041 335.237C327.509 335.937 328.13 337.693 327.429 339.159C326.729 340.626 324.971 341.245 323.503 340.546C319.152 338.468 315.461 339.218 308.758 340.579C303.09 341.73 296.039 343.161 285.683 343.417C284.878 343.434 284.089 343.445 283.321 343.445Z" fill="#2E5B9A"/>
<path d="M259.412 292.641L275.52 293.311L271.232 337.733C271.232 337.733 259.225 330.078 259.412 321.84C259.602 313.601 259.412 292.641 259.412 292.641Z" fill="#2E5B9A"/>
<path d="M338.931 296.779C352.553 294.714 357.18 295.365 365.516 310.862C373.851 326.356 384.949 354.257 391.329 357.859C400.938 363.285 404.122 376.59 408.068 375.992C412.013 375.393 414.552 377.137 410.259 380.699C405.967 384.264 399.033 387.297 396.663 386.665C394.293 386.033 392.455 375.801 386.261 372.479C380.07 369.156 381.929 366.428 382.337 363.489C382.743 360.55 364.263 347.022 350.33 330.196C341.817 319.915 337.434 313.128 336.784 306.978C336.132 300.827 338.931 296.779 338.931 296.779Z" fill="#F09959"/>
<path d="M372.696 352.967C369.533 344.951 366.359 331.721 363.377 319.592C359.135 302.344 354.689 298.247 351.873 296.407C348.468 295.554 344.432 295.945 338.931 296.779C338.931 296.779 336.134 300.827 336.783 306.978C337.433 313.128 341.816 319.913 350.329 330.196C357.663 339.054 366.258 346.999 372.696 352.967Z" fill="#E38540"/>
<path d="M343.076 310.416C343.076 310.416 339.453 337.729 336.077 340.504C333.663 342.489 331.953 342.621 330.266 334.475C328.58 326.329 332.891 295.926 332.891 295.926L343.076 310.416Z" fill="#2E5B9A"/>
<path d="M340.188 325.196L306.648 330.826L325.585 303.705L339.995 300.775L348.636 302.76L340.188 325.196Z" fill="#F09959"/>
<path d="M382.332 363.489C381.245 367.867 381.375 371.102 383.266 372.723C385.155 374.345 392.295 386.392 392.295 386.392L394.518 386.056L389.369 375.032L382.332 363.489Z" fill="#2E5B9A"/>
<path d="M396.66 386.665C399.03 387.297 405.964 384.264 410.256 380.699C414.549 377.135 412.01 375.393 408.065 375.992C407.842 376.025 407.623 376.011 407.404 375.958C405.434 380.355 398.952 383.653 396.862 379.008C394.79 374.406 385.909 365.245 382.332 363.285C382.34 363.357 382.342 363.426 382.334 363.489C381.928 366.428 380.067 369.156 386.258 372.48C392.45 375.801 394.29 386.033 396.66 386.665Z" fill="#2E5B9A"/>
<path d="M270.473 297.874C258.574 319.203 266.702 332.761 281.165 334.141C295.628 335.523 318.459 332.885 331.769 321.837C345.077 310.79 356.003 299.111 354.476 297.367C352.949 295.624 270.473 297.874 270.473 297.874Z" fill="#E38540"/>
<path d="M337.953 313.788C340.391 306.486 343.198 300.884 348.637 300.783C354.355 300.676 357.872 303.648 358.118 312.992C358.408 324.119 358.801 360.968 358.286 377.353C357.897 389.755 361.516 393.727 361.209 406.657C360.98 416.395 371.373 411.476 367.359 416.526C364.597 419.998 356.378 418.864 351.331 418.221C346.833 417.649 353.659 404.184 347.434 400.584C342.092 397.494 341.987 392.48 345.36 388.682C348.734 384.886 345.735 373.652 343.487 365.787C341.236 357.924 337.749 349.417 335.457 330.822C334.803 325.524 336.464 318.248 337.953 313.788Z" fill="#F09959"/>
<path d="M363.803 412.549C362.08 413.074 359.958 413.652 358.108 413.713C354.358 413.837 353.235 409.72 352.984 404.123C352.766 399.237 349.214 391.545 345.571 388.423C345.504 388.512 345.434 388.6 345.363 388.682C341.99 392.478 342.095 397.494 347.437 400.584C353.662 404.184 346.835 417.649 351.334 418.221C356.381 418.861 364.6 419.998 367.361 416.526C369.969 413.242 366.73 412.982 363.803 412.549Z" fill="#2E5B9A"/>
<path d="M346.205 387.291C346.205 387.291 340.737 392.994 341.237 395.366C341.738 397.738 343.423 403.729 343.704 408.348C343.986 412.967 344.236 418.267 344.236 418.267C344.236 418.267 346.205 418.267 346.361 417.708C346.516 417.149 347.61 398.937 347.61 398.937L346.205 387.291Z" fill="#2E5B9A"/>
<path d="M264.741 295.928C264.741 295.928 257.683 325.848 266.6 334.141C275.517 342.434 312.548 334.975 321.269 334.477C327.175 334.141 332.891 341.34 332.891 341.34C332.891 341.34 328.767 324.648 331.579 311.166C334.39 297.687 338.927 296.779 338.927 296.779L332.889 295.93H264.741V295.928Z" fill="#75A1DE"/>
<path d="M263.145 288.106C266.163 294.502 259.895 305.549 262.093 308.732C264.289 311.914 276.863 309.177 285.103 302.554C293.343 295.928 308.939 294.473 308.939 294.473L263.145 288.106Z" fill="#A8CEFF"/>
<path d="M275.909 342.621C300.841 343.558 327.084 343.115 327.084 339.405C327.084 335.695 325.958 333.074 306.652 334.572C287.346 336.069 274.225 338.13 268.414 336.819C262.603 335.508 275.909 342.621 275.909 342.621Z" fill="#2E5B9A"/>
<path d="M541.768 299.081H190.508C189.009 299.081 187.793 297.867 187.793 296.37V295.015C187.793 293.517 189.009 292.303 190.508 292.303H541.766C543.266 292.303 544.481 293.517 544.481 295.015V296.37C544.483 297.867 543.268 299.081 541.768 299.081Z" fill="#2E5B9A"/>
<path d="M588.44 201.45C590.856 209.956 584.957 218.72 578.459 220.562C571.96 222.402 567.323 216.623 564.909 208.12C562.494 199.614 565.803 191.229 572.301 189.386C578.8 187.544 586.024 192.945 588.44 201.45Z" fill="#F09959"/>
<path d="M552.007 366.255C552.007 366.255 568.662 392.091 570.91 393.215C573.158 394.339 578.782 394.618 576.674 398.832C574.565 403.044 573.722 419.613 571.753 420.456C569.785 421.298 552.916 423.264 555.446 420.456C557.976 417.647 559.532 419.053 560.809 413.996C562.085 408.942 563.879 399.393 561.49 397.427C559.101 395.46 544.48 377.769 544.48 377.769L552.007 366.255Z" fill="#F09959"/>
<path d="M468.186 377.351C468.186 377.351 447.942 410.677 444.192 413.673C440.442 416.668 428.072 421.162 438.194 421.912C448.316 422.661 453.189 418.542 459.564 416.668C465.938 414.795 473.81 413.673 470.811 408.806C467.812 403.938 469.057 393.311 475.524 386.571C481.989 379.83 468.186 377.351 468.186 377.351Z" fill="#F09959"/>
<path d="M571.495 300.071C571.495 300.071 521.38 298.762 501.511 315.048C489.889 332.647 461.773 384.575 459.588 390.297C461.087 391.795 469.523 394.498 473.273 394.122C484.333 380.951 498.949 369.564 504.764 359.233C511.929 346.501 514.135 340.136 525.759 339.012C537.383 337.888 563.623 334.145 571.497 334.145C579.371 334.145 571.495 300.071 571.495 300.071Z" fill="#6791C9"/>
<path d="M615.196 422.002H612.57L593.732 343.499H599.512L615.196 422.002Z" fill="#2E5B9A"/>
<path d="M536.506 422.002H539.135L560.75 340.724H554.971L536.506 422.002Z" fill="#2E5B9A"/>
<path d="M600.044 296.642L570.908 301.665C570.908 301.665 532.19 302.02 514.49 305.314C498.389 308.309 496.017 326.583 514.49 351.746C524.985 366.041 533.858 377.443 552.003 390.299C556.619 386.915 558.384 385.634 559.66 377.489C558.346 375.691 554.947 364.434 553.892 362.23C543.856 341.275 530.459 333.653 530.272 331.593C532.522 327.942 589.852 350.622 601.251 337.281C612.138 324.543 600.044 296.642 600.044 296.642Z" fill="#75A1DE"/>
<path d="M601.255 230.758C593.581 229.683 585.766 231.139 578.458 236.426C572.071 242.929 564.844 253.653 565.286 271.343C565.847 293.809 561.805 295.252 566.022 301.43C583.612 308.685 613.695 339.857 606.611 306.438C601.482 282.241 617.863 264.203 604.647 237.363C603.57 235.176 602.227 233.056 601.255 230.758Z" fill="#F37168"/>
<path d="M565.28 279.795C564.937 291.509 563.282 294.958 564.548 298.63C571.72 299.361 584.836 302.226 588.113 306.812C591.863 312.055 595.611 312.803 593.861 308.933C592.111 305.064 587.488 299.573 594.612 280.724C601.735 261.877 605.108 249.145 598.111 236.039L565.28 279.795Z" fill="#D54A41"/>
<path d="M601.256 230.758C596.531 219.585 595.37 207.032 595.37 207.032L583 210.683C583 210.683 590.028 226.408 583.281 232.025C581.847 233.218 580.184 234.668 578.459 236.424C585.767 231.139 593.582 229.681 601.256 230.758Z" fill="#F09959"/>
<path d="M595.743 210.006C595.011 209.355 594.094 208.542 593.131 207.691L583.041 210.67C583.034 210.689 583.026 210.706 583.02 210.725C583.263 211.281 585.833 217.272 586.172 223.034C589.179 221.213 592.471 218.241 596.235 213.05C596.031 211.899 595.869 210.872 595.743 210.006Z" fill="#E38540"/>
<path d="M592.558 234.271C579.816 238.722 581.229 252.128 569.504 271.901C563.435 282.133 557.798 281.982 557.798 281.982C557.798 281.982 543.565 282.096 526.351 279.993C515.571 278.676 514.887 281.881 522.385 284.56C537.506 289.96 553.197 295.773 565.849 294.367C578.501 292.964 600.14 260.72 601.256 252.325C602.8 240.719 598.975 232.029 592.558 234.271Z" fill="#F09959"/>
<path d="M586.001 346.442C585.211 346.442 584.403 346.432 583.57 346.411C573.215 346.154 566.163 344.724 560.495 343.573C553.795 342.212 550.102 341.464 545.751 343.539C544.283 344.239 542.527 343.619 541.824 342.153C541.122 340.686 541.744 338.932 543.212 338.231C549.343 335.305 554.512 336.355 561.669 337.807C567.109 338.911 573.879 340.285 583.715 340.529C594.792 340.802 601.568 339.145 605.03 335.309C608.122 331.885 609.032 326.175 607.894 317.344C607.509 314.353 607.125 311.866 606.784 309.671C605.831 303.514 605.2 299.447 605.978 293.177C606.704 287.33 608.645 279.533 613.144 264.402C613.606 262.845 615.245 261.959 616.805 262.419C618.363 262.881 619.253 264.518 618.79 266.076C610.378 294.378 610.805 297.14 612.605 308.772C612.95 311 613.341 313.527 613.737 316.592C615.11 327.253 613.732 334.452 609.404 339.245C604.942 344.19 597.669 346.442 586.001 346.442Z" fill="#2E5B9A"/>
<path d="M469.562 405.44C456.129 412.003 448.899 415.763 444.594 415.404C443.578 415.32 442.735 415.215 442.028 415.105C437.237 417.933 429.591 421.275 438.194 421.911C448.316 422.661 453.189 418.542 459.564 416.668C465.936 414.797 473.81 413.673 470.811 408.806C470.237 407.873 469.818 406.728 469.562 405.44Z" fill="#D54A41"/>
<path d="M572.375 393.763C572.047 404.386 570.585 414.912 564.08 416.902C562.356 417.429 560.785 417.504 559.395 417.32C558.373 418.582 557.124 418.597 555.447 420.456C552.917 423.264 569.786 421.298 571.755 420.456C573.723 419.613 574.566 403.044 576.676 398.832C578.407 395.372 574.92 394.563 572.375 393.763Z" fill="#D54A41"/>
<path d="M520.634 292.901H477.961C476.814 292.901 475.773 292.238 475.29 291.2L458.044 254.128C457.359 252.655 458 250.905 459.474 250.221C460.949 249.536 462.701 250.177 463.386 251.649L479.841 287.02H520.636C522.262 287.02 523.581 288.337 523.581 289.96C523.581 291.584 522.262 292.901 520.634 292.901Z" fill="#75A1DE"/>
<path d="M529.559 280.365C520.937 280.241 512.386 275.107 508.137 275.855C503.889 276.605 490.017 286.215 491.767 286.589C493.517 286.963 504.514 281.27 504.888 281.184C505.262 281.098 507.637 285.127 513.511 286.608C519.385 288.089 513.553 282.211 531.759 287.702C543.597 291.275 529.559 280.365 529.559 280.365Z" fill="#F09959"/>
<path d="M599.987 220.562L601.256 230.758C601.256 230.758 590.099 231.422 584.545 234.542C578.992 237.663 570.799 246.677 570.799 246.677L577.493 235.165L578.456 227.801L599.987 220.562Z" fill="#F2E5DE"/>
<path d="M595.239 233.044C586.951 231.494 583.117 238.911 577.744 251.017C572.371 263.125 563.197 277.829 561.374 279.726C559.55 281.623 530.633 279.726 530.633 279.726C530.633 279.726 529.758 288.089 530.633 289.086C531.508 290.084 536.507 289.96 536.507 289.96C536.507 289.96 538.507 291.555 540.381 292.817C542.255 294.08 558.126 296.451 565.498 296.077C572.871 295.703 579.618 295.08 580.619 293.956C581.618 292.832 601.738 261.877 602.987 250.769C604.236 239.659 599.469 233.836 595.239 233.044Z" fill="#F2E5DE"/>
<path d="M570.799 182.116C555.125 182.866 557.584 206.418 557.584 206.418C557.584 206.418 561.655 207.674 570.183 206.269C569.527 203.742 569.809 197.283 569.809 197.283C569.809 197.283 570.799 202.526 572.059 205.708C573.861 206.534 575.901 205.803 579.369 204.965C581.151 212.449 586.181 215.611 589.628 216.693C593.435 217.888 597.464 219.314 601.963 217.066C606.461 214.819 603.988 191.853 601.599 187.235C598.013 180.303 592.053 174.098 581.744 177.375C576.572 179.018 570.799 182.116 570.799 182.116Z" fill="#303C60"/>
<path d="M598.057 210.088L604.465 219.438C604.465 219.438 597.363 237.163 618.019 245.192C634.196 251.481 632.291 262.562 624.98 273.706C617.67 284.85 629.355 294.582 629.355 294.582C629.355 294.582 631.136 282.236 646.854 279.907C668.285 276.731 674.354 247.99 658.346 233.619C645.1 221.728 641.069 231.575 632.103 220.904C623.138 210.233 606.21 217.44 606.21 217.44L600.006 208.403L598.057 210.088Z" fill="#303C60"/>
<path d="M665.718 262.514C665.634 262.514 665.55 262.493 665.472 262.451C665.224 262.314 665.133 262.003 665.268 261.755C670.668 251.895 666.262 239.949 664.044 236.714C663.81 236.371 663.587 236.025 663.352 235.659C661.173 232.262 658.46 228.034 644.006 225.435C640.544 224.813 637.734 222.753 634.76 220.572C628.594 216.05 621.606 210.926 606.422 217.907C606.165 218.024 605.86 217.913 605.742 217.657C605.624 217.4 605.736 217.096 605.992 216.978C621.726 209.746 628.973 215.06 635.366 219.749C638.241 221.858 640.956 223.849 644.186 224.429C659.08 227.107 661.928 231.544 664.214 235.109C664.445 235.468 664.662 235.808 664.889 236.138C666.225 238.087 667.876 242.127 668.551 246.755C669.137 250.769 669.198 256.714 666.166 262.249C666.075 262.417 665.899 262.514 665.718 262.514Z" fill="#303C60"/>
<path d="M594.636 219.61C593.613 219.61 592.507 219.522 591.315 219.344C585.851 218.526 578.522 215.422 577.946 197.986C577.937 197.705 578.158 197.468 578.44 197.459C578.73 197.447 578.959 197.671 578.968 197.953C579.205 205.171 580.642 210.512 583.233 213.831C585.205 216.359 587.822 217.787 591.464 218.333C596.566 219.096 599.948 218.15 601.519 215.525C601.664 215.283 601.979 215.203 602.221 215.348C602.463 215.493 602.543 215.808 602.398 216.05C600.985 218.417 598.379 219.61 594.636 219.61Z" fill="#303C60"/>
<path d="M105.46 231.983C87.2681 242.373 61.9639 285.566 67.3057 292.614C72.6475 299.663 101.325 281.127 101.325 281.127L105.46 231.983Z" fill="#96CFE0"/>
<path d="M139.448 181.896C132.501 181.707 135.08 176.55 127.09 178.608C122.89 179.69 125.99 181.417 120.535 180.856C115.079 180.295 112.394 179.732 111.706 183.291C111.018 186.849 110.686 187.971 108.061 188.534C105.437 189.095 104.253 193.777 108.061 196.959C111.87 200.142 110.019 201.453 109.176 204.074C108.333 206.696 111.208 206.883 112.77 209.317C114.333 211.752 111.332 212.212 113.582 214.321C115.832 216.432 118.987 216.243 118.987 216.243L128.457 198.108L139.448 181.896Z" fill="#303C60"/>
<path d="M280.981 399.565C280.981 399.565 291.103 399.847 298.975 396.757C306.847 393.667 312.188 388.894 310.784 394.509C309.379 400.126 302.912 409.762 297.288 410.701C291.664 411.64 289.696 417.818 286.604 417.818C283.513 417.818 279.012 410.701 271.141 407.142C263.965 403.903 280.981 399.565 280.981 399.565Z" fill="#2E5B9A"/>
<path d="M201.215 398.618C201.215 398.618 205.471 404.481 212.88 408.56C220.531 412.772 229.36 414.801 223.886 416.706C218.411 418.612 210.409 420.093 202.603 417.828C197.128 416.24 190.71 415.908 189.013 413.324C187.317 410.741 191.008 404.252 189.473 394.555C188.245 386.783 201.215 398.618 201.215 398.618Z" fill="#2E5B9A"/>
<path d="M153.82 304.371C153.82 304.371 212.454 326.299 217.178 332.429C221.901 338.559 283.534 394.402 283.534 398.521C283.534 402.641 273.038 410.129 273.038 410.129C273.038 410.129 220.177 377.74 207.056 361.262C193.935 344.787 161.911 336.843 144.887 335.317C127.862 333.792 153.82 304.371 153.82 304.371Z" fill="#3E6BAB"/>
<path d="M156.067 304.371C156.067 304.371 196.181 302.873 204.804 304.371C213.427 305.869 232.34 305.852 219.969 340.724C210.274 368.058 207.073 402.664 207.073 402.664L187.794 407.394C187.794 407.394 188.56 345.167 197.759 328.598C191.058 329.7 178.762 331.854 161.72 336.721C130.105 345.751 112.769 341.229 112.769 341.229L108.062 324.753L156.067 304.371Z" fill="#4476BD"/>
<path d="M122.57 200.923L112.77 229.849L125.15 237.993L132.168 213L122.57 200.923Z" fill="#A86B48"/>
<path d="M126.259 234.048L132.169 212.998L122.57 200.921L118.984 211.502C120.223 221.06 123.212 228.965 126.259 234.048Z" fill="#7A4E34"/>
<path d="M147.572 205.82C147.89 214.617 143.564 222.232 136.687 222.908C129.81 223.585 123.534 217.033 122.67 208.271C121.805 199.509 126.678 191.859 133.555 191.183C140.432 190.506 147.07 191.937 147.572 205.82Z" fill="#A86B48"/>
<path d="M108.062 229.007C77.9758 249.301 96.689 282.096 103.295 306.062C108.923 326.474 108.738 338.811 109.581 338.811C110.424 338.811 131.116 335.721 142.923 325.05C154.732 314.378 162.715 304.041 162.715 304.041C162.715 304.041 147.586 301.35 142.641 281.802C140.13 271.876 141.272 266.488 135.55 250.763C129.831 235.038 108.062 229.007 108.062 229.007Z" fill="#A2DFF2"/>
<path d="M108.061 229.007L111.282 221.131C111.282 221.131 121.499 227.872 125.575 231.055C129.653 234.237 132.166 234.987 132.166 234.987C132.166 234.987 133.64 246.276 132.683 245.251C120.626 232.342 108.061 229.007 108.061 229.007Z" fill="#A2DFF2"/>
<path d="M94.7285 422.002H97.3553L116.193 343.5H110.413L94.7285 422.002Z" fill="#2E5B9A"/>
<path d="M173.42 422.002H170.793L149.178 340.725H154.957L173.42 422.002Z" fill="#2E5B9A"/>
<path d="M123.992 346.44C113.469 346.44 106.802 344.552 102.547 340.414C97.2727 335.282 96.1812 327.333 96.1665 316.977C96.1329 295.204 94.9278 290.702 88.791 277.407C88.1096 275.933 88.7553 274.185 90.2316 273.504C91.708 272.824 93.4577 273.469 94.1391 274.943C100.625 288.996 102.021 294.162 102.055 316.966C102.072 327.463 103.403 333.034 106.657 336.2C109.992 339.445 116.024 340.783 126.211 340.531C136.047 340.29 142.817 338.914 148.258 337.809C155.412 336.355 160.584 335.307 166.714 338.233C168.182 338.933 168.803 340.689 168.102 342.155C167.402 343.621 165.644 344.241 164.176 343.541C159.825 341.464 156.134 342.214 149.431 343.575C143.763 344.726 136.712 346.157 126.356 346.413C125.549 346.432 124.758 346.44 123.992 346.44Z" fill="#2E5B9A"/>
<path d="M253.989 292.561H211.313C209.688 292.561 208.369 291.244 208.369 289.62C208.369 287.997 209.688 286.679 211.313 286.679H252.109L268.563 251.309C269.249 249.837 270.999 249.198 272.475 249.881C273.949 250.565 274.589 252.313 273.905 253.788L256.66 290.86C256.176 291.897 255.133 292.561 253.989 292.561Z" fill="#3E6BAB"/>
<path d="M109.176 258.554C109.176 258.554 116.673 281.396 125.952 290.851C135.231 300.306 153.904 303.482 159.751 303.111C155.09 301.239 146.213 295.914 142.644 281.8C140.133 271.874 141.275 266.486 135.553 250.761C131.304 239.088 118.217 232.756 111.752 230.269C119.819 236.056 129.908 245.589 133.008 252.842C136.448 260.896 109.176 258.554 109.176 258.554Z" fill="#96CFE0"/>
<path d="M212.664 278.6C212.664 278.6 225.598 272.704 227.003 273.265C228.407 273.826 242.748 282.474 242.748 283.907C242.748 285.339 230.096 278.567 230.096 278.567C230.096 278.567 231.501 282.31 230.658 284.106C229.814 285.902 220.088 285.902 211.316 285.339C202.544 284.776 212.664 278.6 212.664 278.6Z" fill="#A86B48"/>
<path d="M109.59 240.907C97.668 265.314 138.564 290.055 162.825 292.254C187.089 294.454 215.913 286.524 215.913 286.524L212.664 278.6C212.664 278.6 164.058 272.263 162.825 271.376C161.595 270.49 113.956 231.968 109.59 240.907Z" fill="#A2DFF2"/>
<path d="M125.09 201.747C126.194 204.65 125.384 207.649 123.281 208.45C121.176 209.25 118.574 207.544 117.47 204.641C116.366 201.738 117.176 198.739 119.281 197.938C121.384 197.14 123.986 198.844 125.09 201.747Z" fill="#A86B48"/>
<path d="M147.589 183.165C150.882 181.791 154.592 180.32 153.444 185.91C152.943 188.345 153.444 187.658 154.319 189.903C155.193 192.151 152.115 193.913 151.113 195.163C150.115 196.411 152.569 197.768 150.569 199.266C148.569 200.764 145.934 198.711 144.07 199.266C138.51 200.923 139.197 196.554 136.072 195.646C132.947 194.737 131.416 194.878 130.823 196.875C130.23 198.873 133.01 205.444 130.636 204.82C128.261 204.196 127.727 209.5 127.088 212.496C126.449 215.491 124.821 210.429 124.926 207C125.088 201.745 123.782 199.537 121.843 198.066C119.904 196.596 119.079 183.225 128.451 182.726C137.822 182.226 137.883 181.322 141.881 180.478C145.885 179.635 146.087 183.791 147.589 183.165Z" fill="#303C60"/>
<path d="M673.042 335.855C679.019 341.304 676.42 346.755 672.003 356.876C667.587 366.997 666.807 404.369 666.807 404.369L670.445 403.85C670.445 403.85 669.925 365.44 674.861 355.061C679.797 344.68 681.877 339.489 686.294 342.863C690.71 346.236 673.042 335.855 673.042 335.855Z" fill="#74B570"/>
<path d="M669.758 328.799C670.484 325.568 674.795 322.075 680.558 319.111C679.702 323.875 676.953 331.664 679.796 333.261C683.63 335.416 680.171 324.541 681.649 318.563C687.06 315.922 693.571 313.765 699.567 312.691C699.559 312.715 699.553 312.736 699.542 312.757C696.165 321.321 691.748 324.694 693.567 325.993C694.936 326.969 699.393 317.076 705.277 312.005C709.694 311.769 713.431 312.368 715.643 314.116C719.061 316.817 721.353 319.216 717.917 327.444C715.952 328.845 713.41 329.849 710.455 330.146C702.661 330.925 699.023 331.183 704.478 333.78C707.151 335.051 711.628 333.708 715.26 332.889C714.083 335.057 712.634 337.51 710.876 340.306C709.759 342.079 708.531 343.617 707.225 344.949C704.711 345.43 702.522 345.434 701.363 344.938C697.725 343.382 688.373 338.449 686.034 340.527C683.746 342.558 703.357 343.846 701.998 349.009C692.493 354.479 681.615 351.877 679.693 346.854C677.106 340.109 667.573 338.521 669.758 328.799Z" fill="#9CD499"/>
<path d="M689.41 365.701C679.016 357.916 668.364 365.182 662.907 373.486C657.452 381.79 661.349 400.477 661.349 400.477C661.349 400.477 663.426 400.477 663.426 399.697C663.426 398.918 657.71 377.639 671.22 368.037C679.673 362.029 685.769 364.922 686.55 367.776C687.33 370.631 683.172 375.822 683.172 375.822L689.41 365.701Z" fill="#74B570"/>
<path d="M665.506 349.696C675.899 349.696 679.277 365.787 676.419 375.129C673.561 384.472 669.664 401.859 669.664 401.859L667.067 399.265C667.067 399.265 676.94 374.87 674.602 363.97C672.263 353.07 666.547 351.253 665.508 351.253C664.467 351.253 665.506 349.696 665.506 349.696Z" fill="#9CD499"/>
<path d="M674.223 375.202C674.955 374.236 675.857 373.435 676.959 372.906C676.814 373.679 676.635 374.425 676.419 375.131C675.117 379.387 673.598 385.314 672.332 390.505C672.217 389.839 672.04 388.816 671.767 387.234C671.701 386.861 671.651 386.455 671.615 386.027C672.631 382.569 673.594 378.8 674.223 375.202Z" fill="#74B570"/>
<path d="M677.063 375.28C696.809 366.976 686.407 355.578 703.814 363.105C705.041 363.634 706.536 364.972 708.031 366.814C706.481 367.253 704.603 367.568 702.515 367.255C697.318 366.476 699.137 370.629 707.711 371.667C709.327 371.862 710.639 372.131 711.728 372.513C715.812 380.349 717.655 390.661 709.009 394.244C707.306 394.95 705.2 395.356 702.858 395.505C700.191 393.387 703.507 381.134 699.396 382.825C695.448 384.449 700.632 393.331 699.922 395.568C696.025 395.496 691.709 394.862 687.587 393.841C685.955 392.927 684.71 391.703 684.325 390.093C683.025 384.644 691.6 381.271 691.861 376.599C692.1 372.305 688.719 386.048 679.759 388.068C671.66 384.291 667.833 379.162 677.063 375.28Z" fill="#9CD499"/>
<path d="M662.992 360.596C665.07 356.185 659.615 355.147 659.874 358.521C660.105 361.51 660.13 368.778 657.06 370.755C651.766 370.182 644.563 368.052 639.118 364.804C639.049 364.365 639.116 363.913 639.348 363.451C641.686 358.779 656.757 354.887 652.08 353.33C648.355 352.091 641.829 359.41 636.569 363.098C633.411 360.704 631.295 357.851 631.295 354.666C631.295 350.356 636.54 345.474 643.322 343.142C646.374 343.449 649.211 345.117 653.64 347.623C660.183 351.326 658.671 345.34 652.483 341.785C657.823 342.06 663.148 344.34 667.075 349.784C667.075 349.784 666.702 352.112 669.169 355.712C675.897 365.533 668.132 371.268 658.852 370.894C659.377 368.304 661.558 363.644 662.992 360.596Z" fill="#9CD499"/>
<path d="M688.785 365.26C693.866 369.182 699.51 373.767 706.44 376.88C713.37 379.996 711.984 390.146 711.984 390.146C711.984 390.146 713.023 381.38 707.25 378.38C701.475 375.381 697.664 371.805 693.277 371.114C688.888 370.423 686.463 369.73 686.463 369.73C686.463 369.73 687.849 366.961 687.041 365.924C686.229 364.886 688.785 365.26 688.785 365.26Z" fill="#74B570"/>
<path d="M713.827 319.208C695.234 324.167 681.608 336.048 679.068 338.933C676.527 341.817 676.527 342.623 676.527 342.623L678.489 346.314L679.413 345.852C679.413 345.852 677.911 342.737 681.838 338.702C688.61 331.74 696.849 326.245 702.509 323.823C708.168 321.401 713.827 319.208 713.827 319.208Z" fill="#74B570"/>
<path d="M662.506 422.002H669.61C674.661 422.002 678.756 417.912 678.756 412.866V396.565H653.361V412.866C653.359 417.912 657.454 422.002 662.506 422.002Z" fill="#75A1DE"/>
<path d="M678.756 399.479H653.361V401.265H678.756V399.479Z" fill="white"/>
<path d="M678.756 402.735H653.361V403.785H678.756V402.735Z" fill="white"/>
<path d="M361.24 56.1477C361.24 36.9249 345.761 21.3109 326.573 21.0672C307.296 20.8214 291.3 36.3262 290.993 55.5785C290.843 64.9767 294.396 73.5452 300.284 79.9248C302.997 82.8636 304.505 86.7161 304.505 90.7136V106.441C304.505 116.616 312.84 124.941 323.025 124.941H329.199C339.387 124.941 347.721 116.616 347.721 106.441V90.7157C347.721 86.6846 349.277 82.8258 352.005 79.8555C357.74 73.6103 361.24 65.2876 361.24 56.1477Z" fill="#F5DC95"/>
<path opacity="0.5" d="M356.334 58.5026C356.334 41.9643 343.018 28.5329 326.511 28.3228C309.928 28.1106 296.165 41.4496 295.902 58.0131C295.774 66.0984 298.83 73.4696 303.896 78.9585C306.231 81.4877 307.526 84.8004 307.526 88.2412V101.771C307.526 110.525 314.695 117.686 323.459 117.686H328.771C337.535 117.686 344.704 110.525 344.704 101.771V88.2433C344.704 84.7751 346.044 81.4561 348.391 78.8997C353.323 73.5263 356.334 66.3652 356.334 58.5026Z" fill="white"/>
<path d="M331.307 97.0197H319.74C319.197 97.0197 318.743 96.6058 318.693 96.066C318.672 95.8412 316.514 73.5388 306.529 67.2915C306.036 66.9827 305.887 66.3357 306.196 65.8442C306.503 65.3526 307.153 65.2035 307.645 65.5123C317.385 71.6041 320.152 90.3985 320.686 94.9211H330.197C330.159 93.3688 330.249 90.3754 331.143 86.4997C332.34 81.3195 335.273 73.5052 342.455 65.693C342.849 65.2665 343.513 65.2371 343.942 65.6299C344.369 66.0228 344.399 66.6866 344.005 67.113C330.878 81.3889 332.338 95.7089 332.354 95.8517C332.388 96.15 332.293 96.4462 332.094 96.6689C331.892 96.8936 331.606 97.0197 331.307 97.0197Z" fill="#94BDF2"/>
<path d="M339.964 68.7284C336.058 68.7284 330.736 65.9577 325.127 62.9538C317.884 66.8063 311.12 70.2619 307.335 67.968C305.555 66.8904 304.704 64.7813 304.733 61.5212C304.76 58.4521 305.642 56.383 307.352 55.3705C311.145 53.127 317.922 56.7065 325.129 60.5696C332.479 56.654 339.398 53.0094 343.177 55.3075C344.875 56.3389 345.714 58.4374 345.676 61.5422C345.634 64.7729 344.704 66.9471 342.912 68.0016C342.061 68.5078 341.068 68.7284 339.964 68.7284ZM327.362 61.7648C333.137 64.8296 339.177 67.7663 341.846 66.1951C342.963 65.5376 343.543 63.9642 343.575 61.517C343.604 59.2063 343.104 57.7211 342.086 57.1035C339.508 55.5365 333.247 58.6475 327.362 61.7648ZM310.195 56.7695C309.501 56.7695 308.904 56.8956 308.424 57.1791C307.391 57.7904 306.857 59.2567 306.836 61.5401C306.815 63.9621 307.349 65.5208 308.424 66.1719C311.019 67.7432 317.08 64.8233 322.893 61.7585C318.195 59.2546 313.261 56.7695 310.195 56.7695Z" fill="#94BDF2"/>
<path d="M329.834 129.93H323.104C320.734 129.93 318.793 127.991 318.793 125.624V124.994C318.793 122.626 320.734 120.688 323.104 120.688H329.834C332.204 120.688 334.145 122.626 334.145 124.994V125.624C334.145 127.994 332.204 129.93 329.834 129.93Z" fill="#94BDF2"/>
<path d="M303.484 95.1292V106.254C303.484 116.909 312.212 125.628 322.881 125.628H329.348C340.015 125.628 348.745 116.911 348.745 106.254V95.1292H303.484Z" fill="#94BDF2"/>
<path d="M348.552 98.6309H304.246C302.858 98.6309 301.723 97.4966 301.723 96.1101V95.8307C301.723 94.4443 302.858 93.31 304.246 93.31H348.552C349.94 93.31 351.076 94.4443 351.076 95.8307V96.1101C351.076 97.4966 349.94 98.6309 348.552 98.6309Z" fill="#9EC8FF"/>
<path d="M348.709 102.62L304.738 108.046C303.36 108.216 302.094 107.229 301.924 105.853L301.89 105.575C301.72 104.2 302.708 102.935 304.086 102.765L348.057 97.3389C349.434 97.1688 350.701 98.1561 350.871 99.532L350.905 99.8093C351.075 101.185 350.086 102.45 348.709 102.62Z" fill="#9EC8FF"/>
<path d="M348.709 110.306L304.738 115.732C303.36 115.902 302.094 114.915 301.924 113.539L301.89 113.262C301.72 111.886 302.708 110.621 304.086 110.451L348.057 105.025C349.434 104.855 350.701 105.842 350.871 107.218L350.905 107.496C351.075 108.871 350.086 110.138 348.709 110.306Z" fill="#9EC8FF"/>
<path d="M345.997 118.532L309.376 123.051C308.112 123.206 306.949 122.301 306.793 121.038L306.707 120.349C306.551 119.087 307.458 117.925 308.722 117.77L345.342 113.251C346.606 113.096 347.769 114.001 347.925 115.264L348.011 115.953C348.167 117.215 347.26 118.377 345.997 118.532Z" fill="#9EC8FF"/>
<path d="M663.066 128.506H686.671C686.671 141.44 676.015 152.084 663.066 152.084C650.117 152.084 639.461 141.44 639.461 128.506C639.461 115.572 650.117 104.929 663.066 104.929V128.506Z" fill="#9EC8FF"/>
<path d="M690.624 125.204C690.624 112.182 680.057 101.626 667.02 101.626V125.204H690.624Z" fill="#F39892"/>
<path d="M643.414 125.204C643.414 138.226 653.982 148.781 667.019 148.781C654.07 148.781 643.414 138.137 643.414 125.204Z" fill="#F39892"/>
<path d="M667.019 101.626C653.982 101.626 643.414 112.182 643.414 125.204C643.414 112.27 654.07 101.626 667.019 101.626Z" fill="#F39892"/>
<path d="M667.02 148.781C680.057 148.781 690.624 138.226 690.624 125.204C690.624 138.137 679.968 148.781 667.02 148.781Z" fill="#F39892"/>
<path d="M206.256 112.909H201.102V127.809H206.256V112.909Z" fill="#9EC8FF"/>
<path d="M272.332 117.757H267.178V127.809H272.332V117.757Z" fill="#9EC8FF"/>
<path d="M228.104 92.9485H222.949V127.809H228.104V92.9485Z" fill="#9EC8FF"/>
<path d="M239.028 112.14H233.873V127.808H239.028V112.14Z" fill="#9EC8FF"/>
<path d="M249.952 107.705H244.797V127.811H249.952V107.705Z" fill="#9EC8FF"/>
<path d="M217.18 103.071H212.025V127.808H217.18V103.071Z" fill="#9EC8FF"/>
<path d="M260.912 97.341H255.758V127.809H260.912V97.341Z" fill="#9EC8FF"/>
<ellipse cx="37" cy="68.5" rx="35" ry="34.5" fill="#E7F3FE"/>
<path d="M63.7021 84.607L36.667 68.094L31.7773 99.3682C44.4757 101.368 57.0732 95.4232 63.7021 84.607Z" fill="#A2DFF2"/>
<path d="M63.7286 84.5692C63.8022 84.4495 63.8968 84.2856 63.8926 84.2919C69.6025 74.7383 69.8338 62.8718 64.595 53.1312C55.0281 58.137 60.7254 55.0953 36.6641 68.0919C63.7454 84.6343 59.5392 82.0821 63.7286 84.5692Z" fill="#9CD499"/>
<path d="M6.94727 57.1539L36.668 68.0919L64.5485 53.0346C51.5052 28.9467 16.4027 31.835 6.94727 57.1539Z" fill="#9EC8FF"/>
<path d="M31.7762 99.3682L36.6658 68.094L6.94512 57.156C-0.12122 76.0785 12.4236 96.3202 31.7762 99.3682Z" fill="#F39892"/>
<path d="M210.036 73.8813H122.851C121.903 73.8813 121.133 73.1125 121.133 72.1651V34.6898C121.133 33.7424 121.903 32.9736 122.851 32.9736H210.036C210.985 32.9736 211.754 33.7424 211.754 34.6898V72.163C211.754 73.1125 210.985 73.8813 210.036 73.8813Z" fill="#9EC8FF"/>
<path d="M207.888 71.9615H124.997C124.23 71.9615 123.609 71.3418 123.609 70.575V45.1091C123.609 44.3424 124.232 43.7227 124.997 43.7227H207.888C208.656 43.7227 209.276 44.3424 209.276 45.1091V70.575C209.276 71.3397 208.654 71.9615 207.888 71.9615Z" fill="white"/>
<path d="M127.648 39.177H125.635C125.21 39.177 124.865 38.8325 124.865 38.4081V36.7529C124.865 36.3285 125.21 35.984 125.635 35.984H127.648C128.072 35.984 128.417 36.3285 128.417 36.7529V38.4081C128.417 38.8325 128.072 39.177 127.648 39.177Z" fill="white"/>
<path d="M134.105 39.1769H132.092C131.667 39.1769 131.322 38.8324 131.322 38.4081V36.7528C131.322 36.3285 131.667 35.9839 132.092 35.9839H134.105C134.529 35.9839 134.874 36.3285 134.874 36.7528V38.4081C134.872 38.8324 134.529 39.1769 134.105 39.1769Z" fill="white"/>
<path d="M140.558 39.1769H138.545C138.12 39.1769 137.775 38.8324 137.775 38.4081V36.7528C137.775 36.3285 138.12 35.9839 138.545 35.9839H140.558C140.983 35.9839 141.327 36.3285 141.327 36.7528V38.4081C141.327 38.8324 140.983 39.1769 140.558 39.1769Z" fill="white"/>
<path d="M205.79 49.9111H160.478C159.733 49.9111 159.121 49.302 159.121 48.5562C159.121 47.8126 159.731 47.2013 160.478 47.2013H205.79C206.535 47.2013 207.147 47.8105 207.147 48.5562C207.147 49.302 206.537 49.9111 205.79 49.9111Z" fill="#9EC8FF"/>
<path d="M171.71 70.7998H126.397C125.651 70.7998 125.041 70.1906 125.041 69.4449C125.041 68.7013 125.651 68.09 126.397 68.09H171.71C172.455 68.09 173.067 68.6992 173.067 69.4449C173.065 70.1906 172.455 70.7998 171.71 70.7998Z" fill="#9EC8FF"/>
<path d="M180.057 70.7998H175.369C175.114 70.7998 174.906 70.5918 174.906 70.3377V68.5563C174.906 68.3022 175.114 68.0942 175.369 68.0942H180.057C180.311 68.0942 180.519 68.3022 180.519 68.5563V70.3377C180.519 70.5918 180.311 70.7998 180.057 70.7998Z" fill="#9EC8FF"/>
<path d="M187.125 70.7998H182.437C182.183 70.7998 181.975 70.5918 181.975 70.3377V68.5563C181.975 68.3022 182.183 68.0942 182.437 68.0942H187.125C187.38 68.0942 187.588 68.3022 187.588 68.5563V70.3377C187.588 70.5918 187.38 70.7998 187.125 70.7998Z" fill="#9EC8FF"/>
<path d="M206.228 55.8098H131.191C130.684 55.8098 130.271 55.3959 130.271 54.8918C130.271 54.3855 130.686 53.9738 131.191 53.9738H206.228C206.735 53.9738 207.147 54.3876 207.147 54.8918C207.147 55.398 206.733 55.8098 206.228 55.8098Z" fill="#9EC8FF"/>
<path d="M206.228 59.7757H131.191C130.684 59.7757 130.271 59.3619 130.271 58.8578C130.271 58.3515 130.686 57.9398 131.191 57.9398H206.228C206.735 57.9398 207.147 58.3536 207.147 58.8578C207.147 59.3619 206.733 59.7757 206.228 59.7757Z" fill="#9EC8FF"/>
<path d="M432.605 47.8335H393.908V25.3063H423.011C426.758 29.0496 428.859 31.1482 432.605 34.8894V47.8335Z" fill="#FFB8B3"/>
<path d="M422.299 25.3064V37.3304H432.604V35.0197L422.944 25.3715L422.299 25.3064Z" fill="#F39892"/>
<path d="M423.01 25.3064V35.0197H432.604L423.01 25.3064Z" fill="#FFB8B3"/>
<path d="M415.517 33.7594H398.271C397.895 33.7594 397.588 33.4527 397.588 33.0767C397.588 32.7007 397.895 32.394 398.271 32.394H415.517C415.893 32.394 416.2 32.7007 416.2 33.0767C416.2 33.4527 415.893 33.7594 415.517 33.7594Z" fill="white"/>
<path d="M415.517 37.2527H398.271C397.895 37.2527 397.588 36.946 397.588 36.57C397.588 36.194 397.895 35.8873 398.271 35.8873H415.517C415.893 35.8873 416.2 36.194 416.2 36.57C416.2 36.9439 415.893 37.2527 415.517 37.2527Z" fill="white"/>
<path d="M415.517 40.9288H398.271C397.895 40.9288 397.588 40.6221 397.588 40.2461C397.588 39.8701 397.895 39.5634 398.271 39.5634H415.517C415.893 39.5634 416.2 39.8701 416.2 40.2461C416.2 40.62 415.893 40.9288 415.517 40.9288Z" fill="white"/>
<path d="M412.1 28.1925C412.739 28.1925 413.257 27.6753 413.257 27.0372C413.257 26.3991 412.739 25.8818 412.1 25.8818C411.461 25.8818 410.943 26.3991 410.943 27.0372C410.943 27.6753 411.461 28.1925 412.1 28.1925Z" fill="#3E6BAB"/>
<path d="M266.197 26.4103L242.053 21.7452L236.434 50.8262L260.579 55.4914L266.197 26.4103Z" fill="#FAE8B6"/>
<path d="M261.102 38.9792L248.301 36.5089C247.96 36.4438 247.735 36.1119 247.8 35.7716C247.866 35.4313 248.198 35.2065 248.538 35.2716L261.34 37.742C261.681 37.8071 261.906 38.139 261.84 38.4793C261.775 38.8196 261.443 39.0444 261.102 38.9792Z" fill="#9EC8FF"/>
<path d="M260.485 42.1765L247.684 39.7061C247.343 39.641 247.118 39.3091 247.183 38.9688C247.248 38.6285 247.581 38.4037 247.921 38.4688L260.723 40.9392C261.063 41.0043 261.288 41.3362 261.223 41.6765C261.158 42.0168 260.826 42.2416 260.485 42.1765Z" fill="#9EC8FF"/>
<path d="M259.85 45.4619L247.049 42.9915C246.708 42.9264 246.483 42.5945 246.548 42.2542C246.614 41.9139 246.948 41.6891 247.287 41.7543L260.088 44.2246C260.429 44.2897 260.654 44.6216 260.588 44.9619C260.523 45.3022 260.191 45.527 259.85 45.4619Z" fill="#9EC8FF"/>
<path d="M252.436 25.6466C252.327 26.2159 251.773 26.5877 251.203 26.4785C250.634 26.3692 250.261 25.8168 250.371 25.2475C250.48 24.6782 251.033 24.3064 251.603 24.4157C252.173 24.527 252.547 25.0774 252.436 25.6466Z" fill="#3E6BAB"/>
<path d="M450.463 79.3534L413.092 75.421L415.559 52.0242L445.189 55.1416C447.894 58.4795 449.41 60.349 452.114 63.6869L450.463 79.3534Z" fill="#9EC8FF"/>
<path d="M444.661 56.8116L416.844 53.8833L414.764 73.625L449.345 77.2654L450.564 65.7057L443.799 64.9935L444.661 56.8116Z" fill="white"/>
<path d="M440.89 63.9831L422.87 62.0863C422.458 62.0421 422.155 61.6703 422.2 61.2565C422.244 60.8448 422.616 60.5423 423.03 60.5864L441.049 62.4833C441.462 62.5274 441.765 62.8992 441.72 63.313C441.676 63.7248 441.304 64.0272 440.89 63.9831Z" fill="#9EC8FF"/>
<path d="M440.472 67.9491L422.452 66.0522C422.04 66.0081 421.737 65.6363 421.782 65.2225C421.826 64.8108 422.198 64.5083 422.612 64.5524L440.631 66.4492C441.044 66.4934 441.347 66.8652 441.302 67.279C441.258 67.6907 440.886 67.9932 440.472 67.9491Z" fill="#9EC8FF"/>
<path d="M440.036 72.0916L422.017 70.1947C421.605 70.1506 421.302 69.7788 421.346 69.365C421.39 68.9532 421.762 68.6508 422.177 68.6949L440.196 70.5917C440.608 70.6359 440.911 71.0077 440.867 71.4215C440.823 71.8353 440.448 72.1336 440.036 72.0916Z" fill="#9EC8FF"/>
<path d="M429.545 58.5823C430.184 58.5823 430.702 58.0651 430.702 57.427C430.702 56.7889 430.184 56.2716 429.545 56.2716C428.907 56.2716 428.389 56.7889 428.389 57.427C428.389 58.0651 428.907 58.5823 429.545 58.5823Z" fill="#3E6BAB"/>
<path d="M636.147 39.1767C636.147 46.2936 630.369 52.0641 623.244 52.0641C616.119 52.0641 610.342 46.2936 610.342 39.1767C610.342 32.0598 616.119 26.2893 623.244 26.2893C630.369 26.2893 636.147 32.0598 636.147 39.1767Z" fill="#9CD499"/>
<path d="M621.964 43.5881C621.955 43.5881 621.949 43.5881 621.941 43.5881C621.768 43.5818 621.604 43.5041 621.49 43.3739L617.987 39.3953C617.757 39.1348 617.783 38.7357 618.044 38.5067C618.304 38.2777 618.704 38.303 618.933 38.5634L621.997 42.0421L629.009 35.1877C629.257 34.9441 629.657 34.9482 629.901 35.1982C630.145 35.4461 630.14 35.8452 629.892 36.0889L622.405 43.4075C622.288 43.523 622.128 43.5881 621.964 43.5881Z" fill="white"/>
<path d="M41.9131 158.808H116.299C118.206 158.808 119.765 157.249 119.765 155.346V128.798C119.765 126.893 118.204 125.336 116.299 125.336H41.9131C40.0056 125.336 38.4473 126.895 38.4473 128.798V155.344C38.4473 157.249 40.0077 158.808 41.9131 158.808Z" fill="#9EC8FF"/>
<path d="M109.943 153.758V172.224L88.6387 150.945C88.6387 150.945 109.51 153.758 109.943 153.758Z" fill="#9EC8FF"/>
<path d="M45.5903 155.489H112.62C114.237 155.489 115.558 154.167 115.558 152.554V131.59C115.558 129.974 114.235 128.655 112.62 128.655H45.5903C43.9731 128.655 42.6523 129.977 42.6523 131.59V152.554C42.6523 154.167 43.9752 155.489 45.5903 155.489Z" fill="white"/>
<path d="M75.855 135.291H108.787C109.582 135.291 110.232 134.642 110.232 133.848C110.232 133.054 109.582 132.405 108.787 132.405H75.855C75.06 132.405 74.4102 133.054 74.4102 133.848C74.4102 134.642 75.06 135.291 75.855 135.291Z" fill="#9EC8FF"/>
<path d="M48.3483 140.807H109.428C109.87 140.807 110.231 140.446 110.231 140.005V139.988C110.231 139.547 109.87 139.186 109.428 139.186H48.3483C47.9067 139.186 47.5449 139.547 47.5449 139.988V140.005C47.547 140.446 47.9067 140.807 48.3483 140.807Z" fill="#9EC8FF"/>
<path d="M48.3483 143.948H109.428C109.87 143.948 110.231 143.587 110.231 143.145V143.129C110.231 142.687 109.87 142.326 109.428 142.326H48.3483C47.9067 142.326 47.5449 142.687 47.5449 143.129V143.145C47.547 143.587 47.9067 143.948 48.3483 143.948Z" fill="#9EC8FF"/>
<path d="M592.073 135.421H595.972C596.797 135.421 597.463 134.755 597.463 133.932V130.724C597.463 129.903 596.797 129.235 595.972 129.235H592.073C591.249 129.235 590.582 129.901 590.582 130.724V133.932C590.584 134.755 591.251 135.421 592.073 135.421Z" fill="#9EC8FF"/>
<path d="M579.565 135.421H583.464C584.289 135.421 584.955 134.755 584.955 133.932V130.724C584.955 129.903 584.289 129.235 583.464 129.235H579.565C578.741 129.235 578.074 129.901 578.074 130.724V133.932C578.076 134.755 578.743 135.421 579.565 135.421Z" fill="#9EC8FF"/>
<path d="M567.056 135.421H570.955C571.779 135.421 572.446 134.755 572.446 133.932V130.724C572.446 129.903 571.779 129.235 570.955 129.235H567.056C566.233 129.235 565.564 129.901 565.564 130.724V133.932C565.567 134.755 566.233 135.421 567.056 135.421Z" fill="#9EC8FF"/>
<path d="M35 67.5L37.1723 68.2618L32.9829 99.9864L31.0001 99.7246L35 67.5Z" fill="#E7F3FE"/>
<path d="M65.5566 50.7285L66.2189 52.9415L36.107 69.8914L35.126 68.1485L65.5566 50.7285Z" fill="#E7F3FE"/>
<path d="M37.1484 67.5497L35.9068 69.4882L5.99955 58.106L6.71093 56.2368L37.1484 67.5497Z" fill="#E7F3FE"/>
<path d="M64.6992 84.2635L63.1024 85.9217L35.9998 68.9085L37.0631 67.2146L64.6992 84.2635Z" fill="#E7F3FE"/>
</svg>
