<svg width="24" height="24" viewBox="0 0 24 24" fill="none" xmlns="http://www.w3.org/2000/svg">
<g clip-path="url(#clip0)">
<path d="M23.8555 4.40072C23.7244 4.27368 23.5367 4.23179 23.3657 4.29123L22.5564 4.5705C23.0331 3.99361 23.3849 3.39111 23.5701 2.81995C23.6239 2.65346 23.575 2.46904 23.4459 2.35054C23.3161 2.23124 23.1276 2.19746 22.9639 2.26586C21.8289 2.74179 20.8245 3.15622 20.0258 3.40415C19.9961 3.41354 19.9656 3.40945 19.935 3.39233C19.2983 3.0357 17.7045 2.2166 16.5723 2.22965C13.7091 2.28214 11.3793 4.72888 11.3793 7.68405V7.84566C7.16325 7.02943 4.83337 5.81664 2.31055 3.17006L1.91648 2.75643L1.65428 3.26407C0.284808 5.91314 1.25576 8.2874 2.8561 9.88651C2.14692 9.77781 1.63191 9.54944 1.19834 9.17123C1.03185 9.02712 0.795687 9.0092 0.610054 9.12727C0.427282 9.24371 0.343824 9.46153 0.40284 9.66912C0.941445 11.5748 2.38382 13.1397 3.90642 14.0748C3.17079 14.074 2.56542 13.9922 1.95678 13.601C1.77968 13.487 1.54925 13.4988 1.38397 13.6294C1.21992 13.7597 1.15682 13.9796 1.22682 14.177C1.96898 16.2614 3.35679 17.3577 5.65655 17.6309C4.4743 18.3222 2.94035 18.8685 0.545314 18.9186C0.311642 18.9235 0.104803 19.0753 0.0299305 19.2959C-0.0449422 19.5158 0.0234565 19.7519 0.203789 19.8968C1.65921 21.0701 4.92377 21.7708 8.93664 21.7708C16.1201 21.7708 21.9641 15.3788 21.9641 7.52201V7.384C22.8935 6.93983 23.6027 6.06336 23.9776 4.88477C24.0322 4.71297 23.9854 4.52734 23.8555 4.40072Z" fill="#3FB1B5"/>
</g>
<defs>
<clipPath id="clip0">
<rect width="24" height="24" fill="white"/>
</clipPath>
</defs>
</svg>
