<svg width="392" height="555" viewBox="0 0 392 555" fill="none" xmlns="http://www.w3.org/2000/svg">
<path opacity="0.8" d="M352.796 97.9599C313.24 39.9001 245.516 2.72085 177.147 5.32196C108.778 7.92308 42.4619 51.9512 14.5796 116.931C-4.49395 161.389 -4.80431 216.394 13.3621 261.258C15.0332 265.41 16.752 269.443 18.4469 273.356C34.9423 311.633 50.5306 340.675 38.1411 386.875C30.3112 416.06 7.08387 440.926 2.93018 470.397C-1.19965 499.63 17.8022 528.6 42.987 542.298C68.1718 555.971 98.0593 556.854 126.228 553.06C214.005 541.2 295.073 484.333 338.544 404.128C390.943 307.386 420.138 196.802 352.796 97.9599Z" fill="#F6E0D9" fill-opacity="0.9"/>
<path d="M30.5741 406.681C30.1922 407.493 29.7862 408.304 29.4043 409.116C131.623 405.512 234.798 404.653 337.184 406.586C337.614 405.798 338.043 405.011 338.473 404.223C236.087 402.266 132.865 403.102 30.5741 406.681Z" fill="#C3E5DE"/>
<path d="M14.4629 437.442C120.382 432.311 227.256 424.389 333.056 413.793C333.557 412.958 334.059 412.099 334.56 411.24C228.689 421.883 121.743 429.853 15.728 435.008C15.2983 435.795 14.8687 436.63 14.4629 437.442Z" fill="#C3E5DE"/>
<path d="M69.174 443.932C68.5056 443.956 68.0043 444.529 68.0282 445.173C68.052 445.818 68.4816 446.319 69.2694 446.319C148.882 442.739 229.258 443.359 309.062 448.18C309.683 447.417 310.279 446.653 310.9 445.889C230.452 440.997 149.407 440.329 69.174 443.932Z" fill="#C3E5DE"/>
<path d="M3.55078 490.681C3.71788 491.468 3.88492 492.256 4.07589 493.043C90.4919 490.657 177.767 490.514 264.374 492.638C265.329 491.874 266.284 491.11 267.215 490.323C179.51 488.127 91.1126 488.247 3.55078 490.681Z" fill="#C3E5DE"/>
<path d="M32.5332 535.52C33.5119 536.26 34.4908 537 35.4934 537.716C44.4692 537.095 53.3734 536.475 62.206 535.854C112.671 532.322 163.995 528.743 216.131 524.209C217.922 523.278 219.712 522.324 221.503 521.345C167.481 526.118 114.318 529.841 62.0628 533.468C52.2992 534.136 42.44 534.828 32.5332 535.52Z" fill="#C3E5DE"/>
<path d="M14.8177 516.788C81.4439 516.645 160.507 515.857 237.972 511.585C239.332 510.726 240.669 509.843 242.006 508.96C162.656 513.471 81.3724 514.258 13.2422 514.401C13.7674 515.213 14.2686 516 14.8177 516.788Z" fill="#C3E5DE"/>
<path d="M157.712 478.176C156.614 463.5 154.657 449.492 150.479 435.15C145.442 435.103 120.95 438.921 120.95 438.921C120.95 438.921 124.005 447.321 124.602 449.874C125.629 454.217 125.533 458.823 124.22 463.094C122.454 468.893 118.491 474 113.383 477.245C112.022 478.105 110.589 478.844 109.086 479.417C106.316 480.491 103.309 481.087 100.826 482.734C98.3433 484.381 96.4574 487.507 97.5078 490.299C98.8685 493.95 107.653 494.308 107.653 494.308L156.996 494.332C156.996 494.332 158.214 484.834 157.712 478.176Z" fill="#3D4040"/>
<path d="M157.806 485.359C137.515 486.147 116.938 486.195 96.6469 485.526H96.623C96.1456 485.526 95.7397 485.908 95.7158 486.386C95.692 486.887 96.0978 487.293 96.5752 487.317C105.933 487.627 115.338 487.77 124.768 487.77C135.82 487.77 146.897 487.555 157.854 487.126C158.355 487.102 158.737 486.696 158.714 486.195C158.714 485.717 158.308 485.311 157.806 485.359Z" fill="#91655F"/>
<path d="M203.428 480.944C200.826 478.081 197.46 477.007 197.292 472.425C196.958 461.782 197.292 438.467 197.292 438.467L167.429 439.279C168.145 439.231 167.644 470.015 167.62 470.468C167.572 471.733 167.381 472.998 166.76 474.072C165.567 476.148 162.893 477.723 160.793 478.868C152.509 483.307 153.894 494.356 153.894 494.356H207.319C207.319 494.332 208.178 486.171 203.428 480.944Z" fill="#3D4040"/>
<path d="M208.606 485.98C201.659 478.868 191.967 474.453 182.061 473.833C176.427 473.475 170.674 474.43 165.732 476.315C166.401 475.599 166.997 474.74 167.499 473.738C168.836 470.993 168.692 462.522 168.358 450.852C168.215 446.056 168.096 441.522 168.239 439.136C168.263 438.634 167.904 438.229 167.403 438.181C166.854 438.109 166.472 438.515 166.448 439.016C166.281 441.498 166.401 445.865 166.544 450.9C166.783 459.133 167.093 470.397 165.852 472.95C164.73 475.265 162.987 476.458 160.982 477.842C159.502 478.844 157.974 479.894 156.589 481.493C153.08 485.502 152.555 488.939 152.794 494.666C152.818 495.143 153.199 495.525 153.701 495.525H153.725C154.226 495.501 154.608 495.095 154.584 494.594C154.393 489.702 154.871 487.03 156.589 484.428C156.685 484.381 156.756 484.309 156.828 484.237C161.578 478.653 172.13 475.05 181.917 475.647C191.394 476.243 200.657 480.467 207.293 487.244C207.46 487.435 207.699 487.507 207.938 487.507C208.152 487.507 208.391 487.411 208.558 487.244C208.94 486.91 208.94 486.337 208.606 485.98Z" fill="#91655F"/>
<path d="M202.734 245.078C201.708 236.32 200.347 212.838 188.984 196.11C183.517 188.044 140.524 189.715 135.678 190.812C126.225 192.912 117.989 200.668 113.119 218.804C108.011 236.821 99.8228 271.089 89.9876 307.29C85.0939 325.259 81.537 334.136 90.4411 362.128C99.7034 391.265 117.178 439.493 120.018 460.66C128.684 462.832 146.659 461.591 159.431 460.326C159.502 461.734 159.598 463.166 159.669 464.622C174.9 467.533 205.694 465.6 205.742 463.047C206.697 411.669 207.652 287.435 202.734 245.078ZM134.031 337.024C134.031 337.024 139.737 323.422 147.376 305.023C151.41 338.265 153.749 366.161 156.59 412.48C146.635 377.973 134.031 337.024 134.031 337.024Z" fill="#91655F"/>
<path d="M188.028 224.054C187.933 223.577 187.455 223.243 186.978 223.338L165.756 227.228C165.279 227.324 164.944 227.777 165.04 228.278C165.111 228.708 165.493 229.018 165.923 229.018C165.971 229.018 166.019 229.018 166.09 228.994L187.312 225.104C187.79 225.009 188.124 224.531 188.028 224.054Z" fill="#3D4040"/>
<path d="M158.094 422.503C154.752 367.187 152.102 323.493 141.503 257.487C141.431 257.01 140.978 256.652 140.476 256.747C139.999 256.819 139.665 257.296 139.736 257.773C150.335 323.708 152.961 367.354 156.303 422.622C157.115 435.986 157.974 450.065 158.977 465.338C159.001 465.815 159.407 466.173 159.86 466.173C159.884 466.173 159.908 466.173 159.908 466.173C160.409 466.149 160.767 465.719 160.743 465.218C159.741 449.946 158.905 435.866 158.094 422.503Z" fill="#3D4040"/>
<path d="M199.771 114.211C194.471 108.101 188.312 107.171 180.793 106.359C179.862 106.264 178.931 106.145 178 106.025C170.623 105.119 163.271 103.878 155.799 103.544C150.428 103.305 143.553 102.875 137.107 103.663C136.487 103.591 135.89 103.544 135.293 103.544C102.207 103.162 92.4909 146.975 91.5599 172.843C91.2974 180.384 129.397 212.91 129.397 212.91C129.397 212.91 171.722 220.856 195.88 209.831C198.912 208.447 196.93 200.907 198.506 195.108C202.826 179.286 204.665 174.871 207.839 158.62C211.062 142.083 209.367 128.099 199.771 114.211Z" fill="#7CA4D6"/>
<path d="M144.176 75.5999C144.2 85.4078 153.796 94.0941 163.56 93.1396C173.323 92.185 181.082 81.8521 179.244 72.2113C175.4 51.8796 144.152 54.958 144.176 75.5999Z" fill="#ECCC9D"/>
<path d="M144.581 63.262C145.942 60.4223 148.377 57.7735 150.693 56.2701C154.703 53.6689 160.934 51.8792 165.565 52.8337C172.344 54.2178 178.241 58.6564 180.938 65.3382C182.204 68.4882 182.18 72.712 181.654 76.0767C181.511 76.9835 179.554 84.3096 178.742 83.9755C173.108 81.5892 167.857 78.2483 163.297 74.1677C159.979 71.2086 156.804 67.3188 157.043 62.8802C152.937 65.9348 148.234 66.9132 143.865 69.2279C143.173 67.5336 143.818 64.8848 144.581 63.262Z" fill="#3D4040"/>
<path d="M173.515 450.09C168.597 450.09 163.703 449.971 158.81 449.756C158.308 449.732 157.926 449.326 157.95 448.825C157.974 448.324 158.308 447.942 158.881 447.965C174.565 448.658 190.44 448.228 206.052 446.676C206.553 446.605 206.983 446.987 207.031 447.488C207.078 447.989 206.72 448.419 206.219 448.467C195.405 449.565 184.448 450.09 173.515 450.09Z" fill="#3D4040"/>
<path d="M133.411 446.916C127.706 446.916 121.953 446.701 115.937 446.2C115.436 446.152 115.078 445.722 115.125 445.245C115.173 444.744 115.555 444.362 116.104 444.433C130.57 445.627 143.437 445.173 158.286 444.075C158.763 444.051 159.217 444.41 159.24 444.911C159.264 445.412 158.906 445.842 158.405 445.866C149.62 446.486 141.528 446.916 133.411 446.916Z" fill="#3D4040"/>
<path d="M204.429 104.403C200.395 99.4152 194.88 95.2391 195.071 88.1994C195.143 85.3119 191.586 84.3096 190.249 86.8153C188.912 89.2971 188.387 92.113 188.363 94.9289C188.339 96.7902 188.53 98.6516 188.841 100.441C189.581 104.713 191.729 108.746 194.952 111.681C197.673 114.163 206.936 119.413 210.182 116C212.569 113.519 205.814 106.097 204.429 104.403Z" fill="#ECCC9D"/>
<path d="M199.82 64.1457L205.334 62.1173C206.217 61.7833 207.124 62.5469 206.981 63.4776L200.13 105.119L193.685 100.991C192.706 100.347 192.205 99.2012 192.396 98.0319L198.364 65.8639C198.507 65.1003 199.056 64.4321 199.82 64.1457Z" fill="#3D4040"/>
<path d="M210.515 107.433C209.273 104.188 208.438 102.231 208.557 98.7709C208.605 97.4107 208.843 95.7403 209.011 94.0459C209.058 93.7596 209.13 93.4494 209.178 93.163C209.918 89.3687 211.254 85.5506 211.326 81.6847C211.35 79.9665 211.231 77.3415 210.109 75.9575C209.13 74.7643 207.817 73.9052 206.504 73.07C204.093 71.5427 201.133 70.5643 198.244 70.3495C197.099 70.2541 195.714 70.7314 194.878 71.5188C194.043 72.3302 193.756 74.0961 194.401 75.0506C194.998 75.9336 196.144 76.1961 197.146 76.5063C197.409 76.6018 197.671 76.6972 197.934 76.7927C196.072 76.4109 193.661 77.3415 192.754 78.9881C191.799 80.7301 193.303 83.4506 195.26 83.0449C193.828 84.3097 193.231 86.4335 193.78 88.2471C194.091 89.2733 194.735 90.0369 195.451 90.7528C196.621 91.8744 198.029 92.8528 198.626 94.4994C199.82 97.7209 197.815 100.489 197.743 103.711C197.648 107.767 200.799 110.655 202.446 114.044C203.95 117.146 206.838 122.611 206.838 122.611L215.719 115.881C215.79 115.881 211.66 110.392 210.515 107.433Z" fill="#ECCC9D"/>
<path d="M193.782 82.2818C193.305 82.425 193.042 82.9023 193.161 83.3796C193.305 83.8569 193.782 84.1195 194.259 84.0001C196.432 83.3796 201.23 84.2149 202.042 86.9833C202.161 87.3651 202.519 87.6277 202.901 87.6277C202.997 87.6277 203.068 87.6277 203.164 87.5799C203.641 87.4367 203.904 86.9356 203.761 86.4583C202.591 82.4489 196.647 81.4704 193.782 82.2818Z" fill="#3D4040"/>
<path d="M206.816 79.5135C204.143 75.7666 199.44 74.0483 195.382 75.3132C194.904 75.4564 194.642 75.9575 194.785 76.4348C194.928 76.9121 195.43 77.1747 195.907 77.0315C199.249 76.0053 203.14 77.4372 205.36 80.5635C205.527 80.8022 205.814 80.9454 206.076 80.9454C206.267 80.9454 206.435 80.8977 206.602 80.7783C207.031 80.4681 207.103 79.9192 206.816 79.5135Z" fill="#3D4040"/>
<path d="M195.622 138.289C194.142 131.345 192.734 124.376 191.302 117.432C190.633 114.163 203.93 110.44 205.935 109.724C209.349 108.531 212.786 107.386 216.248 106.336C221.691 104.689 221.715 105.763 223.791 111.442C230.929 130.796 236.42 150.722 240.191 171.006C241.838 179.835 243.939 186.779 239.451 194.845C235.632 201.742 229.186 206.872 220.903 204.486C213.001 202.219 209.397 193.27 207.105 185.395C202.593 169.86 198.965 154.11 195.622 138.289Z" fill="#7CA4D6"/>
<path d="M122.909 126.691C122.432 126.524 121.93 126.787 121.763 127.24C117.681 139.172 115.437 162.725 118.66 175.229C118.755 175.635 119.137 175.898 119.519 175.898C119.591 175.898 119.663 175.898 119.734 175.874C120.212 175.754 120.498 175.253 120.379 174.776C117.275 162.749 119.519 139.267 123.434 127.813C123.625 127.359 123.387 126.858 122.909 126.691Z" fill="#3D4040"/>
<path d="M171.562 103.854C171.18 103.544 170.607 103.615 170.296 103.997C165.88 109.653 158.719 116.764 154.398 120.916C150.745 116.191 146.783 109.223 143.918 102.446C143.727 101.992 143.202 101.778 142.748 101.969C142.295 102.16 142.08 102.685 142.271 103.138C145.327 110.321 149.576 117.718 153.419 122.563C149.456 143.73 147.857 165.302 148.549 188.521C148.573 188.999 148.955 189.38 149.456 189.38H149.48C149.982 189.357 150.363 188.951 150.34 188.45C149.647 165.278 151.247 143.73 155.233 122.587C159.53 118.482 167.098 111.013 171.729 105.095C172.015 104.713 171.944 104.14 171.562 103.854Z" fill="#3D4040"/>
<path d="M208.8 187.711C201.232 164.993 195.145 136.118 191.922 116.383C193.283 115.691 196.888 113.901 200.588 112.612C201.065 112.445 201.304 111.944 201.137 111.467C200.97 110.99 200.445 110.751 199.991 110.918C195.193 112.589 190.681 114.999 190.49 115.094C190.156 115.285 189.965 115.643 190.036 116.025C193.235 135.832 199.418 165.208 207.081 188.26C207.2 188.641 207.558 188.88 207.94 188.88C208.036 188.88 208.131 188.856 208.227 188.832C208.704 188.689 208.943 188.188 208.8 187.711Z" fill="#3D4040"/>
<path d="M105.553 216.99C104.336 215.248 102.45 214.031 100.444 213.316C96.3385 211.836 78.554 223.696 83.018 225.605C87.482 227.49 96.6249 228.707 101.328 227.371C103.572 226.727 105.696 225.247 106.508 223.052C107.248 221.071 106.77 218.733 105.553 216.99Z" fill="#ECCC9D"/>
<path d="M60.1484 216.728L101.304 201.408L169.434 207.755C170.198 207.827 170.436 208.829 169.768 209.235L141.169 226.25L60.1484 216.728Z" fill="#3D4040"/>
<path d="M141.002 226.607L58.5251 217.539C58.1432 217.492 57.809 217.229 57.7136 216.847L42.4355 165.422C42.2446 164.777 42.746 164.157 43.4144 164.181L127.372 168.691C128.875 168.762 130.164 169.86 130.475 171.34L142.053 225.414C142.196 226.082 141.671 226.679 141.002 226.607Z" fill="#A8AFB3"/>
<path d="M102.493 223.601C90.8201 225.605 93.2789 205.059 84.3986 208.066C82.823 208.591 81.8204 210.356 81.8921 211.931C81.9398 212.647 82.1069 213.22 81.8682 212.862C80.9372 211.526 80.603 209.76 80.1017 208.161C79.4571 206.156 77.9531 203.985 75.8524 204.128C74.2769 204.247 73.0594 205.727 72.7491 207.278C72.4149 208.829 72.7729 210.428 73.131 211.979C72.5819 209.951 71.9375 207.827 70.3858 206.395C68.8342 204.987 66.0411 204.725 64.7998 206.419C64.012 207.493 64.1075 208.972 64.3462 210.285C65.0623 214.198 66.8767 217.921 69.5026 220.904C70.4336 221.978 71.4839 222.956 72.6298 223.839C75.6615 226.178 103.687 233.242 102.493 223.601Z" fill="#ECCC9D"/>
<path d="M73.1322 208.734C73.1322 208.233 72.7264 207.875 72.225 207.851C71.7237 207.851 71.3418 208.281 71.3418 208.758C71.4373 213.101 73.2755 217.326 76.3789 220.38C76.546 220.547 76.7846 220.643 76.9994 220.643C77.2381 220.643 77.453 220.547 77.644 220.38C78.0021 220.022 77.9782 219.45 77.644 219.116C74.851 216.395 73.2277 212.624 73.1322 208.734Z" fill="#3D4040"/>
<path d="M86.9087 222.099C84.5931 218.997 83.0415 215.346 82.4447 211.503C82.3731 211.026 81.9195 210.668 81.4182 210.763C80.9169 210.835 80.6066 211.288 80.6782 211.79C81.3227 215.894 82.9938 219.832 85.4765 223.173C85.6436 223.412 85.93 223.531 86.1926 223.531C86.3836 223.531 86.5745 223.484 86.7177 223.34C87.1474 223.054 87.219 222.481 86.9087 222.099Z" fill="#3D4040"/>
<path d="M137.161 0H31.5039V56.7473H103.263L122.957 76.4585V56.7473H137.161V0Z" fill="#6890CA"/>
<path d="M105.054 58.5371C116.512 52.5951 127.302 45.3644 137.161 37.0122V34.6497C126.968 43.4553 115.7 51.0439 103.717 57.2007L105.054 58.5371Z" fill="#7BCAB3"/>
<path d="M70.3668 0H68.1707C57.9535 14.0556 45.4924 26.6078 31.5273 37.0122V39.2315C46.4234 28.3021 59.6484 14.9863 70.3668 0Z" fill="#7BCAB3"/>
<path d="M108.037 13.6499C110.496 9.1397 112.883 4.58179 115.199 0H113.193C110.735 4.82042 108.204 9.61697 105.602 14.3419C80.0832 21.7635 55.2086 31.4759 31.5039 43.3122V45.3167C54.8267 33.5998 79.2715 23.9589 104.385 16.5612C99.8013 24.7703 95.0031 32.8361 89.9422 40.7588C80.0832 46.6054 69.9375 51.9269 59.5533 56.7473H63.7548C71.9428 52.8576 79.9637 48.6337 87.7937 44.0758C85.0246 48.3474 82.1838 52.5712 79.2714 56.7473H81.4439C84.7859 51.9269 88.0324 47.0349 91.2074 42.0713C107.369 32.4543 122.766 21.501 137.137 9.30675V8.25676V6.96813V6.44313C127.373 8.49539 117.657 10.9056 108.037 13.6499ZM93.3559 38.7065C98.0586 31.2134 102.547 23.601 106.82 15.8692C116.177 13.1726 125.607 10.7863 135.108 8.71016C121.954 19.7589 107.989 29.7816 93.3559 38.7065Z" fill="#7BCAB3"/>
<path d="M349.64 153.49C349.091 151.605 348.47 149.743 347.778 147.906C341.571 154.42 333.216 157.833 325.983 162.94C318.082 168.524 311.039 175.325 305.095 182.985C293.422 198.019 285.95 216.418 284.661 235.437C283.73 249.039 285.926 262.307 288.099 275.671C288.719 279.441 286.26 308.793 285.855 308.793C287.191 308.793 288.504 308.769 289.841 308.769C289.125 308.769 292.348 289.512 292.73 287.889C295.188 277.246 298.65 268.13 306.48 260.136C312.639 253.836 319.896 248.705 326.246 242.596C349.521 220.212 358.711 184.417 349.64 153.49Z" fill="#6890CA"/>
<path d="M277.308 260.04C270.863 251.187 262.412 243.765 257.256 234.101C247.445 215.726 251.431 192.984 259.142 173.631C267.234 153.323 276.95 134.28 284.136 113.614C286.642 127.813 292.921 141.009 299.247 153.967C305.573 166.925 312.066 180.002 315.05 194.105C317.246 204.534 317.413 215.726 314.071 225.963C310.896 235.723 303.352 244.839 297.957 253.621C288.719 268.655 282.321 287.078 286.523 305.071C284.661 304.927 282.799 304.76 280.961 304.617C281.963 290.108 286.547 272.712 277.308 260.04Z" fill="#F26F61"/>
<path d="M301.49 248.801C301.514 248.729 301.514 248.657 301.538 248.61C303.089 241.021 300.965 231.929 294.4 226.989C290.652 224.173 285.042 223.147 280.507 222.408C274.968 221.525 269.287 221.859 263.749 222.646C260.717 223.076 261.553 249.206 265.086 251.974C272.868 258.06 277.69 267.366 279.838 277.007C281.987 286.648 281.7 296.671 280.746 306.502C280.746 306.479 286.069 307.266 286.618 307.29C286.427 307.266 287.621 294.117 287.764 293.02C288.599 287.054 290.414 281.279 292.467 275.623C295.665 266.746 299.557 258.06 301.49 248.801Z" fill="#00B282"/>
<path d="M231.475 242.859C229.637 252.308 231.022 262.713 232.717 271.757C234.913 283.45 238.136 295.072 238.112 306.98C244.032 294.594 254.321 284.882 264.92 276.196C270.673 271.471 276.76 266.531 280.794 260.112C282.8 256.938 284.375 253.358 284.996 249.66C285.784 245.054 285.354 240.329 285.545 235.699C285.641 233.48 285.808 231.07 287.264 229.423C288.624 227.896 290.892 227.371 292.921 227.753C294.95 228.135 296.645 229.662 298.197 231.022C297.266 230.187 294.807 224.46 284.686 222.36C275.71 220.498 263.464 219.615 254.464 220.904C250.692 221.453 247.302 221.692 243.865 223.553C236.799 227.371 232.979 235.198 231.475 242.859Z" fill="#7BCAB3"/>
<path d="M305.262 411.693C318.797 394.463 325.553 370.91 322.426 349.146C320.444 335.377 315.145 323.422 307.315 312.063C304.426 307.863 298.387 303.925 300.225 297.339C300.583 296.05 303.662 292.709 303.901 291.373C304.116 290.06 304.307 287.817 301.538 287.603C295.641 287.173 275.518 286.815 269.406 287.197C267.831 287.292 265.849 290.347 267.831 292.327C268.953 293.449 271.722 295.263 272.104 296.79C273.154 300.99 270.051 304.474 268.953 306.765C267.401 309.963 264.035 314.401 262.388 317.527C257.996 325.903 254.868 332.37 252.147 341.892C249.091 352.607 247.969 363.894 249.808 374.919C251.717 386.278 256.85 396.157 263.128 405.679C264.966 408.471 270.194 415.248 270.194 415.248C270.194 415.248 270.337 419.377 269.979 422.097C274.825 422.431 301.323 422.765 301.347 423.123C301.753 420.952 301.204 418.828 301.371 416.608C301.466 415.463 304.498 412.647 305.262 411.693Z" fill="#7BCAB3"/>
<path d="M308.51 313.805C308.152 313.28 307.817 312.755 307.459 312.23C292.372 332.06 272.105 347.834 249.188 357.618C249.14 358.286 249.069 358.954 249.045 359.622C272.415 349.838 293.089 333.921 308.51 313.805Z" fill="#91655F"/>
<path d="M317.866 331.702C298.65 350.053 274.825 363.488 249.211 370.552C249.259 371.148 249.33 371.745 249.402 372.342C275.16 365.278 299.103 351.843 318.535 333.516C318.344 332.919 318.105 332.299 317.866 331.702Z" fill="#91655F"/>
<path d="M251.096 380.837C251.263 381.434 251.43 382.054 251.621 382.651C253.101 382.698 254.605 382.722 256.085 382.722C279.503 382.722 302.85 376.375 323.021 364.443C323.069 363.727 323.093 363.011 323.117 362.295C301.585 375.325 276.28 381.815 251.096 380.837Z" fill="#91655F"/>
</svg>
