<?xml version="1.0" encoding="UTF-8" standalone="no"?><!DOCTYPE svg PUBLIC "-//W3C//DTD SVG 1.1//EN" "http://www.w3.org/Graphics/SVG/1.1/DTD/svg11.dtd"><svg width="100%" height="100%" viewBox="0 0 20 18" version="1.1" xmlns="http://www.w3.org/2000/svg" xmlns:xlink="http://www.w3.org/1999/xlink" xml:space="preserve" xmlns:serif="http://www.serif.com/" style="fill-rule:evenodd;clip-rule:evenodd;stroke-linejoin:round;stroke-miterlimit:1.41421;"><g id="Layer6"><path d="M1.565,3.05c0.243,0.038 0.41,0.219 0.423,0.459l0.015,12.913c-0.027,0.523 -0.91,0.612 -0.944,0.001l-0.015,-12.913c0.015,-0.274 0.117,-0.48 0.521,-0.46Z" style="fill:#3f4855;fill-rule:nonzero;"/><path d="M8.997,3.05c0.233,0.035 0.25,0.052 0.366,0.231l1.75,3.056l7.468,-0.001c0.241,0.039 0.407,0.212 0.419,0.442l-0.029,3.786c-0.021,0.311 -0.158,0.352 -0.288,0.403c-0.29,0.115 -0.638,-0.085 -0.656,-0.41l0.026,-3.34l-7.279,0c-0.236,-0.04 -0.244,-0.054 -0.36,-0.23l-1.749,-3.055l-7.185,0.016c-0.829,-0.134 -0.431,-0.853 0.052,-0.881c2.488,-0.006 4.98,-0.136 7.465,-0.017Z" style="fill:#3f4855;fill-rule:nonzero;"/><path d="M11.974,15.991c0.485,0.063 0.54,0.843 0.005,0.918c-3.471,0.176 -6.952,0.039 -10.428,0.058c-0.502,-0.02 -0.569,-0.847 -0.048,-0.921c3.486,-0.176 6.984,-0.194 10.471,-0.055Z" style="fill:#3f4855;fill-rule:nonzero;"/><path d="M16.485,12c0.23,0.02 0.412,0.184 0.434,0.393c0.049,1.417 0.049,2.835 0,4.252c-0.044,0.422 -0.872,0.522 -0.926,0c-0.049,-1.417 -0.049,-2.835 0,-4.252c0.023,-0.223 0.221,-0.4 0.492,-0.393Z" style="fill:#3f4855;fill-rule:nonzero;"/><path d="M18.642,14.037c0.426,0.044 0.526,0.872 0,0.926c-1.427,0.049 -2.857,0.049 -4.284,0c-0.426,-0.044 -0.526,-0.872 0,-0.926c1.427,-0.049 2.857,-0.049 4.284,0Z" style="fill:#3f4855;fill-rule:nonzero;"/></g></svg>