<?xml version="1.0" encoding="UTF-8" standalone="no"?><!DOCTYPE svg PUBLIC "-//W3C//DTD SVG 1.1//EN" "http://www.w3.org/Graphics/SVG/1.1/DTD/svg11.dtd"><svg width="100%" height="100%" viewBox="0 0 20 18" version="1.1" xmlns="http://www.w3.org/2000/svg" xmlns:xlink="http://www.w3.org/1999/xlink" xml:space="preserve" xmlns:serif="http://www.serif.com/" style="fill-rule:evenodd;clip-rule:evenodd;stroke-linejoin:round;stroke-miterlimit:1.41421;"><g id="Layer6"><path d="M14.485,12c0.23,0.02 0.412,0.184 0.434,0.393c0.049,1.417 0.049,2.835 0,4.252c-0.044,0.422 -0.872,0.522 -0.926,0c-0.049,-1.417 -0.049,-2.835 0,-4.252c0.023,-0.223 0.221,-0.4 0.492,-0.393Z" style="fill:#3f4855;fill-rule:nonzero;"/><path d="M16.642,14.037c0.426,0.044 0.526,0.872 0,0.926c-1.427,0.049 -2.857,0.049 -4.284,0c-0.426,-0.044 -0.526,-0.872 0,-0.926c1.427,-0.049 2.857,-0.049 4.284,0Z" style="fill:#3f4855;fill-rule:nonzero;"/><path d="M3.521,6.001c0.243,0.03 0.41,0.174 0.423,0.365l0.015,10.294c-0.027,0.417 -0.911,0.488 -0.944,0.001l-0.015,-10.294c0.014,-0.218 0.117,-0.382 0.521,-0.366Z" style="fill:#3f4855;fill-rule:nonzero;"/><path d="M15.521,1.05c0.243,0.018 0.41,0.11 0.423,0.232l0.015,6.55c-0.027,0.266 -0.911,0.311 -0.944,0.001l-0.015,-6.55c0.014,-0.139 0.117,-0.244 0.521,-0.233Z" style="fill:#3f4855;fill-rule:nonzero;"/><path d="M8.521,1.049c0.243,0.017 0.41,0.095 0.423,0.2l0.015,5.614c-0.027,0.228 -0.911,0.267 -0.944,0.001l-0.015,-5.615c0.014,-0.119 0.117,-0.208 0.521,-0.2Z" style="fill:#3f4855;fill-rule:nonzero;"/><path d="M10.823,16.084c0.346,0.057 0.385,0.765 0.004,0.834c-2.476,0.159 -4.958,0.035 -7.437,0.052c-0.358,-0.019 -0.407,-0.769 -0.035,-0.836c2.486,-0.16 4.981,-0.177 7.468,-0.05Z" style="fill:#3f4855;fill-rule:nonzero;"/><path d="M15.725,1.084c0.346,0.057 0.385,0.765 0.004,0.834c-2.476,0.159 -4.958,0.035 -7.437,0.052c-0.358,-0.019 -0.406,-0.769 -0.035,-0.836c2.486,-0.16 4.981,-0.177 7.468,-0.05Z" style="fill:#3f4855;fill-rule:nonzero;"/><path d="M8.044,1.484c0.261,-0.163 0.766,0.335 0.567,0.611c-1.486,1.584 -3.168,2.964 -4.753,4.446c-0.243,0.198 -0.782,-0.325 -0.588,-0.595c1.492,-1.591 3.087,-3.081 4.774,-4.462Z" style="fill:#3f4855;fill-rule:nonzero;"/><path d="M8.794,6.084c0.259,0.057 0.289,0.765 0.003,0.834c-1.857,0.159 -3.719,0.035 -5.578,0.052c-0.269,-0.019 -0.305,-0.769 -0.026,-0.836c1.864,-0.16 3.735,-0.177 5.601,-0.05Z" style="fill:#3f4855;fill-rule:nonzero;"/></g></svg>