<svg width="35" height="25" viewBox="0 0 35 25" fill="none" xmlns="http://www.w3.org/2000/svg">
<g clip-path="url(#clip0)">
<path d="M34.2708 11.9788H0.729189C0.326689 11.9788 0 12.2121 0 12.4996C0 12.7871 0.326689 13.0205 0.729189 13.0205H34.2709C34.6734 13.0205 35 12.7871 35 12.4996C35 12.2121 34.6733 11.9788 34.2708 11.9788Z" fill="white"/>
<path d="M34.8507 12.1319L26.7348 3.79858C26.5369 3.59546 26.2153 3.59546 26.0175 3.79858C25.8197 4.00171 25.8197 4.33193 26.0175 4.53506L34.1335 12.8684C34.2329 12.9694 34.3627 13.0205 34.4926 13.0205C34.6225 13.0205 34.7523 12.9695 34.8507 12.8684C35.0486 12.6652 35.0486 12.335 34.8507 12.1319Z" fill="white"/>
<path d="M34.8507 12.1318C34.6529 11.9287 34.3313 11.9287 34.1334 12.1318L26.0175 20.4652C25.8197 20.6683 25.8197 20.9985 26.0175 21.2017C26.1169 21.3027 26.2468 21.3538 26.3766 21.3538C26.5065 21.3538 26.6363 21.3027 26.7348 21.2017L34.8507 12.8683C35.0485 12.6652 35.0485 12.335 34.8507 12.1318Z" fill="white"/>
</g>
<defs>
<clipPath id="clip0">
<rect width="35" height="25" fill="white"/>
</clipPath>
</defs>
</svg>
