<svg width="46" height="32" viewBox="0 0 46 32" fill="none" xmlns="http://www.w3.org/2000/svg">
<g clip-path="url(#clip0)">
<path d="M45.0416 15.333H0.958363C0.429363 15.333 0 15.6317 0 15.9997C0 16.3677 0.429363 16.6664 0.958363 16.6664H45.0417C45.5707 16.6664 46.0001 16.3677 46.0001 15.9997C46.0001 15.6317 45.5706 15.333 45.0416 15.333Z" fill="#1B2437"/>
<path d="M45.8044 15.5286L35.1377 4.86199C34.8777 4.60199 34.455 4.60199 34.195 4.86199C33.935 5.12199 33.935 5.54468 34.195 5.80468L44.8617 16.4714C44.9924 16.6007 45.163 16.6661 45.3337 16.6661C45.5044 16.6661 45.675 16.6008 45.8044 16.4714C46.0644 16.2113 46.0644 15.7886 45.8044 15.5286Z" fill="#1B2437"/>
<path d="M45.8043 15.529C45.5443 15.269 45.1216 15.269 44.8616 15.529L34.195 26.1957C33.935 26.4557 33.935 26.8784 34.195 27.1384C34.3257 27.2677 34.4963 27.333 34.667 27.333C34.8377 27.333 35.0083 27.2677 35.1377 27.1384L45.8044 16.4717C46.0643 16.2117 46.0643 15.789 45.8043 15.529Z" fill="#1B2437"/>
</g>
<defs>
<clipPath id="clip0">
<rect width="46" height="32" fill="white"/>
</clipPath>
</defs>
</svg>
