<?xml version="1.0" encoding="UTF-8" standalone="no"?><!DOCTYPE svg PUBLIC "-//W3C//DTD SVG 1.1//EN" "http://www.w3.org/Graphics/SVG/1.1/DTD/svg11.dtd"><svg width="100%" height="100%" viewBox="0 0 18 22" version="1.1" xmlns="http://www.w3.org/2000/svg" xmlns:xlink="http://www.w3.org/1999/xlink" xml:space="preserve" xmlns:serif="http://www.serif.com/" style="fill-rule:evenodd;clip-rule:evenodd;stroke-linejoin:round;stroke-miterlimit:1.41421;"><g id="Word"><g><path d="M2,0l11,0l5,5l0,15c0,1.104 -0.896,2 -2,2l-14,0c-1.104,0 -2,-0.896 -2,-2l0,-18c0,-1.104 0.896,-2 2,-2Z" style="fill:#fff;"/><path d="M18,5l0,15l-0.001,0.052l-0.002,0.051l-0.003,0.051l-0.004,0.05l-0.006,0.051l-0.007,0.049l-0.008,0.05l-0.01,0.049l-0.01,0.048l-0.012,0.049l-0.013,0.047l-0.014,0.047l-0.015,0.047l-0.016,0.046l-0.018,0.046l-0.018,0.045l-0.02,0.045l-0.02,0.044l-0.022,0.043l-0.023,0.043l-0.023,0.042l-0.025,0.042l-0.025,0.041l-0.027,0.04l-0.027,0.039l-0.029,0.039l-0.029,0.038l-0.03,0.038l-0.031,0.037l-0.032,0.035l-0.033,0.036l-0.033,0.034l-0.034,0.033l-0.036,0.033l-0.035,0.032l-0.037,0.031l-0.038,0.03l-0.038,0.029l-0.039,0.029l-0.039,0.027l-0.04,0.027l-0.041,0.025l-0.042,0.025l-0.042,0.023l-0.043,0.023l-0.043,0.022l-0.044,0.02l-0.045,0.02l-0.045,0.018l-0.046,0.018l-0.046,0.016l-0.047,0.015l-0.047,0.014l-0.047,0.013l-0.049,0.012l-0.048,0.01l-0.049,0.01l-0.05,0.008l-0.049,0.007l-0.051,0.006l-0.05,0.004l-0.051,0.003l-0.051,0.002l-0.052,0.001l-14,0l-0.052,-0.001l-0.051,-0.002l-0.051,-0.003l-0.05,-0.004l-0.051,-0.006l-0.049,-0.007l-0.05,-0.008l-0.049,-0.01l-0.048,-0.01l-0.049,-0.012l-0.047,-0.013l-0.047,-0.014l-0.047,-0.015l-0.046,-0.016l-0.046,-0.018l-0.045,-0.018l-0.045,-0.02l-0.044,-0.02l-0.043,-0.022l-0.043,-0.023l-0.042,-0.023l-0.042,-0.025l-0.041,-0.025l-0.04,-0.027l-0.039,-0.027l-0.039,-0.029l-0.038,-0.029l-0.038,-0.03l-0.037,-0.031l-0.035,-0.032l-0.036,-0.033l-0.034,-0.033l-0.033,-0.034l-0.033,-0.036l-0.032,-0.035l-0.031,-0.037l-0.03,-0.038l-0.029,-0.038l-0.029,-0.039l-0.027,-0.039l-0.027,-0.04l-0.025,-0.041l-0.025,-0.042l-0.023,-0.042l-0.023,-0.043l-0.022,-0.043l-0.02,-0.044l-0.02,-0.045l-0.018,-0.045l-0.018,-0.046l-0.016,-0.046l-0.015,-0.047l-0.014,-0.047l-0.013,-0.047l-0.012,-0.049l-0.01,-0.048l-0.01,-0.049l-0.008,-0.05l-0.007,-0.049l-0.006,-0.051l-0.004,-0.05l-0.003,-0.051l-0.002,-0.051l-0.001,-0.052l0,-18l0.001,-0.052l0.002,-0.051l0.003,-0.051l0.004,-0.05l0.006,-0.051l0.007,-0.049l0.008,-0.05l0.01,-0.049l0.01,-0.048l0.012,-0.049l0.013,-0.047l0.014,-0.047l0.015,-0.047l0.016,-0.046l0.018,-0.046l0.018,-0.045l0.02,-0.045l0.02,-0.044l0.022,-0.043l0.023,-0.043l0.023,-0.042l0.025,-0.042l0.025,-0.041l0.027,-0.04l0.027,-0.039l0.029,-0.039l0.029,-0.038l0.03,-0.038l0.031,-0.037l0.032,-0.035l0.033,-0.036l0.033,-0.034l0.034,-0.033l0.036,-0.033l0.035,-0.032l0.037,-0.031l0.038,-0.03l0.038,-0.029l0.039,-0.029l0.039,-0.027l0.04,-0.027l0.041,-0.025l0.042,-0.025l0.042,-0.023l0.043,-0.023l0.043,-0.022l0.044,-0.02l0.045,-0.02l0.045,-0.018l0.046,-0.018l0.046,-0.016l0.047,-0.015l0.047,-0.014l0.047,-0.013l0.049,-0.012l0.048,-0.01l0.049,-0.01l0.05,-0.008l0.049,-0.007l0.051,-0.006l0.05,-0.004l0.051,-0.003l0.051,-0.002l0.052,-0.001l11,0l5,5Zm-16.033,-4.25l-0.032,0.002l-0.032,0.002l-0.031,0.003l-0.032,0.003l-0.031,0.005l-0.031,0.005l-0.03,0.005l-0.031,0.007l-0.03,0.007l-0.029,0.008l-0.03,0.009l-0.029,0.01l-0.028,0.01l-0.029,0.011l-0.028,0.011l-0.028,0.012l-0.027,0.013l-0.027,0.013l-0.027,0.015l-0.026,0.014l-0.026,0.016l-0.026,0.016l-0.025,0.016l-0.025,0.017l-0.024,0.018l-0.024,0.019l-0.023,0.018l-0.023,0.02l-0.023,0.02l-0.022,0.02l-0.022,0.021l-0.021,0.022l-0.02,0.022l-0.02,0.023l-0.02,0.023l-0.019,0.023l-0.018,0.024l-0.018,0.024l-0.017,0.025l-0.016,0.025l-0.016,0.026l-0.016,0.026l-0.014,0.026l-0.015,0.027l-0.013,0.027l-0.013,0.027l-0.012,0.028l-0.011,0.028l-0.011,0.029l-0.01,0.028l-0.01,0.029l-0.009,0.03l-0.008,0.029l-0.007,0.03l-0.007,0.031l-0.005,0.03l-0.006,0.031l-0.004,0.031l-0.003,0.032l-0.003,0.031l-0.002,0.032l-0.002,0.032l0,0.038l0,17.99l0,0.038l0.002,0.032l0.002,0.032l0.003,0.031l0.003,0.032l0.004,0.031l0.006,0.031l0.005,0.03l0.007,0.031l0.007,0.03l0.008,0.029l0.009,0.03l0.01,0.029l0.01,0.028l0.011,0.029l0.011,0.028l0.012,0.028l0.013,0.027l0.013,0.027l0.015,0.027l0.014,0.026l0.016,0.026l0.016,0.026l0.016,0.025l0.017,0.025l0.018,0.024l0.018,0.024l0.019,0.023l0.02,0.023l0.02,0.023l0.02,0.022l0.021,0.022l0.022,0.021l0.022,0.02l0.023,0.02l0.023,0.02l0.023,0.019l0.024,0.018l0.024,0.018l0.025,0.017l0.025,0.016l0.026,0.016l0.026,0.016l0.026,0.014l0.027,0.015l0.027,0.013l0.027,0.013l0.028,0.012l0.028,0.011l0.029,0.011l0.028,0.01l0.029,0.01l0.03,0.009l0.029,0.008l0.03,0.007l0.031,0.007l0.03,0.005l0.031,0.006l0.031,0.004l0.031,0.003l0.032,0.003l0.032,0.002l0.032,0.002l0.038,0l13.99,0l0.038,0l0.032,-0.002l0.032,-0.002l0.032,-0.003l0.031,-0.003l0.031,-0.004l0.031,-0.006l0.03,-0.005l0.031,-0.007l0.03,-0.007l0.029,-0.008l0.03,-0.009l0.029,-0.01l0.028,-0.01l0.029,-0.011l0.028,-0.011l0.028,-0.012l0.027,-0.013l0.027,-0.013l0.027,-0.015l0.026,-0.014l0.026,-0.016l0.026,-0.016l0.025,-0.016l0.025,-0.017l0.024,-0.018l0.024,-0.018l0.023,-0.019l0.023,-0.02l0.023,-0.02l0.022,-0.02l0.022,-0.021l0.021,-0.022l0.02,-0.022l0.02,-0.023l0.02,-0.023l0.019,-0.023l0.018,-0.024l0.018,-0.024l0.017,-0.025l0.016,-0.025l0.016,-0.026l0.016,-0.026l0.014,-0.026l0.015,-0.027l0.013,-0.027l0.013,-0.027l0.012,-0.028l0.011,-0.028l0.011,-0.029l0.01,-0.028l0.01,-0.029l0.009,-0.03l0.008,-0.029l0.007,-0.03l0.007,-0.031l0.005,-0.03l0.006,-0.031l0.004,-0.031l0.003,-0.031l0.003,-0.032l0.002,-0.032l0.002,-0.032l0,-0.038l0,-14.684l-4.561,-4.561l-10.684,0l-0.038,0Z" style="fill:#666;"/></g><path d="M14.4,6c-1.325,0 -2.4,-1.075 -2.4,-2.4l0,-3.6l6,6l-3.6,0Z" style="fill:#666;"/><rect x="3" y="8" width="12" height="1" style="fill:#666;"/><rect x="3" y="17" width="12" height="1" style="fill:#666;"/><rect x="3" y="14" width="12" height="1" style="fill:#666;"/><rect x="3" y="11" width="12" height="1" style="fill:#666;"/><rect x="2" y="8.005" width="1" height="10" style="fill:#fff;"/></g></svg>