<svg width="24" height="24" viewBox="0 0 24 24" fill="none" xmlns="http://www.w3.org/2000/svg">
<g clip-path="url(#clip0)">
<path d="M3.2232 0.196777H3.22039C2.36441 0.196777 1.55718 0.529588 0.947995 1.13357C0.336795 1.73919 3.87554e-07 2.54276 3.87554e-07 3.39635C-0.000421485 4.26874 0.343592 5.08633 0.966792 5.69753C1.57119 6.28951 2.39558 6.62194 3.19479 6.60272C3.218 6.60315 3.2412 6.60352 3.26478 6.60352C4.06596 6.60352 4.85918 6.27713 5.44998 5.70114C6.07276 5.09434 6.41678 4.27994 6.41879 3.40793C6.42081 2.55514 6.0872 1.75035 5.48041 1.14116C4.87399 0.532775 4.07238 0.197574 3.2232 0.196777Z" fill="#3FB1B5"/>
<path d="M4.80038 7.40332H1.5664C0.923607 7.40332 0.400391 7.9429 0.400391 8.6057V22.6032C0.400391 23.252 0.949997 23.8 1.60038 23.8H4.80038C5.45077 23.8 6.00038 23.2628 6.00038 22.6276V8.60331C6.00038 7.95293 5.45082 7.40332 4.80038 7.40332Z" fill="#3FB1B5"/>
<path d="M18.452 7.00391H17.6092C16.056 7.00391 14.566 7.6655 13.6 8.75829V8.2039C13.6 7.80748 13.196 7.40389 12.8 7.40389H8.80001C8.43003 7.40389 8 7.73187 8 8.15468V23.0798C8 23.5042 8.42159 23.8002 8.80001 23.8006L13.2 23.8018C13.5784 23.8018 14 23.5058 14 23.081V14.4583C14 13.1575 14.9644 12.1275 16.1956 12.1135C16.8216 12.0995 17.4132 12.3463 17.856 12.7899C18.222 13.1559 18.4 13.6903 18.4 14.4239V23.0038C18.4 23.4003 18.804 23.8039 19.2 23.8039H23.1999C23.5959 23.8039 23.9999 23.4003 23.9999 23.0038V12.6799C24 9.49708 21.5628 7.00391 18.452 7.00391Z" fill="#3FB1B5"/>
</g>
<defs>
<clipPath id="clip0">
<rect width="24" height="24" fill="white"/>
</clipPath>
</defs>
</svg>
