<?xml version="1.0" encoding="UTF-8" standalone="no"?><!DOCTYPE svg PUBLIC "-//W3C//DTD SVG 1.1//EN" "http://www.w3.org/Graphics/SVG/1.1/DTD/svg11.dtd"><svg width="100%" height="100%" viewBox="0 0 18 22" version="1.1" xmlns="http://www.w3.org/2000/svg" xmlns:xlink="http://www.w3.org/1999/xlink" xml:space="preserve" xmlns:serif="http://www.serif.com/" style="fill-rule:evenodd;clip-rule:evenodd;stroke-linejoin:round;stroke-miterlimit:1.41421;"><g id="Word"><path d="M2,0l11,0l5,5l0,15c0,1.104 -0.896,2 -2,2l-14,0c-1.104,0 -2,-0.896 -2,-2l0,-18c0,-1.104 0.896,-2 2,-2Z" style="fill:#2c569a;"/><path d="M14.4,6c-1.325,0 -2.4,-1.075 -2.4,-2.4l0,-3.6l6,6l-3.6,0Z" style="fill:#fff;"/><rect x="3" y="8" width="12" height="1" style="fill:#fff;"/><rect x="3" y="11" width="12" height="1" style="fill:#fff;"/><rect x="3" y="14" width="12" height="1" style="fill:#fff;"/><rect x="3" y="17" width="12" height="1" style="fill:#fff;"/></g></svg>