<svg width="128" height="31" viewBox="0 0 128 31" fill="none" xmlns="http://www.w3.org/2000/svg">
<path d="M26.5928 26.4815C26.9558 27.403 27.3747 28.0732 27.8494 28.4921C28.3241 28.9109 28.7849 29.1343 29.2317 29.1623V30C27.5562 29.9162 25.434 29.8743 22.8649 29.8743C20.0166 29.8743 17.8943 29.9162 16.4981 30V29.1623C17.5592 29.1064 18.3132 28.9808 18.76 28.7853C19.2068 28.5619 19.4302 28.1849 19.4302 27.6543C19.4302 27.1517 19.2626 26.4815 18.9275 25.6438L16.4143 18.7743H7.28302L6.19396 21.6645C5.41207 23.6751 5.02113 25.2249 5.02113 26.314C5.02113 27.3472 5.3283 28.0732 5.94264 28.4921C6.5849 28.883 7.52038 29.1064 8.74906 29.1623V30C6.85019 29.9162 5.11887 29.8743 3.55509 29.8743C2.27057 29.8743 1.20943 29.9162 0.371698 30V29.1623C1.74 28.9109 2.94075 27.4449 3.97396 24.7642L13.5241 0.260382C13.8313 0.288306 14.32 0.302268 14.9902 0.302268C15.6604 0.302268 16.1351 0.288306 16.4143 0.260382L26.5928 26.4815ZM16.1211 17.9366L11.9743 6.62717L7.61811 17.9366H16.1211ZM46.1117 8.47019C47.5359 8.47019 48.611 8.42831 49.337 8.34453V9.18227C48.7506 9.34981 48.22 9.71283 47.7453 10.2713C47.2985 10.8019 46.8657 11.6396 46.4468 12.7845L40.3314 30.0838C40.0242 30.0558 39.5634 30.0419 38.9491 30.0419C38.3627 30.0419 37.9159 30.0558 37.6087 30.0838L30.1529 11.5698C29.7619 10.6204 29.357 9.99208 28.9382 9.68491C28.5472 9.37774 28.1423 9.22415 27.7234 9.22415V8.34453C29.6782 8.48415 31.6608 8.55397 33.6714 8.55397C35.4306 8.55397 37.2457 8.48415 39.1166 8.34453V9.22415C38.1672 9.22415 37.4831 9.29397 37.0642 9.43359C36.6733 9.54529 36.4778 9.88038 36.4778 10.4389C36.4778 10.6623 36.5476 11.0113 36.6872 11.486L41.4623 24.1777L44.4782 15.8842C44.9249 14.5717 45.1483 13.4408 45.1483 12.4913C45.1483 10.4528 44.1291 9.34981 42.0906 9.18227V8.34453C43.3751 8.42831 44.7155 8.47019 46.1117 8.47019ZM68.262 7.75812C70.3843 7.75812 71.9201 8.30265 72.8695 9.3917C73.3443 9.92227 73.6794 10.6064 73.8748 11.4442C74.0703 12.2819 74.168 13.4128 74.168 14.837V26.1045C74.168 27.2494 74.3635 28.0453 74.7544 28.4921C75.1733 28.9109 75.8714 29.1204 76.8488 29.1204V30C74.0563 29.8883 72.2133 29.8325 71.3197 29.8325C70.482 29.8325 68.6669 29.8883 65.8744 30V29.1204C66.7122 29.1204 67.2986 28.9109 67.6337 28.4921C67.9688 28.0453 68.1363 27.2494 68.1363 26.1045V13.0777C68.1363 11.9328 67.9409 11.0672 67.5499 10.4808C67.1869 9.89434 66.5167 9.60114 65.5394 9.60114C64.3944 9.60114 63.4171 10.0759 62.6073 11.0253C61.7975 11.9468 61.3926 13.0917 61.3926 14.46V26.1045C61.3926 27.2494 61.5601 28.0453 61.8952 28.4921C62.2303 28.9109 62.8167 29.1204 63.6544 29.1204V30C61.0854 29.8883 59.3541 29.8325 58.4605 29.8325C57.6228 29.8325 55.696 29.8883 52.6801 30V29.1204C53.6854 29.1204 54.3835 28.9109 54.7744 28.4921C55.1654 28.0453 55.3609 27.2494 55.3609 26.1045V12.9102C55.3609 11.6257 55.1654 10.6902 54.7744 10.1038C54.3835 9.51736 53.6854 9.22415 52.6801 9.22415V8.34453C53.5737 8.42831 54.4394 8.47019 55.2771 8.47019C57.7624 8.47019 59.8009 8.27472 61.3926 7.88378V11.6536C62.6492 9.05661 64.939 7.75812 68.262 7.75812ZM90.0539 7.75812C93.2652 7.75812 95.7784 8.67963 97.5935 10.5226C99.4086 12.3377 100.316 15.2279 100.316 19.1932C100.316 23.1585 99.4086 26.0487 97.5935 27.8638C95.7784 29.6789 93.2652 30.5864 90.0539 30.5864C86.8705 30.5864 84.3573 29.6789 82.5143 27.8638C80.6992 26.0487 79.7917 23.1585 79.7917 19.1932C79.7917 15.2279 80.6992 12.3377 82.5143 10.5226C84.3573 8.67963 86.8705 7.75812 90.0539 7.75812ZM90.0539 8.59585C88.8532 8.59585 87.8898 9.47547 87.1637 11.2347C86.4656 12.966 86.1166 15.6189 86.1166 19.1932C86.1166 22.7675 86.4656 25.4204 87.1637 27.1517C87.8898 28.883 88.8532 29.7487 90.0539 29.7487C91.2826 29.7487 92.246 28.897 92.9441 27.1936C93.6422 25.4623 93.9913 22.7955 93.9913 19.1932C93.9913 15.5909 93.6283 12.9242 92.9022 11.1928C92.2041 9.46151 91.2547 8.59585 90.0539 8.59585ZM119.351 7.75812C121.473 7.75812 123.009 8.30265 123.958 9.3917C124.433 9.92227 124.768 10.6064 124.964 11.4442C125.159 12.2819 125.257 13.4128 125.257 14.837V26.1045C125.257 27.2494 125.452 28.0453 125.843 28.4921C126.262 28.9109 126.96 29.1204 127.938 29.1204V30C125.145 29.8883 123.302 29.8325 122.409 29.8325C121.571 29.8325 119.756 29.8883 116.963 30V29.1204C117.801 29.1204 118.387 28.9109 118.722 28.4921C119.058 28.0453 119.225 27.2494 119.225 26.1045V13.0777C119.225 11.9328 119.03 11.0672 118.639 10.4808C118.276 9.89434 117.605 9.60114 116.628 9.60114C115.483 9.60114 114.506 10.0759 113.696 11.0253C112.886 11.9468 112.481 13.0917 112.481 14.46V26.1045C112.481 27.2494 112.649 28.0453 112.984 28.4921C113.319 28.9109 113.905 29.1204 114.743 29.1204V30C112.174 29.8883 110.443 29.8325 109.549 29.8325C108.712 29.8325 106.785 29.8883 103.769 30V29.1204C104.774 29.1204 105.472 28.9109 105.863 28.4921C106.254 28.0453 106.45 27.2494 106.45 26.1045V12.9102C106.45 11.6257 106.254 10.6902 105.863 10.1038C105.472 9.51736 104.774 9.22415 103.769 9.22415V8.34453C104.662 8.42831 105.528 8.47019 106.366 8.47019C108.851 8.47019 110.89 8.27472 112.481 7.88378V11.6536C113.738 9.05661 116.028 7.75812 119.351 7.75812Z" fill="#333333"/>
</svg>
