<svg width="800" height="421" viewBox="0 0 800 421" fill="none" xmlns="http://www.w3.org/2000/svg">
<path opacity="0.5" d="M776.171 417.738V417.74C776.108 417.85 776.049 417.954 775.986 418.064C775.545 418.838 775.091 419.624 774.626 420.412L62.5499 420.201C62.5499 420.201 61.8563 419.442 60.6159 417.986C60.5451 417.903 60.4744 417.82 60.401 417.732C57.2211 413.981 50.8178 406.088 43.3238 394.959C43.3238 394.956 43.3211 394.954 43.3183 394.948C23.434 365.405 -4.11858 313.09 0.516582 255.024C1.82498 238.634 5.69577 221.784 13.0293 204.86C35.2721 153.529 101.633 118.928 161.414 118.233C184.552 117.96 206.71 122.772 224.935 133.661C228.17 135.59 232.234 137.081 236.961 138.093C240.946 138.951 245.402 139.472 250.238 139.638C289.063 140.982 352.209 119.489 389.66 65.419C409.547 36.7061 440.079 17.9089 475.169 8.11888C476.803 7.66465 478.452 7.22645 480.103 6.8123C488.084 4.80032 496.28 3.2399 504.625 2.12569C506.127 1.92529 507.637 1.73826 509.149 1.56992C546.179 -2.65176 585.841 1.71421 622.218 13.7834C627.008 15.3706 631.744 17.094 636.409 18.951C704.867 46.1836 758.128 101.79 753.444 179.434C753.259 182.504 752.984 185.609 752.612 188.748C751.913 194.728 750.868 200.831 749.473 207.057C748.648 210.725 747.702 214.437 746.625 218.185C718.414 316.612 831.211 321.056 776.171 417.738Z" fill="#DCEAFF"/>
<path d="M776.169 417.737V417.74L221.908 417.796L226.688 255.085V210.877H247.418V176.35H288.775V205.656H301.405V151.456H304.152V147.667H304.645V151.456H314.62V147.667H315.115V151.456H329.235V147.667H329.73V151.456H338.619V147.667H339.109V151.456H342.76V202.052H356.719V193.868L373.182 193.94V180.679H376.492V178.058H376.933V180.679H389.647V180.684H392.19V178.055H392.628V180.684H395.694V207.051H415.293V216.756H426.19V211.121H436.295V188.748H441.336V178.312H442.097V188.748H454.172V169.187H455.358V188.748H463.347V188.476H463.334V185.994H463.347V183.645H463.334V179.736H463.347V177.24H463.334V173.329H463.347V170.833H463.334V166.921H463.347V164.222H463.334V160.316H463.347V156.88H463.334V152.974H463.347V150.382H465.727V147.459H466.108V150.384H483.746V147.459H484.124V150.384H487.344V170.836L489.608 170.849V170.836H489.589V166.924H489.608V164.225H489.589V160.319H489.608V157.631H489.589V153.719H489.608V153.708H510.993V153.719H514.668C514.856 153.823 515.049 153.927 515.242 154.032V180.11H519.178V176.35H564.32V205.656H578.105V151.456H581.1V147.667H581.642V151.456H592.525V147.667H593.064V151.456H608.479V147.667H609.017V151.456H618.72V147.667H619.256V151.456H623.244V202.052H638.479V193.868L656.446 193.94V180.682H660.064V178.058H660.545V180.682H674.415V180.684H677.193V178.055H677.669V180.684H681.015V207.054H702.403V216.756H714.298V211.121H725.329V188.746H730.829V178.312H731.661V188.746H744.843V169.187H746.135V188.746H752.617C751.918 194.726 750.874 200.828 749.478 207.054C748.654 210.723 747.707 214.434 746.63 218.183C718.411 316.612 831.208 321.055 776.169 417.737Z" fill="#DFEBFA"/>
<path d="M636.412 18.951V417.735H622.221V13.7834C627.014 15.3706 631.749 17.094 636.412 18.951Z" fill="#AFCDFB"/>
<path d="M236.964 138.096V417.991H60.6158C60.5451 417.909 60.4744 417.826 60.401 417.737C57.2211 413.986 50.8178 406.093 43.3238 394.964C43.3238 394.962 43.3211 394.959 43.3183 394.954C23.434 365.41 -4.11857 313.096 0.516582 255.029C1.82498 238.639 5.69577 221.79 13.0293 204.866C35.2721 153.535 101.633 118.933 161.414 118.238C184.337 118.487 206.185 123.347 224.329 133.666C227.726 135.59 231.997 137.081 236.964 138.096Z" fill="#CEE1FD"/>
<path d="M509.154 1.56989V50.6804C509.154 54.5093 508.202 57.6328 507.043 57.6328H506.741C505.579 57.6328 504.633 54.5093 504.633 50.6804V2.12565C506.132 1.92526 507.641 1.73822 509.154 1.56989Z" fill="#9FC1F4"/>
<path d="M505.714 45.8174C489.235 45.8174 475.879 59.6902 475.879 76.8067H535.548C535.548 59.6929 522.19 45.8174 505.714 45.8174Z" fill="#FF9843"/>
<path d="M508.093 46.1968C507.236 46.0125 506.36 45.9163 505.473 45.9163C494.737 45.9163 486.035 59.7463 486.035 76.8068H491.277C491.274 61.1571 498.597 48.2302 508.093 46.1968Z" fill="#FFC48A"/>
<path d="M702.196 372.031C702.196 372.031 694.256 362.933 701.707 357.154C701.707 357.154 707.15 353.918 711.586 354.18C711.586 354.18 705.297 364.536 707.332 365.568C709.367 366.599 713.49 353.53 713.49 353.53C713.49 353.53 725.875 352.349 729.858 354.233C729.858 354.233 719.271 362.743 721.501 363.251C723.732 363.759 735.167 355.404 735.167 355.404C735.167 355.404 746.693 357.33 746.078 364.237C745.463 371.144 741.492 373.276 739.745 373.092C737.999 372.907 727.788 369.079 727.567 370.484C727.347 371.889 733.492 376.48 737.795 376.696C737.795 376.696 729.67 385.5 724.268 382.959C718.868 380.418 718.406 376.392 715.041 374.882C711.673 373.372 708.801 373.375 710.191 374.917C711.581 376.459 717.674 377.955 719.6 381.3C721.526 384.645 723.253 386.901 717.666 386.075C712.079 385.249 702.996 381.233 702.596 376.635C702.196 372.031 702.196 372.031 702.196 372.031Z" fill="#77A4E5"/>
<path d="M740.418 364.421C740.418 364.421 709.111 363.235 702.199 372.031C702.199 372.031 700.671 376.528 695.965 380.624L695.23 382.588C695.23 382.588 700.654 376.969 702.597 376.629C702.597 376.629 699.561 365.733 740.418 364.421Z" fill="#77A4E5"/>
<path d="M695.964 380.624C695.964 380.624 689.245 385.506 688.777 394.227L689.996 394.334C689.996 394.334 692.142 385.316 696.021 381.789C699.903 378.262 695.964 380.624 695.964 380.624Z" fill="#77A4E5"/>
<path d="M674.435 360.587C674.435 360.587 687.065 353.64 681.17 344.211C681.17 344.211 676.456 338.421 671.402 336.932C671.402 336.932 674.098 350.992 671.402 351.323C668.707 351.655 669.55 335.444 669.55 335.444C669.55 335.444 656.246 329.157 651.026 329.654C651.026 329.654 659.279 343.382 656.583 343.054C653.887 342.725 644.625 328.828 644.625 328.828C644.625 328.828 630.983 326.346 628.796 334.287C626.607 342.228 630.143 346.196 632.164 346.693C634.185 347.19 647.152 347.024 646.815 348.678C646.478 350.332 637.721 352.98 632.839 351.492C632.839 351.492 638.227 364.56 645.3 363.898C652.372 363.235 654.562 358.936 658.941 358.604C663.321 358.273 666.52 359.433 664.33 360.59C662.14 361.747 654.73 360.969 651.194 363.922C647.658 366.874 644.794 368.694 651.363 370.019C657.932 371.342 669.719 370.516 672.077 365.552C674.435 360.587 674.435 360.587 674.435 360.587Z" fill="#77A4E5"/>
<path d="M635.033 336.767C635.033 336.767 670.398 348.016 674.44 360.587C674.44 360.587 674.272 366.212 677.808 372.662V375.144C677.808 375.144 674.103 366.709 672.082 365.549C672.082 365.549 679.995 354.631 635.033 336.767Z" fill="#77A4E5"/>
<path d="M677.806 372.664C677.806 372.664 683.26 380.801 680.151 390.703L678.747 390.331C678.747 390.331 680.11 379.424 677.256 373.939C674.4 368.451 677.806 372.664 677.806 372.664Z" fill="#77A4E5"/>
<path d="M694.527 351.005C694.527 351.005 677.877 341.846 685.649 329.419C685.649 329.419 691.864 321.788 698.523 319.824C698.523 319.824 694.971 338.359 698.523 338.795C702.076 339.23 700.966 317.863 700.966 317.863C700.966 317.863 718.503 309.577 725.385 310.231C725.385 310.231 714.507 328.329 718.059 327.893C721.612 327.458 733.82 309.141 733.82 309.141C733.82 309.141 751.8 305.871 754.686 316.337C757.573 326.803 752.91 332.037 750.247 332.692C747.584 333.347 730.491 333.127 730.934 335.308C731.377 337.488 742.922 340.978 749.358 339.014C749.358 339.014 742.255 356.24 732.931 355.369C723.606 354.498 720.723 348.828 714.95 348.392C709.178 347.957 704.962 349.482 707.848 351.008C710.734 352.534 720.502 351.508 725.162 355.401C729.821 359.294 733.597 361.693 724.939 363.438C716.28 365.183 700.743 364.093 697.634 357.552C694.525 351.011 694.527 351.005 694.527 351.005Z" fill="#9FC1F4"/>
<path d="M746.473 319.607C746.473 319.607 699.855 334.434 694.529 351.008C694.529 351.008 694.752 358.423 690.09 366.925V370.195C690.09 370.195 694.973 359.075 697.638 357.549C697.636 357.546 687.201 343.155 746.473 319.607Z" fill="#9FC1F4"/>
<path d="M690.09 366.925C690.09 366.925 682.9 377.647 687 390.703L688.849 390.214C688.849 390.214 687.054 375.836 690.816 368.605C694.578 361.375 690.09 366.925 690.09 366.925Z" fill="#9FC1F4"/>
<path d="M693.966 419.009C711.976 419.009 726.578 404.666 726.578 386.975H661.352C661.354 404.666 675.956 419.009 693.966 419.009Z" fill="#9FC1F4"/>
<path d="M701.995 418.764C700.668 418.927 699.316 419.009 697.942 419.009C679.932 419.009 665.33 404.666 665.33 386.975H673.433C673.436 403.32 685.897 416.802 701.995 418.764Z" fill="#AFCDFB"/>
<path d="M727.322 386.973H660.283V387.956H727.322V386.973Z" fill="#9FC1F4"/>
<path d="M542.146 417.433L510.1 286.78L512.338 281.636L544.085 417.417C544.167 417.764 543.898 418.096 543.533 418.096H543.003C542.597 418.098 542.241 417.823 542.146 417.433Z" fill="#77A4E5"/>
<path d="M397.522 418.098C396.864 418.098 396.363 417.518 396.469 416.88L405.908 360.683H409.953L398.697 417.15C398.586 417.7 398.096 418.098 397.522 418.098Z" fill="#77A4E5"/>
<path d="M488.063 418.098C487.405 418.098 486.904 417.518 487.01 416.88L496.449 360.683H500.494L489.238 417.15C489.129 417.7 488.637 418.098 488.063 418.098Z" fill="#77A4E5"/>
<path d="M510.015 360.801H397.291L420.644 216.983H533.37L510.015 360.801Z" fill="#F5FBFF"/>
<path d="M518.452 359.705H388.988V363.935H518.452V359.705Z" fill="#77A4E5"/>
<path d="M465.288 247.074C465.203 248.213 465.032 249.332 464.782 250.422C462.432 260.701 453.115 268.576 442.585 268.594C430.935 268.613 422.214 259.013 423.103 247.147C423.993 235.28 434.155 225.648 445.806 225.629C448.249 225.624 450.561 226.043 452.685 226.821C453.64 227.168 454.559 227.588 455.433 228.071C457.318 229.122 458.996 230.476 460.413 232.079C461.202 232.969 461.909 233.939 462.524 234.97C462.883 235.569 463.209 236.189 463.503 236.827C464.322 238.607 464.888 240.539 465.16 242.578C465.299 243.598 465.358 244.651 465.345 245.722C465.339 246.169 465.32 246.62 465.288 247.074Z" fill="#BDD1F9"/>
<path d="M463.502 236.827L444.197 247.109C444.197 247.109 452.162 233.33 455.432 228.069C457.317 229.119 458.995 230.473 460.412 232.077C461.201 232.966 461.908 233.936 462.523 234.968C462.882 235.566 463.208 236.186 463.502 236.827Z" fill="white"/>
<path d="M465.506 234.228L447.871 243.62C447.871 243.62 455.148 231.032 458.134 226.228C459.856 227.187 461.39 228.424 462.682 229.888C463.403 230.703 464.048 231.588 464.611 232.531C464.94 233.076 465.237 233.642 465.506 234.228Z" fill="#F99746"/>
<path d="M501.042 349.87L408.26 349.865L417.652 297.281L510.435 297.286L501.042 349.87ZM409.011 349.333L500.484 349.338L509.689 297.812L418.216 297.807L409.011 349.333Z" fill="#BDD1F9"/>
<path d="M495.508 342.658L413.221 342.653C413.221 342.653 427.817 334.963 431.821 335.367C435.825 335.77 441.581 338.883 445.281 339.003C448.98 339.123 452.99 328.211 457.108 328.727C461.226 329.24 462.777 338.894 464.909 337.95C467.042 337.007 473.448 336.598 477.136 337.95C480.825 339.302 486.2 333.654 489.442 333.83C492.688 334.009 495.508 342.658 495.508 342.658Z" fill="#F99746"/>
<path d="M433.004 327.204L417.287 327.201L417.434 326.383H433.148L433.004 327.204Z" fill="#F99746"/>
<path d="M432.692 328.951H416.975L417.121 328.131L432.839 328.134L432.692 328.951Z" fill="#F99746"/>
<path d="M417.934 316.294L500.221 316.299C500.221 316.299 488.372 308.61 484.224 309.01C480.076 309.414 473.21 312.524 469.467 312.644C465.724 312.764 465.615 301.852 461.312 302.365C457.009 302.878 452.012 312.532 450.214 311.589C448.418 310.646 442.159 310.237 437.987 311.589C433.817 312.941 430.457 307.292 427.152 307.469C423.845 307.645 417.934 316.294 417.934 316.294Z" fill="#BDD1F9"/>
<path d="M437.448 302.347H421.73L421.877 301.529H437.594L437.448 302.347Z" fill="#BDD1F9"/>
<path d="M437.137 304.097H421.42L421.567 303.276H437.284L437.137 304.097Z" fill="#BDD1F9"/>
<path d="M423.268 289.943H419.658L422.795 273.332H426.404L423.268 289.943Z" fill="#BDD1F9"/>
<path d="M428.182 289.943H424.572L427.001 277.075H430.611L428.182 289.943Z" fill="#BDD1F9"/>
<path d="M433.102 289.943H429.492L432.025 276.522H435.634L433.102 289.943Z" fill="#BDD1F9"/>
<path d="M438.016 289.943H434.406L436.335 279.736H439.944L438.016 289.943Z" fill="#BDD1F9"/>
<path d="M442.934 289.943H439.324L441.392 278.993H445.001L442.934 289.943Z" fill="#BDD1F9"/>
<path d="M447.85 289.943H444.24L445.845 281.452H449.452L447.85 289.943Z" fill="#BDD1F9"/>
<path d="M471.545 289.943H467.936L471.072 273.332H474.682L471.545 289.943Z" fill="#F99746"/>
<path d="M476.459 289.943H472.852L475.281 277.075H478.888L476.459 289.943Z" fill="#F99746"/>
<path d="M481.379 289.943H477.77L480.302 276.522H483.912L481.379 289.943Z" fill="#F99746"/>
<path d="M486.293 289.943H482.684L484.612 279.736H488.222L486.293 289.943Z" fill="#F99746"/>
<path d="M491.213 289.943H487.604L489.671 278.993H493.28L491.213 289.943Z" fill="#F99746"/>
<path d="M496.125 289.943H492.516L494.121 281.452H497.73L496.125 289.943Z" fill="#F99746"/>
<path d="M488.92 235.713H477.172L477.474 234.134H489.222L488.92 235.713Z" fill="#BDD1F9"/>
<path d="M503.335 235.713H490.359L490.664 234.134H503.636L503.335 235.713Z" fill="#BDD1F9"/>
<path d="M512.585 235.713H504.312L504.614 234.134H512.886L512.585 235.713Z" fill="#BDD1F9"/>
<path d="M520.303 235.713H513.922L514.224 234.134H520.605L520.303 235.713Z" fill="#BDD1F9"/>
<path d="M487.633 242.46H475.885L476.187 240.878H487.935L487.633 242.46Z" fill="#BDD1F9"/>
<path d="M502.045 242.46H489.072L489.374 240.878H502.349L502.045 242.46Z" fill="#BDD1F9"/>
<path d="M511.294 242.46H503.021L503.323 240.878H511.595L511.294 242.46Z" fill="#BDD1F9"/>
<path d="M519.012 242.46H512.631L512.933 240.878H519.314L519.012 242.46Z" fill="#BDD1F9"/>
<path d="M495.907 232.026H477.881L478.183 230.444H496.209L495.907 232.026Z" fill="#BDD1F9"/>
<path d="M508.014 232.026H497.623L497.925 230.444H508.316L508.014 232.026Z" fill="#BDD1F9"/>
<path d="M521.019 232.026H509.48L509.782 230.444H521.321L521.019 232.026Z" fill="#BDD1F9"/>
<path d="M494.536 239.198H476.51L476.812 237.616H494.838L494.536 239.198Z" fill="#BDD1F9"/>
<path d="M506.643 239.197H496.252L496.554 237.616H506.945L506.643 239.197Z" fill="#BDD1F9"/>
<path d="M519.646 239.197H508.107L508.409 237.616H519.948L519.646 239.197Z" fill="#BDD1F9"/>
<path d="M486.346 249.204H474.598L474.9 247.622H486.648L486.346 249.204Z" fill="#BDD1F9"/>
<path d="M500.756 249.204H487.783L488.085 247.622H501.058L500.756 249.204Z" fill="#BDD1F9"/>
<path d="M510.004 249.204H501.732L502.034 247.622H510.306L510.004 249.204Z" fill="#BDD1F9"/>
<path d="M517.725 249.204H511.344L511.646 247.622H518.027L517.725 249.204Z" fill="#BDD1F9"/>
<path d="M493.243 245.942H475.217L475.519 244.363H493.545L493.243 245.942Z" fill="#BDD1F9"/>
<path d="M505.352 245.942H494.961L495.263 244.362H505.654L505.352 245.942Z" fill="#BDD1F9"/>
<path d="M518.355 245.942H506.816L507.121 244.362H518.66L518.355 245.942Z" fill="#BDD1F9"/>
<path d="M485.136 255.529H473.385L473.687 253.947H485.438L485.136 255.529Z" fill="#BDD1F9"/>
<path d="M499.547 255.529H486.574L486.876 253.947H499.849L499.547 255.529Z" fill="#BDD1F9"/>
<path d="M508.795 255.529H500.525L500.827 253.947H509.097L508.795 255.529Z" fill="#BDD1F9"/>
<path d="M516.516 255.529H510.135L510.437 253.947H516.818L516.516 255.529Z" fill="#BDD1F9"/>
<path d="M492.037 252.266H474.014L474.316 250.684H492.339L492.037 252.266Z" fill="#BDD1F9"/>
<path d="M504.143 252.266H493.752L494.057 250.684H504.445L504.143 252.266Z" fill="#BDD1F9"/>
<path d="M517.148 252.266H505.609L505.911 250.684H517.45L517.148 252.266Z" fill="#BDD1F9"/>
<path d="M458.399 275.802H452.648L452.798 275.029H458.548L458.399 275.802Z" fill="#BDD1F9"/>
<path d="M465.454 275.801H459.105L459.252 275.029H465.601L465.454 275.801Z" fill="#BDD1F9"/>
<path d="M457.766 279.103H452.016L452.165 278.328H457.916L457.766 279.103Z" fill="#BDD1F9"/>
<path d="M464.822 279.103H458.473L458.62 278.328H464.968L464.822 279.103Z" fill="#BDD1F9"/>
<path d="M461.816 273.997H452.992L453.142 273.222H461.963L461.816 273.997Z" fill="#BDD1F9"/>
<path d="M467.736 273.997H462.652L462.799 273.222H467.886L467.736 273.997Z" fill="#BDD1F9"/>
<path d="M461.146 277.508H452.324L452.471 276.733H461.293L461.146 277.508Z" fill="#BDD1F9"/>
<path d="M467.069 277.508H461.982L462.129 276.733H467.216L467.069 277.508Z" fill="#BDD1F9"/>
<path d="M504.463 275.801H498.713L498.863 275.029H504.613L504.463 275.801Z" fill="#BDD1F9"/>
<path d="M511.518 275.8H505.166L505.316 275.028H511.664L511.518 275.8Z" fill="#BDD1F9"/>
<path d="M503.83 279.103H498.08L498.23 278.328H503.98L503.83 279.103Z" fill="#BDD1F9"/>
<path d="M510.885 279.103H504.533L504.683 278.328H511.032L510.885 279.103Z" fill="#BDD1F9"/>
<path d="M507.883 273.997H499.059L499.208 273.222H508.03L507.883 273.997Z" fill="#BDD1F9"/>
<path d="M513.801 273.997H508.717L508.864 273.222H513.95L513.801 273.997Z" fill="#BDD1F9"/>
<path d="M507.209 277.508H498.385L498.534 276.733H507.356L507.209 277.508Z" fill="#BDD1F9"/>
<path d="M513.134 277.508H508.047L508.194 276.733H513.28L513.134 277.508Z" fill="#BDD1F9"/>
<path d="M535.052 415.966C534.851 418.67 530.967 418.699 526.563 418.197C522.156 417.695 523.329 418.79 517.159 418.876C510.99 418.961 508.863 416.957 508.564 416.092C508.297 415.322 511.27 414.675 514.447 413.917C514.847 413.823 515.25 413.724 515.65 413.623C519.235 412.728 521.607 410.093 524.675 407.792C527.58 405.612 531.326 397.725 531.326 397.725L539.753 397.35C539.753 397.35 536.203 404.42 534.87 407.469C534.087 409.262 534.419 411.466 534.761 413.155C534.941 414.074 535.123 415.015 535.052 415.966Z" fill="#FFB27D"/>
<path d="M526.561 418.197C522.154 417.695 523.327 418.79 517.157 418.876C510.988 418.961 508.861 416.957 508.562 416.092C508.295 415.322 511.268 414.675 514.445 413.917L514.483 413.973C514.483 413.973 518.455 416.067 523.536 415.565C527.676 415.156 531.903 413.46 534.759 413.155C534.942 414.074 535.124 415.015 535.051 415.966C534.849 418.67 530.968 418.699 526.561 418.197Z" fill="#233862"/>
<path d="M593.26 416.527C593.062 419.231 589.177 419.263 584.771 418.766C580.364 418.269 581.536 419.362 575.367 419.453C569.198 419.544 567.068 417.543 566.769 416.677C566.502 415.907 569.472 415.258 572.65 414.497C573.049 414.403 573.449 414.301 573.852 414.203C577.434 413.305 579.806 410.668 582.869 408.362C585.772 406.179 582.872 393.26 582.872 393.26L592.142 392.373C592.142 392.373 591.699 403.25 591.704 408.199C591.707 410.149 592.621 412.028 592.964 413.716C593.149 414.635 593.331 415.576 593.26 416.527Z" fill="#FFB27D"/>
<path d="M584.771 418.766C580.364 418.269 581.536 419.362 575.367 419.453C569.198 419.544 567.068 417.543 566.769 416.677C566.502 415.907 569.472 415.258 572.65 414.497L572.688 414.553C572.688 414.553 576.662 416.642 581.743 416.137C585.883 415.726 590.108 414.024 592.964 413.716C593.146 414.636 593.331 415.576 593.258 416.527C593.062 419.231 589.177 419.263 584.771 418.766Z" fill="#233862"/>
<path d="M566.208 193.216C564.612 186.768 566.927 183.765 569.013 182.167C570.003 179.795 571.132 178.085 572.288 177.438C574.396 176.262 576.92 176.134 578.686 176.236C578.232 175.773 577.337 175.608 577.337 175.608C578.433 175.447 580.876 176.514 580.876 176.514C596.108 170.747 598.502 192.778 598.181 197.897C597.863 203.014 597.906 209.042 605.83 213.074C620.952 220.769 600.806 249.763 600.806 249.763C601.19 245.626 581.762 223.799 571.627 217.264C569.16 213.696 568.284 207.391 568.216 206.896C568.643 211.896 569.513 214.698 570.291 216.278C565.67 212.104 564.984 202.073 566.208 193.216Z" fill="#A9453D"/>
<path d="M572.227 217.592C572.175 217.614 577.121 220.136 580.842 219.137C584.34 218.199 586.628 213.745 586.579 213.734C585.096 213.445 584.669 211.444 584.702 202.851L584.033 202.979L572.771 205.17C572.771 205.17 573.027 208.652 573.035 211.93C573.038 214.688 572.869 217.298 572.227 217.592Z" fill="#FFB27D"/>
<path d="M572.768 205.173C572.768 205.173 573.023 208.654 573.031 211.933C579.334 211.759 582.664 206.111 584.029 202.982L572.768 205.173Z" fill="#ED975D"/>
<path d="M526.941 402.107C526.389 403.806 527.629 405.559 529.446 405.642L533.845 405.845L538.499 405.984C539.663 406.018 540.776 405.519 541.513 404.632C545.229 400.153 556.667 385.231 563.603 363.548C563.799 362.938 564.003 362.324 564.224 361.701C568.804 348.577 578.303 332.104 583.311 317.195C584.108 314.819 584.823 312.585 585.465 310.469C585.669 309.791 585.871 309.125 586.061 308.471C589.75 295.88 590.819 287.613 591.803 278.783L555.658 279.066C555.658 279.066 548.047 337.162 526.941 402.107Z" fill="#2A4E96"/>
<path d="M560.718 258.663C560.807 275.558 558.193 282.807 558.193 282.807C558.193 282.807 573.668 290.531 592.062 284.845C592.28 284.778 605.222 281.179 605.222 281.179C604.915 280.495 602.358 269.19 602.056 268.562C598.171 260.37 597.113 256.931 596.654 254.412C595.799 249.709 595.78 244.846 596.208 240.256C597.331 228.109 600.669 218.028 600.669 218.028C595.658 216.908 590.963 214.939 585.746 213.018C584.546 214.485 580.879 216.021 577.697 215.952C574.033 215.871 572.844 214.332 573.034 212.649C569.131 214.784 566.014 216.799 566.014 216.799C562.695 222.46 555.965 227.959 555.479 236.643C555.359 238.781 560.715 258.19 560.718 258.663Z" fill="white"/>
<path d="M591.804 260.546C593.384 262.743 596.414 276.095 603.949 277.773C600.065 268.258 597.116 264.084 596.656 261.158C595.802 255.697 595.783 250.046 596.21 244.715C593.689 240.371 591.804 237.394 591.804 237.394C591.605 236.691 587.794 225.116 586.573 235.462C585.354 245.813 590.038 258.091 591.804 260.546Z" fill="#5F9AA8"/>
<path d="M570.661 208.278C570.661 208.278 585.573 208.518 585.581 199.396C585.592 190.274 587.524 184.161 578.003 183.621C568.482 183.081 566.63 186.56 565.871 189.603C565.115 192.647 566.782 207.978 570.661 208.278Z" fill="#FFB27D"/>
<path d="M571.215 183.396C571.215 183.396 575.298 194.1 581.562 195.682C587.827 197.264 590.544 195.615 590.544 195.615C590.544 195.615 585.738 191.867 584.742 185.32C584.742 185.32 574.294 178.301 571.215 183.396Z" fill="#A9453D"/>
<path d="M572.226 184.265C572.226 184.265 569.177 186.654 568.434 188.978C567.691 191.3 567.357 196.083 565.937 195.923C565.937 195.923 562.86 188.647 566.318 184.532C569.982 180.166 572.226 184.265 572.226 184.265Z" fill="#A9453D"/>
<path d="M547.201 270.39L540.158 291.482L544.173 293.064L555.818 274.43L547.201 270.39Z" fill="#FFB27D"/>
<path d="M566.187 215.559C566.187 215.559 557.882 218.795 555.48 223.842C553.076 228.889 549.439 262.737 547.989 266.214C546.539 269.69 545.451 272.442 545.451 272.442C545.451 272.442 549.638 275.908 553.848 276.161C558.056 276.418 566.187 215.559 566.187 215.559Z" fill="#F99746"/>
<path d="M573.038 212.652C573.038 212.652 564.412 233.586 564.157 237.821C563.904 242.059 563.142 307.103 563.142 307.103C563.142 307.103 563.651 310.092 557.813 308.847C551.978 307.602 550.455 306.354 550.455 306.354C550.455 306.354 556.037 266.232 554.514 252.277C552.99 238.321 566.183 215.559 566.183 215.559L573.038 212.652Z" fill="#F99746"/>
<path d="M533.848 405.845L538.902 405.997C539.805 406.024 540.67 405.642 541.246 404.958C544.644 400.918 556.493 385.786 563.609 363.55C563.805 362.941 564.009 362.327 564.229 361.704C568.81 348.579 578.309 332.107 583.316 317.197C584.114 314.822 584.829 312.588 585.471 310.472C585.675 309.793 585.876 309.128 586.067 308.473L580.743 304.505C580.743 304.505 564.762 329.924 559.814 353.846C555.514 374.623 538.303 399.624 533.848 405.845Z" fill="#1E3D70"/>
<path d="M580.185 356.072C580.097 367.077 580.628 391.606 581.993 403.598C582.119 404.696 583.062 405.524 584.189 405.524H587.959C589.547 405.524 590.739 405.513 591.528 405.503C592.21 405.492 592.795 405.011 592.926 404.351C596.677 385.605 599.362 370.03 601.326 356.571C602.969 345.306 604.432 335.65 605.555 327.337C606.687 318.971 607.473 311.966 607.756 306.047C607.8 305.115 607.832 304.209 607.849 303.327C607.868 302.443 607.87 301.582 607.865 300.749L576.635 297.759C577.026 318.138 580.236 349.309 580.185 356.072Z" fill="#2A4E96"/>
<path d="M587.961 405.521C589.389 405.521 590.493 405.513 591.277 405.503C592.106 405.492 592.819 404.907 592.977 404.108C596.704 385.468 599.372 369.971 601.328 356.571C602.971 345.306 604.434 335.65 605.558 327.337C606.689 318.971 607.475 311.966 607.758 306.047L596.298 312.668C596.298 312.668 603.613 315.204 600.822 334.391C598.031 353.579 591.845 402.807 587.961 405.521Z" fill="#1E3D70"/>
<path d="M586.482 305.855C586.482 305.855 588.683 313.662 596.294 312.666C603.905 311.669 614.728 307.183 614.728 307.183C614.728 307.183 611.475 297.088 607.43 283.825C602.534 267.769 596.473 247.069 593.617 234.011C592.815 230.353 592.268 227.297 592.064 225.108L585.75 213.074C585.75 213.074 576.336 233.83 575.827 239.064C575.321 244.301 586.482 305.855 586.482 305.855Z" fill="#F99746"/>
<path d="M594.083 238.286L585.748 213.076C585.77 213.087 596.275 216.147 601.558 218.768C601.558 218.768 604.86 222.949 606.903 232.598C606.903 232.598 609.063 255.764 604.242 264.236C604.242 264.236 589.02 267.226 564.664 259.002V253.519C564.664 253.519 591.303 254.89 596.759 255.512L594.083 238.286Z" fill="#FFB27D"/>
<path d="M586.817 250.032C587.157 258.505 589.187 274.954 607.284 283.758C607.333 283.779 607.379 283.806 607.428 283.825C602.532 267.769 596.471 247.069 593.615 234.011C590.291 238.893 586.632 245.367 586.817 250.032Z" fill="#ED7D2B"/>
<path d="M585.753 213.076C585.753 213.076 601.201 214.145 604.922 222.287C608.643 230.428 609.827 257.508 605.091 265.484C605.091 265.484 598.571 267.309 587.04 265.19C586.899 265.164 586.757 265.137 586.613 265.11C586.613 265.11 582.935 256.263 586.232 254.519C586.232 254.519 595.957 255.018 594.942 251.86C593.927 248.702 585.753 213.076 585.753 213.076Z" fill="#F99746"/>
<path d="M547.02 256.91L547.474 258.348L572.823 250.602C572.823 250.602 573.16 250.222 572.994 249.72C572.809 249.164 572.369 249.164 572.369 249.164L547.02 256.91Z" fill="#A9453D"/>
<path d="M545.186 258.267L547.019 256.91L547.474 258.345L545.186 258.267Z" fill="#A9453D"/>
<path d="M541.162 290.905C541.162 290.905 534.731 294.395 533.885 297.056C533.039 299.717 533.621 305.286 534.641 305.203C535.661 305.12 537.185 299.218 538.031 298.804C538.877 298.387 540.063 297.142 540.063 298.055C540.063 298.969 539.217 300.631 539.638 300.882C540.063 301.131 541.415 298.555 542.345 298.055C543.275 297.556 543.667 293.446 544.57 292.343C545.473 291.239 541.162 290.905 541.162 290.905Z" fill="#FFB27D"/>
<path d="M564.664 253.522C564.664 253.522 558.913 250.043 556.501 250.578C554.088 251.112 547.94 255.486 550.897 256.434C553.854 257.383 556.25 256.389 557.387 257.076C558.524 257.765 559.365 259.021 564.664 259.005C569.963 258.989 564.664 253.522 564.664 253.522Z" fill="#FFB27D"/>
<g opacity="0.6">
<g opacity="0.6">
<path opacity="0.6" d="M286.132 418.09H286.037C285.477 418.09 285.028 417.639 285.041 417.088L286.551 352.801L290.998 352.291L287.207 417.094C287.174 417.655 286.701 418.09 286.132 418.09Z" fill="#77A4E5"/>
</g>
<g opacity="0.6">
<path opacity="0.6" d="M260.208 418.09H260.113C259.553 418.09 259.104 417.639 259.117 417.088L260.627 352.801L265.075 352.291L261.283 417.093C261.25 417.655 260.777 418.09 260.208 418.09Z" fill="#77A4E5"/>
</g>
<g opacity="0.6">
<path opacity="0.6" d="M331.736 418.09H331.831C332.391 418.09 332.84 417.639 332.826 417.088L331.317 352.801L326.869 352.291L330.661 417.093C330.694 417.655 331.167 418.09 331.736 418.09Z" fill="#77A4E5"/>
</g>
<path opacity="0.6" d="M257.26 348.815V304.762C257.26 297.011 263.658 290.726 271.549 290.726H303.862C311.753 290.726 318.151 297.011 318.151 304.762V350.498L257.26 348.815Z" fill="#77A4E5"/>
<path opacity="0.6" d="M323.939 355.77H261.549C259.18 355.77 257.26 353.883 257.26 351.556V348.814H323.939V355.77Z" fill="#77A4E5"/>
<path opacity="0.6" d="M331.417 355.769H284.217C282.465 355.769 281.045 354.375 281.045 352.654V351.933C281.045 350.212 282.465 348.817 284.217 348.817H331.417C333.169 348.817 334.589 350.212 334.589 351.933V352.654C334.589 354.375 333.169 355.769 331.417 355.769Z" fill="#77A4E5"/>
</g>
<path d="M366.735 392.455C367.186 394.671 370.399 394.299 373.989 393.439C377.58 392.578 376.726 393.602 381.834 393.046C386.943 392.49 388.491 390.62 388.648 389.872C388.787 389.209 386.263 388.977 383.556 388.669C383.216 388.632 382.873 388.592 382.531 388.549C379.473 388.172 377.235 386.235 374.457 384.643C371.827 383.136 367.902 376.993 367.902 376.993L360.895 377.538C360.895 377.538 364.572 383.023 365.995 385.41C366.833 386.812 366.786 388.667 366.683 390.099C366.629 390.882 366.577 391.675 366.735 392.455Z" fill="#FFB27D"/>
<path d="M373.991 393.439C377.581 392.578 376.727 393.602 381.836 393.046C386.944 392.49 388.492 390.62 388.65 389.872C388.788 389.209 386.264 388.977 383.557 388.669L383.533 388.72C383.533 388.72 380.47 390.855 376.216 390.954C372.75 391.037 369.078 390.061 366.684 390.099C366.63 390.876 366.578 391.673 366.739 392.453C367.187 394.671 370.4 394.302 373.991 393.439Z" fill="#233862"/>
<path d="M306.52 402.36C305.128 404.159 307.535 406.28 310.568 408.354C313.601 410.427 312.254 410.478 316.057 413.874C319.86 417.27 322.314 417.171 322.985 416.794C323.584 416.46 322.09 414.446 320.535 412.247C320.339 411.971 320.143 411.691 319.95 411.413C318.214 408.912 318.214 405.981 317.591 402.881C317.001 399.948 321.881 389.161 321.881 389.161L314.042 388.191C314.042 388.191 313.019 394.705 312.137 397.329C311.621 398.874 309.442 399.892 308.28 400.763C307.652 401.238 307.01 401.727 306.52 402.36Z" fill="#FFB27D"/>
<path d="M310.567 408.354C313.6 410.427 312.254 410.478 316.057 413.874C319.859 417.27 322.313 417.171 322.985 416.794C323.583 416.46 322.09 414.446 320.534 412.247L320.477 412.263C320.477 412.263 316.821 411.418 313.932 408.351C311.576 405.853 309.893 402.502 308.28 400.765C307.649 401.241 307.007 401.73 306.517 402.363C305.127 404.159 307.534 406.28 310.567 408.354Z" fill="#233862"/>
<path d="M338.527 347.219L331.368 366.142L322.021 390.85C322.021 390.85 319.486 391.09 317.057 390.403C314.821 389.768 312.256 388.108 312.256 388.108C312.256 388.108 314.851 361.578 319.693 346.351C320.933 342.442 322.323 339.281 323.857 337.501C331.362 328.788 338.527 347.219 338.527 347.219Z" fill="#163560"/>
<path d="M331.251 317.168C326.561 315.682 312.427 316.569 298.989 319.153L296.933 315.615L267.909 313.39C267.909 313.39 258.331 334.252 263.576 347.545C264.345 349.498 265.877 350.752 268.488 350.794C268.488 350.794 268.91 350.794 268.913 350.794C268.913 350.794 286.188 350.784 291.797 350.784C306.23 350.784 322.345 341.036 324.428 340.628C327.839 339.957 329.205 346.661 332.616 353.699C336.027 360.737 364.687 384.867 364.687 384.867C364.687 384.867 369.091 384.91 370.91 384.239C372.866 383.518 373.584 382.583 373.584 382.583C373.584 382.583 341.829 320.518 331.251 317.168Z" fill="#2A4E96"/>
<path d="M286.768 229.317C282.683 228.36 277.136 229.482 276.214 229.589C265.192 230.853 262.728 247.67 263.546 252.376C265.056 261.046 260.818 263.488 255.759 270.422C245.615 284.327 252.622 295.774 260.878 298.611C265.831 300.313 272.583 295.677 272.583 295.677C272.708 295.723 290.109 279.405 298.715 271.477C313.189 265.621 297.181 231.754 286.768 229.317Z" fill="#233862"/>
<path d="M289.13 268.971C289.182 268.987 284.642 271.9 280.943 271.288C277.463 270.713 273.78 266.254 273.827 266.24C275.233 265.818 276.476 264.207 275.597 255.889L276.258 255.951L287.378 256.998C287.378 256.998 287.474 260.394 287.792 263.568C288.056 266.235 288.48 268.747 289.13 268.971Z" fill="#FFB27D"/>
<path d="M287.382 256.996C287.382 256.996 287.477 260.392 287.795 263.566C281.675 263.999 277.894 258.847 276.262 255.945L287.382 256.996Z" fill="#ED975D"/>
<path d="M289.724 259.804C289.724 259.804 275.312 261.458 274.401 252.627C273.49 243.793 271.017 238.059 280.181 236.63C289.346 235.2 291.484 238.393 292.517 241.268C293.551 244.143 293.45 259.144 289.724 259.804Z" fill="#FFB27D"/>
<path d="M290.8 236.729C290.8 236.729 283.839 246.516 277.931 248.646C272.02 250.775 269.227 249.436 269.227 249.436C269.227 249.436 272.045 245.624 272.975 240.376C273.25 238.829 274.343 237.541 275.85 237.025C280.088 235.572 288.26 233.346 290.8 236.729Z" fill="#233862"/>
<path d="M285.043 237.45C285.043 237.45 288.764 239.537 290.249 241.405C291.683 243.206 293.214 247.991 292.994 250.099C292.994 250.099 295.339 240.053 291.585 236.397C287.605 232.52 285.043 237.45 285.043 237.45Z" fill="#233862"/>
<path d="M300.213 292.404C299.777 321.002 300.093 315.025 296.908 317.74C296.141 318.394 293.983 318.782 291.144 318.966C282.216 319.549 266.523 318.103 265.928 316.484C263.869 310.875 265.321 309.136 263.605 300.551C263.425 299.637 263.205 298.649 262.944 297.574C261.51 291.677 260.117 289.673 265.199 280.201C269.807 271.622 274.785 264.768 275.214 265.019C287.373 272.108 288.165 266.04 288.165 266.04C288.165 266.04 300.425 278.457 300.213 292.404Z" fill="white"/>
<path d="M331.37 366.142L321.811 391.878C321.811 391.878 318.378 392.977 315.876 392.621C313.327 392.258 311.932 390.892 311.932 390.892C311.932 390.892 314.853 361.581 319.692 346.354L331.37 366.142Z" fill="#2A4E96"/>
<path d="M288.166 266.035C288.166 266.035 300.676 268.119 302.145 273.409C303.614 278.7 314.358 307.856 314.358 307.856C314.358 307.856 305.901 310.926 302.961 308.04C300.023 305.155 292.739 281.265 292.739 281.265L288.166 266.035Z" fill="white"/>
<path d="M291.144 318.966C282.217 319.549 266.524 318.103 265.928 316.484C263.869 310.875 265.322 309.136 263.605 300.551L267.792 291.186C267.792 291.186 267.199 301.903 271.181 305.39C275.158 308.877 287.483 312.123 289.42 315.038C290.353 316.438 290.968 317.841 291.144 318.966Z" fill="#DFEBFD"/>
<path d="M291.869 312.863C291.869 312.863 294.527 315.116 295.286 315.297C296.042 315.479 296.472 315.311 296.472 315.311L294.535 313.082L291.869 312.863Z" fill="#FFB27D"/>
<path d="M290.814 310.21L297.547 311.917C297.547 311.917 297.373 312.388 296.611 312.505C295.849 312.62 293.804 312.316 293.804 312.316L290.814 310.21Z" fill="#FFB27D"/>
<path d="M279.4 313.855C279.4 313.855 289.011 309.654 290.814 310.21C292.618 310.766 297.245 313.171 297.971 314.183C298.697 315.196 294.182 314.058 292.773 313.969C291.859 313.913 289.74 315.145 288.687 315.738C284.259 318.237 281.182 318.015 281.182 318.015L279.4 313.855Z" fill="#FFB27D"/>
<path d="M275.213 265.017C275.213 265.017 261.618 267.523 259.099 271.224C253.604 279.301 241.905 312.765 248.458 317.251C255.835 322.303 282.038 318.573 282.038 318.573C282.038 318.573 282.911 314.571 281.698 312.634C280.485 310.696 260.772 307.568 259.861 306.675C258.952 305.783 268.848 292.858 267.795 290.384C264.414 282.462 275.213 265.017 275.213 265.017Z" fill="white"/>
<path d="M328.96 312.428C328.96 312.428 338.476 314.953 339.452 316.404C340.431 317.855 342.346 322.29 342.265 323.447C342.183 324.604 339.585 321.157 338.612 320.275C337.981 319.704 335.698 319.37 334.578 319.191C331.749 318.739 330.386 317.467 329.325 316.837C328.615 316.412 327.75 316.492 327.75 316.492L328.96 312.428Z" fill="#FFB27D"/>
<path d="M338.623 318.945C338.623 318.945 339.2 322.127 339.643 322.696C340.087 323.265 340.498 323.396 340.498 323.396L340.43 320.649L338.623 318.945Z" fill="#FFB27D"/>
<path d="M339.451 316.404L343.319 321.553C343.319 321.553 342.908 321.793 342.286 321.435C341.663 321.077 340.36 319.669 340.36 319.669L339.451 316.404Z" fill="#FFB27D"/>
<path d="M329.33 316.834C329.33 316.834 330.211 318.937 331.974 319.69C333.734 320.444 335.029 321.577 335.312 321.17C335.595 320.764 333.979 318.621 333.979 318.621L329.33 316.834Z" fill="#FFB27D"/>
<path d="M311.832 300.962L331.842 313.39C331.842 313.39 329.739 316.152 329.037 316.404C325.332 317.74 308.666 316.46 302.959 308.043L311.832 300.962Z" fill="white"/>
<path d="M303.899 314.467C305.08 314.464 316.825 313.668 316.825 313.668C316.825 313.668 316.485 315.712 317.211 316.807L305.765 318.958L303.412 318.28L303.899 314.467Z" fill="#F9DDBF"/>
<path d="M284.307 316.321L303.897 314.466C303.897 314.466 303.209 318.026 305.766 318.955L284.168 320.508C284.168 320.51 282.427 318.103 284.307 316.321Z" fill="#F99746"/>
<path d="M316.792 313.921L303.553 314.923C303.553 314.923 303.653 314.474 303.898 314.469C304.146 314.464 317.05 313.542 317.05 313.542L317.004 313.897L316.792 313.921Z" fill="#F99746"/>
<path d="M305.764 318.958L317.425 316.78L317.316 316.484L304.891 318.822L305.764 318.958Z" fill="#F99746"/>
<path d="M170.084 417.989H169.978C169.358 417.989 168.857 417.484 168.873 416.872L170.549 345.087L175.486 344.518L171.275 416.877C171.24 417.5 170.718 417.989 170.084 417.989Z" fill="#77A4E5"/>
<path d="M141.312 417.989H141.206C140.586 417.989 140.086 417.484 140.102 416.872L141.778 345.087L146.715 344.518L142.504 416.877C142.468 417.5 141.946 417.989 141.312 417.989Z" fill="#77A4E5"/>
<path d="M220.707 417.989H220.813C221.433 417.989 221.934 417.484 221.917 416.872L220.242 345.087L215.305 344.518L219.515 416.877C219.551 417.5 220.076 417.989 220.707 417.989Z" fill="#77A4E5"/>
<path d="M138.039 340.636V291.445C138.039 282.791 145.141 275.774 153.9 275.774H189.771C198.533 275.774 205.632 282.791 205.632 291.445V342.514L138.039 340.636Z" fill="#77A4E5"/>
<path d="M212.058 348.4H142.814C140.175 348.4 138.037 346.3 138.037 343.708V340.636H212.058V348.4Z" fill="#77A4E5"/>
<path d="M220.349 348.4H167.972C166.022 348.4 164.441 346.848 164.441 344.932V344.107C164.441 342.191 166.022 340.638 167.972 340.638H220.349C222.299 340.638 223.88 342.191 223.88 344.107V344.932C223.88 346.848 222.299 348.4 220.349 348.4Z" fill="#77A4E5"/>
<path d="M192.183 257.605C192.183 257.605 189.18 260.114 188.53 266.62C188.035 271.56 191.525 309.914 194.15 312.962C201.535 321.539 210.794 317.916 214.42 319.217L217.842 316.198C217.842 316.198 205.814 307.477 204.9 304.634C201.372 293.679 203.556 261.741 192.183 257.605Z" fill="#F9DDBF"/>
<path d="M190.027 226.321C190.027 226.321 190.231 219.286 180.786 217.907C171.342 216.526 168.733 218.696 167.128 221.063C165.523 223.428 162.512 233.089 162.814 236.934C163.116 240.779 173.888 245.533 173.711 247.777C173.532 250.019 190.027 226.321 190.027 226.321Z" fill="#163560"/>
<path d="M233.824 411.921C233.517 414.299 236.819 414.996 240.657 415.327C244.496 415.659 243.307 416.404 248.543 417.548C253.78 418.694 255.945 417.326 256.35 416.629C256.712 416.009 254.299 414.932 251.726 413.722C251.402 413.569 251.078 413.414 250.755 413.259C247.863 411.862 246.307 409.166 244.104 406.641C242.018 404.247 240.225 396.763 240.225 396.763L233.117 394.975C233.117 394.975 234.888 401.717 235.484 404.589C235.835 406.278 235.16 408.129 234.57 409.535C234.254 410.299 233.931 411.082 233.824 411.921Z" fill="#FFB27D"/>
<path d="M240.661 415.328C244.499 415.659 243.311 416.404 248.547 417.548C253.783 418.694 255.949 417.326 256.354 416.629C256.716 416.009 254.303 414.932 251.73 413.722L251.686 413.764C251.686 413.764 247.935 414.889 243.7 413.572C240.248 412.501 236.951 410.294 234.573 409.535C234.255 410.299 233.934 411.082 233.828 411.921C233.523 414.296 236.823 414.996 240.661 415.328Z" fill="#233862"/>
<path d="M180.612 315.009C180.612 315.009 228.128 319.85 235.962 326.995C243.793 334.14 242.398 400.706 242.398 400.706C241.179 401.949 240.279 401.92 238.353 401.773C236.503 401.631 232.736 400.068 232.736 400.068C232.736 400.068 222.56 367.382 222.432 359.815C222.304 352.245 220.697 339.404 217.462 338.648C214.231 337.891 175.762 342.127 171.546 330.191C167.33 318.255 174.331 308.436 174.331 308.436L180.612 315.009Z" fill="#ED7D2B"/>
<path d="M158.414 327.017C160.465 328.366 164.129 330.445 170.282 330.659C181.291 331.051 195.025 329.763 197.728 327.254C198.43 326.608 198.773 325.534 198.871 324.174C199.17 320.024 197.152 313.2 195.797 307.551C194.919 303.88 194.32 300.711 194.81 299.089C196.303 294.157 200.944 284.105 201.344 280.8C201.743 277.497 197.731 259.796 192.182 257.605C186.63 255.411 165.214 257.605 165.214 257.605C156.847 259.272 156.496 276.795 159.274 291.709C159.347 292.094 159.418 292.476 159.494 292.853C162.502 307.998 152.693 323.252 158.414 327.017Z" fill="#F9DDBF"/>
<path d="M186.089 260.827C185.939 261.789 183.26 263.347 177.537 261.864C172.05 260.442 171.392 258.69 171.395 257.53C171.395 256.159 173.777 254.31 173.747 245.872L174.406 246L185.466 248.151C185.466 248.151 185.213 251.569 185.208 254.791C185.197 257.495 186.339 259.229 186.089 260.827Z" fill="#FFB27D"/>
<path d="M185.464 248.151C185.464 248.151 185.211 251.569 185.206 254.791C179.018 254.62 175.745 249.073 174.404 246L185.464 248.151Z" fill="#ED975D"/>
<path d="M187.527 251.2C187.527 251.2 172.885 251.438 172.874 242.479C172.863 233.52 170.967 227.516 180.316 226.987C189.665 226.458 191.485 229.872 192.228 232.862C192.97 235.852 191.336 250.909 187.527 251.2Z" fill="#FFB27D"/>
<path d="M186.984 226.768C186.984 226.768 182.974 237.279 176.821 238.831C170.668 240.387 168 238.767 168 238.767C168 238.767 172.719 235.085 173.699 228.657C173.701 228.654 183.962 221.763 186.984 226.768Z" fill="#163560"/>
<path d="M185.99 227.62C185.99 227.62 188.985 229.966 189.714 232.248C190.443 234.53 190.772 239.227 192.165 239.067C192.165 239.067 195.184 231.922 191.79 227.882C188.194 223.596 185.99 227.62 185.99 227.62Z" fill="#163560"/>
<path d="M198.145 413.874C198.109 416.271 201.469 416.591 205.321 416.487C209.172 416.38 208.073 417.257 213.408 417.802C218.739 418.347 220.736 416.744 221.062 416.003C221.353 415.346 218.832 414.55 216.139 413.639C215.799 413.527 215.461 413.406 215.121 413.289C212.088 412.228 210.239 409.724 207.763 407.464C205.419 405.324 210.595 394.964 210.595 394.964L203.811 391.667C203.811 391.667 202.524 399.063 200.868 405.532C200.441 407.205 199.045 409.957 198.618 411.421C198.387 412.215 198.156 413.03 198.145 413.874Z" fill="#FFB27D"/>
<path d="M158.71 325.234C160.761 326.584 164.134 330.442 170.284 330.659C180.436 328.39 191.994 325.75 198.87 324.174C199.169 320.024 197.151 313.2 195.796 307.551C187.777 309.956 175.847 301.764 171.837 298.526C167.621 295.124 167.754 283.792 167.754 283.792L159.273 291.712C159.346 292.097 159.417 292.479 159.493 292.856C162.504 307.998 152.989 321.47 158.71 325.234Z" fill="#F2CCAA"/>
<path d="M205.319 416.484C209.17 416.377 208.071 417.254 213.406 417.799C218.737 418.344 220.734 416.741 221.06 416.001C221.351 415.343 218.83 414.547 216.137 413.636L216.099 413.684C216.099 413.684 212.497 415.226 208.139 414.398C204.587 413.724 201.062 411.905 198.613 411.418C198.385 412.215 198.154 413.029 198.143 413.874C198.11 416.271 201.467 416.591 205.319 416.484Z" fill="#233862"/>
<path d="M170.362 317.857C182.426 317.521 218.457 320.345 225.38 325.472C233.899 331.783 209.559 400.02 209.559 400.02C209.559 400.02 206.733 400.29 205.838 400.188C201.973 399.758 200.398 398.601 200.398 398.601C200.398 398.601 200.493 358.436 203.335 350.754C205.963 343.655 207.573 341.143 204.282 340.721C200.991 340.299 159.9 345.445 156.47 333.261C153.79 323.744 157.748 314.934 157.748 314.934C157.748 314.934 159.231 318.167 170.362 317.857Z" fill="#F99746"/>
<path d="M165.215 257.605C165.215 257.605 156.834 258.305 156.181 264.811C155.686 269.751 152.041 304.794 154.666 307.84C162.051 316.417 186.682 318.234 190.308 319.535L191.307 315.479C191.307 315.479 165.014 302.467 165.413 299.509C165.819 296.551 173.253 256.434 165.215 257.605Z" fill="#F9DDBF"/>
<path d="M171.684 221.445C171.684 221.445 172.285 217.691 166.986 216.724C161.687 215.756 161.59 226.81 161.021 229.477C160.452 232.144 161.87 233.739 163.888 233.902C165.909 234.062 171.684 221.445 171.684 221.445Z" fill="#163560"/>
<path d="M191.595 315.3C191.595 315.3 199.084 313.219 200.868 313.705C202.653 314.191 208.762 318.167 207.905 319.247C207.046 320.326 201.663 318.6 199.185 318.926C196.707 319.252 194.792 320.454 193.007 320.195C191.223 319.936 189.359 319.247 189.359 319.247L191.595 315.3Z" fill="#FFB27D"/>
<path d="M191.598 315.3C191.598 315.3 195.262 313.451 196.304 312.398C196.434 312.265 196.657 312.294 196.758 312.449C197.038 312.882 197.299 313.718 196.012 314.547C194.163 315.744 191.598 315.3 191.598 315.3Z" fill="#FFB27D"/>
<path d="M217.84 316.195C217.84 316.195 225.611 316.612 227.137 317.644C228.663 318.672 233.133 324.38 231.963 325.128C230.793 325.876 226.272 322.525 223.819 322.047C221.368 321.566 219.159 322.092 217.557 321.277C215.955 320.462 214.418 319.217 214.418 319.217L217.84 316.195Z" fill="#FFB27D"/>
<path d="M164.458 418.617H132.841C131.321 416.795 131.881 410.067 132.112 407.87C132.159 407.427 132.191 407.17 132.191 407.17C132.191 407.17 142.988 398.687 144.47 405.182C144.516 405.385 144.571 405.586 144.631 405.781C146.499 411.857 154.88 414.617 159.719 415.386C162.864 415.889 164.028 417.495 164.458 418.617Z" fill="#1B3051"/>
<path d="M78.1837 317.7C79.3262 317.7 132.345 327.479 141.115 338.14C145.497 343.468 146.147 404.987 146.147 404.987C146.147 404.987 140.726 411.59 129.021 407.755C129.021 407.755 120.439 365.664 121.072 352.897C121.247 349.368 84.8481 352.387 78.1864 350.693C71.5247 348.999 55.2445 334.763 58.8324 327.826C62.4149 320.893 78.1837 317.7 78.1837 317.7Z" fill="#233862"/>
<path d="M116.567 314.809C116.567 314.809 119.959 317.684 123.441 318.499C125.427 318.964 127.347 319.49 128.492 320.006C131.64 321.424 137.613 327.762 137.058 328.39C135.276 330.41 128.106 325.149 126.732 325.521C125.361 325.892 128.982 328.949 127.546 329.78C126.795 330.212 125.381 327.573 124.059 327.201C122.269 326.699 121.08 324.043 120.544 323.861C119.5 323.509 115.145 319.672 115.145 319.672L116.567 314.809Z" fill="#FFB27D"/>
<path d="M178.427 418.617H146.81C145.29 416.795 145.85 410.067 146.081 407.87C146.127 407.427 146.16 407.17 146.16 407.17C146.16 407.17 156.956 398.687 158.439 405.182C158.485 405.385 158.539 405.586 158.599 405.781C160.468 411.857 168.849 414.617 173.688 415.386C176.835 415.889 177.997 417.495 178.427 418.617Z" fill="#1E3C68"/>
<path d="M93.8041 317.7C94.9466 317.7 147.965 327.479 156.735 338.14C161.117 343.468 161.767 404.987 161.767 404.987C161.767 404.987 156.346 411.59 144.641 407.755C144.641 407.755 136.059 365.664 136.693 352.897C136.867 349.368 100.469 352.387 93.8068 350.693C87.1452 348.999 70.8677 334.763 74.4529 327.826C78.0381 320.893 93.8041 317.7 93.8041 317.7Z" fill="#2B478B"/>
<path d="M90.4825 254.412C86.6688 254.102 82.6702 253.105 79.2129 252.002C74.8933 250.626 71.4087 248.611 73.6529 244.734C75.7202 241.159 79.0687 233.172 78.8429 226.557L86.8837 232.921L92.3458 237.244C92.3458 237.244 92.3241 239.793 91.7256 244.258C91.6168 245.073 91.489 245.952 91.3394 246.89C91.2169 247.649 91.5733 248.405 92.237 248.811C92.2778 248.835 92.3186 248.862 92.3594 248.886C95.0741 250.561 93.6787 254.671 90.4825 254.412Z" fill="#FFB27D"/>
<path d="M92.3458 236.192C92.3458 236.192 92.626 237.116 92.1445 240.534C87.2754 239.753 82.7246 235.938 82.7246 235.938C85.2027 235.27 86.1058 232.638 87.95 232.884L92.3458 236.192Z" fill="#ED975D"/>
<path d="M96.8495 236.969C96.8495 236.969 78.1212 240.026 76.364 228.539C74.6067 217.055 71.0053 209.713 82.8869 207.276C94.7686 204.839 97.7689 208.879 99.3058 212.572C100.843 216.267 101.678 235.879 96.8495 236.969Z" fill="#FFB27D"/>
<path d="M102.06 207.492C102.865 210.258 100.711 213.627 97.0985 214.736C91.7343 216.382 92.9203 222.845 90.5075 222.757C88.0947 222.669 87.1209 219.043 84.9638 221.939C83.125 224.411 86.4953 227.34 86.2613 228.697C85.8642 231.024 82.1539 235.783 78.8081 235.545C75.465 235.307 69.2086 219.698 70.4599 214.87C71.7112 210.041 76.7163 204.949 81.4548 204.246C86.1933 203.543 92.7707 205.552 94.2912 205.552C95.8118 205.55 101.625 205.996 102.06 207.492Z" fill="#2B478B"/>
<path d="M106.709 314.256C106.396 316.906 105.828 318.71 104.936 319.295C102.145 321.13 98.4425 323.415 94.3105 325.675C79.6625 333.699 59.6067 341.443 55.5265 327.883C50.7335 311.955 53.8835 282.048 58.5812 263.472C61.285 252.771 68.7682 241.541 73.8277 241.554C82.4479 241.568 94.8383 243.804 99.8406 255.927C101.777 260.624 104.625 276.896 106.078 291.806C106.943 300.687 107.313 309.083 106.709 314.256Z" fill="white"/>
<path d="M72.9551 241.659L74.9054 237.341C74.9054 237.341 92.2084 239.072 95.1434 248.838C95.1462 248.835 81.7711 241.867 72.9551 241.659Z" fill="#DFEBFD"/>
<path d="M106.71 314.256C106.398 316.906 105.829 318.71 104.937 319.295C102.146 321.13 98.4438 323.415 94.3119 325.675C90.0004 323.102 81.149 316.96 79.079 309.719C76.3751 300.252 78.2711 288.605 78.2711 288.605L106.71 314.256Z" fill="#DFEBFD"/>
<path d="M76.4648 256.223C76.4648 256.223 77.9664 296.904 80.322 304.949C84.337 318.664 120.967 323.549 120.967 323.549C120.967 323.549 123.127 321.144 122.161 317.155C122.161 317.155 100.264 300.201 99.6216 296.973C98.9824 293.746 104.393 271.873 98.2071 263.919C92.0242 255.967 80.6213 249.076 76.4648 256.223Z" fill="white"/>
<path d="M30.5492 418.229L30.4295 418.227C29.4421 418.208 28.6804 417.417 28.7756 416.506L35.3557 351.954L41.098 352.457L31.6481 417.356C31.5719 417.863 31.0986 418.24 30.5492 418.229Z" fill="#77A4E5"/>
<path d="M64.4144 418.229L64.2947 418.227C63.3073 418.208 62.5457 417.417 62.6409 416.506L69.2209 351.954L74.9632 352.457L65.5133 417.356C65.4372 417.863 64.9666 418.24 64.4144 418.229Z" fill="#77A4E5"/>
<path d="M127.999 418.229L128.119 418.227C129.106 418.208 129.868 417.417 129.775 416.506L123.195 351.954L117.453 352.457L126.903 417.356C126.976 417.863 127.45 418.24 127.999 418.229Z" fill="#77A4E5"/>
<path d="M32.4024 342.811L26.1569 288.896C25.3381 281.126 27.9848 273.519 39.3986 272.931L59.4789 271.729C71.3796 271.245 76.7546 280.976 78.2616 288.466L90.1814 347.732L32.4024 342.811Z" fill="#77A4E5"/>
<path d="M35.758 352.897H124.881C126.671 352.897 128.137 351.457 128.137 349.699V345.761C128.137 344.002 126.671 342.562 124.881 342.562H32.502V349.699C32.502 351.46 33.9681 352.897 35.758 352.897Z" fill="#77A4E5"/>
<path d="M35.0317 352.897H87.656C89.046 352.897 90.1857 351.78 90.1857 350.415V345.05C90.1857 343.684 89.0487 342.568 87.656 342.568H32.502V350.418C32.502 351.78 33.639 352.897 35.0317 352.897Z" fill="#77A4E5"/>
<path d="M798.878 421H5.54259C4.92511 421 4.42188 420.506 4.42188 419.899V418.897C4.42188 418.293 4.92511 417.796 5.54259 417.796H798.878C799.493 417.796 799.999 418.291 799.999 418.897V419.899C799.999 420.506 799.496 421 798.878 421Z" fill="#2E3552"/>
<path d="M173.631 179.036H142.779C141.362 179.036 140.203 177.898 140.203 176.505V147.256C140.203 145.863 141.362 144.725 142.779 144.725H173.631C175.048 144.725 176.207 145.863 176.207 147.256V176.505C176.207 177.898 175.048 179.036 173.631 179.036Z" fill="#77A4E5"/>
<path d="M172.297 177.55H144.119C142.824 177.55 141.766 176.511 141.766 175.239V148.522C141.766 147.25 142.824 146.211 144.119 146.211H172.297C173.592 146.211 174.65 147.25 174.65 148.522V175.239C174.65 176.508 173.592 177.55 172.297 177.55Z" fill="#DFEBFD"/>
<path d="M158.205 150.074C158.616 150.074 158.95 149.747 158.95 149.342C158.95 148.938 158.616 148.61 158.205 148.61C157.793 148.61 157.459 148.938 157.459 149.342C157.459 149.747 157.793 150.074 158.205 150.074Z" fill="#77A4E5"/>
<path d="M163.476 150.379C163.678 150.026 164.129 149.898 164.491 150.096C164.85 150.294 164.981 150.737 164.78 151.092C164.578 151.445 164.127 151.573 163.765 151.376C163.406 151.178 163.278 150.732 163.476 150.379Z" fill="#77A4E5"/>
<path d="M168.632 154.403C168.977 154.184 169.44 154.283 169.663 154.622C169.886 154.961 169.785 155.416 169.44 155.635C169.094 155.854 168.632 155.755 168.409 155.416C168.185 155.076 168.283 154.622 168.632 154.403Z" fill="#77A4E5"/>
<path d="M171.189 160.629C171.6 160.629 171.934 160.957 171.934 161.361C171.934 161.764 171.6 162.093 171.189 162.093C170.778 162.093 170.443 161.764 170.443 161.361C170.441 160.957 170.775 160.629 171.189 160.629Z" fill="#77A4E5"/>
<path d="M169.355 169.107C169.767 169.107 170.1 168.779 170.1 168.374C170.1 167.97 169.767 167.642 169.355 167.642C168.943 167.642 168.609 167.97 168.609 168.374C168.609 168.779 168.943 169.107 169.355 169.107Z" fill="#77A4E5"/>
<path d="M165.2 172.468C165.491 172.754 165.491 173.219 165.2 173.505C164.909 173.791 164.435 173.791 164.144 173.505C163.853 173.219 163.853 172.754 164.144 172.468C164.438 172.182 164.909 172.182 165.2 172.468Z" fill="#77A4E5"/>
<path d="M158.206 175.578C158.618 175.578 158.952 175.25 158.952 174.846C158.952 174.442 158.618 174.114 158.206 174.114C157.795 174.114 157.461 174.442 157.461 174.846C157.461 175.25 157.795 175.578 158.206 175.578Z" fill="#77A4E5"/>
<path d="M152.906 150.379C152.705 150.027 152.253 149.898 151.891 150.096C151.532 150.294 151.401 150.737 151.603 151.093C151.804 151.445 152.256 151.574 152.617 151.376C152.977 151.178 153.107 150.732 152.906 150.379Z" fill="#77A4E5"/>
<path d="M147.752 154.403C147.407 154.184 146.944 154.283 146.721 154.622C146.498 154.962 146.596 155.416 146.944 155.635C147.29 155.854 147.752 155.755 147.975 155.416C148.198 155.077 148.098 154.622 147.752 154.403Z" fill="#77A4E5"/>
<path d="M145.199 160.629C144.788 160.629 144.453 160.957 144.453 161.361C144.453 161.764 144.788 162.093 145.199 162.093C145.61 162.093 145.944 161.764 145.944 161.361C145.944 160.957 145.612 160.629 145.199 160.629Z" fill="#77A4E5"/>
<path d="M147.031 169.107C147.442 169.107 147.776 168.779 147.776 168.375C147.776 167.971 147.442 167.643 147.031 167.643C146.619 167.643 146.285 167.971 146.285 168.375C146.285 168.779 146.619 169.107 147.031 169.107Z" fill="#77A4E5"/>
<path d="M151.185 172.468C150.894 172.754 150.894 173.219 151.185 173.505C151.476 173.791 151.95 173.791 152.241 173.505C152.532 173.219 152.532 172.754 152.241 172.468C151.95 172.182 151.476 172.182 151.185 172.468Z" fill="#77A4E5"/>
<path d="M158 161.363C158 160.96 158.335 160.631 158.746 160.631C159.156 160.631 159.491 160.96 159.491 161.363C159.491 161.767 159.156 162.096 158.746 162.096C158.335 162.096 158 161.767 158 161.363Z" fill="#77A4E5"/>
<path d="M158.851 152.209H158.646V161.361H158.851V152.209Z" fill="#77A4E5"/>
<path d="M163.417 157.297L158.477 161.102L158.855 161.575L163.795 157.77L163.417 157.297Z" fill="#77A4E5"/>
</svg>
