<svg width="663" height="496" viewBox="0 0 663 496" fill="none" xmlns="http://www.w3.org/2000/svg">
<path opacity="0.4" d="M656.027 0H6.26562V491.982H656.027V0Z" fill="#DDE3F2"/>
<path d="M505.698 491.981H40.1445V27.0728H505.698V491.981ZM42.4262 489.703H503.416V29.3484H42.4262V489.703Z" fill="#CED4EA"/>
<path opacity="0.4" d="M503.387 221.831V491.984H42.5156V205.236H64.8215V253.059H96.3107V229.33H108.474V140.652H120.203V229.33H134.971V146.641H175.372V211.11H206.208V112.506H237.218V279.449H268.497V209.481H307.589V159.011H331.844V206.454H354.497V189.439H401.898V239.705H438.918V191.295H468.194V254.51H487.125V221.831H503.387Z" fill="#CED4EA"/>
<path d="M660.994 496H2.00923C0.905288 496 0 495.099 0 493.994V493.988C0 492.885 0.902451 491.981 2.00923 491.981H660.994C662.098 491.981 663 492.883 663 493.988V493.994C663 495.099 662.098 496 660.994 496Z" fill="#CED4EA"/>
<path d="M128.084 483.568L130.837 492.412H158.16C158.16 492.412 151.17 480.484 128.084 483.568Z" fill="#221E50"/>
<path d="M138.625 307.281L89.5039 315.539C89.5039 315.539 107.139 406.787 127.642 484.31L152.375 485.033L138.625 307.281Z" fill="#2B295E"/>
<path d="M68.1543 482.822L71.012 492.001H99.3683C99.3711 491.999 92.1175 479.62 68.1543 482.822Z" fill="#221E50"/>
<path d="M203.386 282.543L208.537 281.396C208.537 281.396 216.491 275.266 224.9 282.376C224.9 282.376 228.129 285.542 224.982 286.743C221.835 287.948 222.842 287.075 218.449 288.86C214.056 290.643 209.11 290.445 206.536 288.226L200.125 288.274L203.386 282.543Z" fill="#E1ACB0"/>
<path d="M65.5977 483.956C65.5977 483.956 77.0996 337.613 91.3856 310.633L131.667 310.441L130.96 335.822C130.96 335.822 128.766 336.318 126.621 340.693L89.8702 483.667L65.5977 483.956Z" fill="#333380"/>
<path d="M128.666 242.052L144.669 268.172L156.202 286.998C156.202 286.998 170.323 289.523 183.738 291.229C183.92 291.252 184.101 291.275 184.286 291.295C184.368 291.303 184.448 291.312 184.53 291.32C184.706 291.337 184.879 291.354 185.055 291.371C195.708 292.335 207.449 288.937 207.449 288.937L207.366 286.21L207.23 281.687C207.23 281.687 196.682 278.068 191.154 276.776C184.442 275.206 174.813 273.619 174.813 273.619C162.108 246.654 152.008 219.023 148.699 216.696C142.884 212.61 129.787 210.238 129.787 210.238L128.666 242.052Z" fill="#555CA1"/>
<path d="M128.439 195.396C128.439 195.396 126.915 200.999 125.36 212.445C125.36 212.445 116.401 220.179 112.672 219.476C109.434 218.864 105.662 208.597 105.662 208.597C105.662 208.597 109.232 203.532 112.757 189.13L128.439 195.396Z" fill="#D09196"/>
<path d="M130.704 201.022C130.704 201.022 112.82 204.771 110.655 193.614C108.487 182.456 104.721 175.425 116.047 172.56C127.373 169.695 130.426 173.521 132.055 177.069C133.687 180.62 135.302 199.76 130.704 201.022Z" fill="#E1ACB0"/>
<path d="M110.653 193.614C110.653 193.614 109.56 178.432 125.699 176.36C141.838 174.289 132.422 160.258 118.267 160.264C118.267 160.264 120.577 165.37 112.038 167.626C94.1165 172.359 108.649 191.505 110.653 193.614Z" fill="#555C9F"/>
<path d="M91.9384 329.587C104.383 329.587 109.792 320.572 109.846 320.479L109.272 320.144C109.247 320.19 105.245 324.812 100.926 327.147C96.5528 329.513 91.8618 329.587 91.9384 329.587Z" fill="#221E50"/>
<path d="M73.8887 471.362C74.1242 458.087 75.1118 442.452 76.9451 426.276C77.226 423.805 77.5297 421.263 77.8447 418.721C78.1966 415.918 78.5684 413.084 78.9515 410.295C79.082 409.338 79.5332 408.281 79.9674 407.257C80.3733 406.305 80.7904 405.325 80.9096 404.497C82.4421 393.907 84.3009 384.283 85.9412 375.792C86.3726 373.564 86.7926 371.385 87.1984 369.248C90.8508 349.932 92.8543 338.973 92.8685 338.865C92.8543 338.973 91.4779 349.98 87.8199 369.325C87.4141 371.465 86.9941 373.644 86.5627 375.871C84.9252 384.353 83.0664 393.966 81.5368 404.542C81.4034 405.464 80.9664 406.495 80.5407 407.49C80.1264 408.468 79.695 409.476 79.5787 410.335C79.1955 413.121 78.8238 415.952 78.4747 418.752C78.1569 421.288 77.856 423.828 77.5751 426.299C75.7475 442.452 74.3002 458.15 74.0646 471.401L73.8887 471.362Z" fill="#2B295E"/>
<path d="M89.5049 315.539C89.7887 315.641 101.705 320.201 129.091 316.523C135.164 315.706 138.095 315.106 140.828 307.533C146.473 289.373 148.996 216.818 148.695 216.696C148.808 217.093 140.329 211.796 125.793 209.461C124.709 211.312 122.586 213.494 119.141 213.59C114.998 213.706 108.913 210.51 105.664 208.6C101.563 208.917 97.2297 209.543 92.6947 210.566C92.2804 210.66 90.6969 227.151 89.6298 246.875C89.312 252.736 89.0395 258.88 88.8579 264.964C88.1513 288.583 84.9444 313.89 89.5049 315.539Z" fill="#555CA1"/>
<path d="M88.8594 264.962C93.2439 266.959 101.789 270.068 102.152 264.154C102.643 256.182 96.1357 243.307 93.5561 242.817C92.052 242.531 90.5877 244.872 89.6313 246.872C89.3134 252.733 89.041 258.877 88.8594 264.962Z" fill="#4F549C"/>
<path d="M69.5741 304.386L106.088 320.528L127.601 271.999L91.0873 255.857L69.5741 304.386Z" fill="#CE5D2B"/>
<path d="M104.465 289.288L105.77 290.912C105.77 290.912 114.718 286.216 121.816 294.718C121.816 294.718 124.466 298.414 121.14 299.063C117.814 299.709 118.964 299.02 114.298 300.029C109.636 301.035 104.769 299.981 102.6 297.337L100.211 294.384L104.465 289.288Z" fill="#E1ACB0"/>
<path d="M105.665 208.597C105.665 208.597 86.8778 208.747 84.389 210.586C81.9001 212.425 57.0061 253.628 56.5918 269.448C56.5918 269.448 72.0356 285.737 100.247 295.305L105.897 289.603C105.897 289.603 84.6302 268.121 74.4876 264.196C74.4876 264.196 91.268 247.192 94.9544 238.036C98.6437 228.879 105.665 208.597 105.665 208.597Z" fill="#555CA1"/>
<path d="M144.67 268.172L156.204 286.998C156.204 286.998 170.325 289.523 183.74 291.229C183.921 291.252 184.103 291.275 184.287 291.295C184.37 291.303 184.449 291.312 184.532 291.32C184.707 291.337 184.881 291.354 185.057 291.371C195.71 292.335 207.45 288.937 207.45 288.937L207.368 286.211C194.041 284.071 161.792 282.456 159.382 281.183C156.382 279.596 147.733 251.747 145.967 252.982C144.685 253.875 144.611 263.012 144.67 268.172Z" fill="#4F549C"/>
<path d="M306.563 412.37C306.569 412.41 306.571 412.447 306.58 412.486C307.499 419.166 309.648 424.528 311.583 427.781C316.532 436.113 325.917 445.388 348.419 448.421C349.509 448.565 350.633 448.699 351.788 448.815C353.888 449.03 356.095 449.189 358.414 449.294C358.709 449.308 359.004 449.319 359.302 449.325C365.846 449.16 373.171 447.965 381.341 446.029C398.108 442.056 409.031 433.88 415.938 423.933C415.938 423.933 415.941 423.933 415.941 423.93C418.058 420.886 419.795 417.678 421.211 414.371C425.048 405.421 426.515 395.774 426.654 386.827C426.526 378.337 425.21 370.674 423.74 365.221C422.599 360.97 420.822 356.932 418.41 353.373C417.78 352.437 417.099 351.533 416.372 350.669C414.074 347.914 411.321 345.545 408.103 343.714C400.091 339.157 373.75 334.615 351.433 346.376C310.357 368.016 304.176 394.751 306.563 412.37Z" fill="#B5451E"/>
<path d="M324.163 483.276H356.841V431.706H365.979V483.276H399.968C401.736 483.276 403.184 484.721 403.184 486.487C403.184 488.252 401.736 489.698 399.968 489.698H324.163C322.395 489.698 320.947 488.252 320.947 486.487C320.947 484.721 322.395 483.276 324.163 483.276Z" fill="#B7BED4"/>
<path d="M311.583 427.781C309.647 424.525 307.499 419.166 306.58 412.486C306.574 412.461 306.571 412.435 306.568 412.41C319.62 411.027 336.253 409.363 350.729 407.952C356.961 407.346 363.201 407.221 369.272 407.436C390.817 408.196 411.105 413.524 420.342 416.292C419.099 418.922 417.644 421.481 415.941 423.933C415.941 423.936 415.938 423.936 415.938 423.936C409.031 433.88 398.107 442.059 381.341 446.032C373.171 447.968 365.846 449.166 359.302 449.328C359.004 449.322 358.709 449.308 358.414 449.297C356.095 449.192 353.887 449.03 351.787 448.818C350.632 448.702 349.509 448.568 348.419 448.424C325.917 445.389 316.532 436.113 311.583 427.781Z" fill="#C3592D"/>
<path d="M297.04 370.779C297.117 370.821 297.194 370.872 297.265 370.926C298.368 371.535 302.248 372.745 302.248 372.745C302.248 372.745 301.944 376.846 301.856 376.909L290.408 376.413L290.905 374.57C290.925 374.451 290.956 374.338 290.998 374.225C291.123 373.888 291.345 373.579 291.654 373.349L294.932 370.912C295.565 370.444 296.393 370.419 297.04 370.779Z" fill="#E5B0B4"/>
<path d="M308.059 458.643L306.351 472.087L299.356 472.303L294.832 452.839L308.059 458.643Z" fill="#E5B0B4"/>
<path d="M307.26 466.632L308.063 474.167L288.365 483.225C288.362 483.222 289.56 471.996 307.26 466.632Z" fill="#D25C2A"/>
<path d="M265.045 478.447L255.541 488.119L249.84 484.066L258.027 465.835L265.045 478.447Z" fill="#E5B0B4"/>
<path d="M261.775 482.485L259.59 489.703H237.902C237.902 489.703 243.45 479.966 261.775 482.485Z" fill="#D25C2A"/>
<path d="M337.166 319.031C340.844 308.976 340.313 276.49 340.364 274.308C340.535 267.311 343.052 266.299 343.052 266.299C344.411 262.595 367.583 258.474 372.208 272.936C377.972 290.957 389.006 302.208 389.599 319.033H337.166V319.031Z" fill="#D25C2A"/>
<path d="M350.797 292.352C350.797 292.352 351.225 297.691 349.108 305.909L343.098 320.728L366.002 314.559C366.002 314.559 361.283 303.5 361.629 291.731L350.797 292.352Z" fill="#D09196"/>
<path d="M347.066 296.798C347.066 296.798 363.804 299.85 365.546 289.41C367.289 278.97 370.623 272.335 360.01 269.946C349.396 267.557 346.649 271.193 345.219 274.537C343.791 277.879 342.758 295.735 347.066 296.798Z" fill="#E5B0B4"/>
<path d="M344.221 268.791C344.221 268.791 365.068 284.834 363.226 296.686C361.495 307.818 364.778 308.809 367.216 309.872C373.511 312.613 381.76 307.605 385.03 307.766C387.357 307.883 381.377 305.086 377.577 300.016C367.463 286.526 368.448 268.301 366.43 266.989C352.678 258.042 344.221 268.791 344.221 268.791Z" fill="#D25C2A"/>
<path d="M301.4 377.257C301.4 377.257 313.603 376.625 321.024 374.542C335.31 370.529 337.41 368.679 339.51 354.798C341.701 340.322 341.227 325.815 340.603 317.276C340.532 316.27 340.458 315.346 340.385 314.516C340.112 311.418 339.868 309.613 339.868 309.613C339.868 309.613 331.533 311.957 329.978 321.714C328.139 333.268 326.882 354.988 325.627 358.964C324.912 361.231 302.249 372.743 302.249 372.743L301.593 376.22L301.4 377.257Z" fill="#555CA3"/>
<path d="M301.4 377.257C301.4 377.257 313.603 376.625 321.024 374.542C335.31 370.529 337.41 368.679 339.51 354.798C341.701 340.322 341.227 325.815 340.603 317.276C338.387 318.237 336.201 321.428 335.149 329.459C332.563 349.147 337.087 361.412 329.007 367.06C322.267 371.771 307.666 375.083 301.593 376.217L301.4 377.257Z" fill="#4F549E"/>
<path d="M337.735 353.548C344.225 374.65 336.103 384.62 336.103 384.62C336.103 384.62 348.621 391.574 352.2 390.869C353.133 390.684 381.501 386.057 382.21 385.867C385.168 385.076 386.263 384.319 386.263 384.319C386.263 384.319 382.653 375.806 380.198 367.704C382.891 368.14 387.077 368.494 392.33 367.911C393.474 367.786 394.672 367.613 395.912 367.389C403.273 366.054 405.016 365.615 407.331 363.895C408.154 363.283 408.679 361.673 408.43 360.681C406.869 354.469 399.283 334.892 386.433 313.652C384.682 310.761 377.06 309.35 377.06 309.35L363.267 306.096C362.016 309.032 360.194 312.974 355.835 313.005C344.588 313.09 349.047 306.598 348.982 306.232L339.869 309.619C339.869 309.619 337.397 316.009 336.798 320.626C336.642 321.819 336.342 323.001 335.825 324.089C335.714 324.327 335.59 324.562 335.453 324.789C332.346 330.091 334.531 343.136 337.735 353.548ZM378.135 360.452C377.928 359.216 377.979 357.7 377.979 356.739C377.979 351.304 381.126 339.248 381.268 338.701C381.271 338.69 381.274 338.681 381.274 338.681C381.385 338.814 382.472 339.823 394.138 356.104C392.401 356.32 390.477 356.705 388.539 357.261C384.827 358.323 380.434 359.417 378.135 360.452Z" fill="#555CA3"/>
<path d="M366.879 368.302C368.437 374.111 371.721 382.075 376.973 384.657C378.205 385.26 380.07 385.64 382.207 385.867C385.164 385.076 386.259 384.319 386.259 384.319C386.259 384.319 377.379 366.346 377.978 356.739C378.316 351.315 381.125 339.248 381.267 338.701C380.578 337.392 379.652 336.193 378.563 336.241C376.196 336.349 365.318 362.492 366.879 368.302Z" fill="#4F549E"/>
<path d="M386.261 384.319C387.257 386.402 400.399 410.012 378.584 416.306C356.769 422.601 309.589 420.897 309.589 420.897C309.589 420.897 304.583 440.644 298.414 449.325C288.501 463.265 270.832 478.897 270.832 478.897H250.604C250.604 478.897 285.595 403.202 292.707 398.039C297.906 394.261 324.071 387.578 338.536 385.337C342.057 384.79 363.381 384.144 369.088 383.92C378.028 383.571 385.707 383.163 386.261 384.319Z" fill="#333380"/>
<path d="M338.533 385.34C338.533 385.34 294.006 371.753 285.507 376.634C270.4 385.303 296.254 462.401 296.254 462.401L311.153 460.017C311.153 460.017 313.939 439.165 311.715 425.162C310.423 417.032 305.721 396.046 305.721 396.046C305.721 396.046 317.098 391.435 321.023 390.299C325.955 388.871 338.533 385.34 338.533 385.34Z" fill="#2B295E"/>
<path d="M372.2 362.673C372.288 362.656 372.376 362.648 372.466 362.645C373.707 362.421 376.034 361.257 376.034 361.257L376.78 365.323C376.772 365.428 377.26 366.706 376.72 367.429C373.287 372.028 372.035 371.413 372.035 371.413L369.85 369.484C369.79 369.379 369.742 369.271 369.702 369.158C369.586 368.815 369.56 368.441 369.657 368.067L370.653 364.11C370.843 363.345 371.47 362.804 372.2 362.673Z" fill="#E5B0B4"/>
<path d="M300.602 412.934C301.587 412.798 302.657 412.322 303.693 411.863C304.658 411.435 305.654 410.993 306.5 410.871C317.377 409.287 327.236 407.348 335.934 405.636C338.216 405.189 340.449 404.749 342.64 404.327C362.434 400.518 373.667 398.435 373.78 398.421C373.67 398.435 362.355 399.849 342.532 403.661C340.339 404.083 338.105 404.523 335.823 404.97C327.134 406.679 317.284 408.615 306.426 410.196C305.478 410.335 304.434 410.797 303.426 411.245C302.436 411.684 301.414 412.138 300.531 412.259C297.668 412.656 297.736 413.328 300.602 412.934Z" fill="#2B295E"/>
<path d="M267.104 473.654L267.291 473.705C273.994 461.757 281.214 447.333 287.914 432.012C288.938 429.671 289.977 427.254 291.001 424.834C292.128 422.164 293.255 419.452 294.347 416.777C294.642 416.06 294.781 415.19 294.884 414.306V414.303C294.688 414.016 294.495 413.722 294.305 413.427C294.302 413.45 294.302 413.472 294.299 413.495C294.183 414.569 294.066 415.68 293.731 416.502C292.642 419.174 291.518 421.884 290.388 424.547C289.364 426.965 288.325 429.379 287.304 431.72C280.612 447.021 273.795 461.726 267.104 473.654Z" fill="#2B295E"/>
<path d="M404.799 356.172C404.799 356.172 398.55 354.101 385.462 358.136C374.84 361.41 376.034 361.257 376.034 361.257L376.977 366.797C376.977 366.797 389.69 371.068 403.468 365.799C403.468 365.799 409.669 364.431 408.27 360.066C406.865 355.699 404.799 356.172 404.799 356.172Z" fill="#555CA3"/>
<path d="M348.422 448.421C357.915 449.679 364.411 450.042 381.344 446.032C399.652 441.718 413.781 431.632 421.214 414.376C425.051 405.427 426.518 395.777 426.657 386.833C426.529 378.342 425.212 370.679 423.742 365.227C422.159 359.335 419.48 354.35 416.372 350.675C406.968 360.497 385.712 383.659 369.275 407.436C359.336 421.81 351.16 436.408 348.422 448.421Z" fill="#D58B2A"/>
<path d="M349.557 448.565C356.87 417.139 401.195 367.786 416.897 351.309C419.78 354.917 422.249 359.664 423.742 365.224C425.209 370.674 426.526 378.337 426.657 386.83C426.517 395.777 425.05 405.424 421.213 414.373C413.781 431.629 399.651 441.718 381.344 446.029C365.091 449.88 358.456 449.699 349.557 448.565Z" fill="#D3652C"/>
<path d="M505.598 429.45C510.621 437.912 520.148 447.327 542.993 450.401C553.919 451.844 559.89 451.895 576.412 447.978C607.186 440.687 621.943 418.293 622.411 387.884C622.156 370.869 618.382 352.539 603.579 344.116C595.449 339.489 568.704 334.878 546.052 346.817C492.345 375.109 496.412 414.022 505.598 429.45Z" fill="#B5451E"/>
<path d="M595.318 485.466H560.812V434.868H551.535V485.466H518.363C516.567 485.466 515.1 486.934 515.1 488.725C515.1 490.519 516.57 491.984 518.363 491.984H595.318C597.115 491.984 598.582 490.516 598.582 488.725C598.585 486.931 597.115 485.466 595.318 485.466Z" fill="#B7BED4"/>
<path d="M613.118 423.133C601.755 420.526 580.78 416.354 560.438 416.159C560.052 416.153 559.666 416.15 559.28 416.15C554.677 416.136 550.006 416.289 545.34 416.663C530.473 417.859 515.054 419.18 501.853 420.344C501.836 420.344 501.813 420.347 501.793 420.35C502.786 423.893 504.129 426.976 505.601 429.45C510.624 437.912 520.151 447.327 542.996 450.401C553.922 451.844 559.893 451.895 576.415 447.978C593.474 443.934 605.606 435.251 613.118 423.133Z" fill="#B5451E"/>
<path d="M464.912 349.954C465.079 349.963 465.25 349.983 465.417 350.017C467.801 350.136 475.406 348.977 475.406 348.977C475.406 348.977 473.008 359.06 471.694 359.448C468.127 360.5 465.125 363.64 462.128 364.362C460.082 364.855 458.036 363.555 457.638 361.489C457.576 361.27 457.53 361.049 457.511 360.826C457.442 360.145 457.562 359.443 457.897 358.794L461.444 351.93C462.122 350.609 463.51 349.878 464.912 349.954Z" fill="#E5B0B4"/>
<path d="M477.118 347.486L470.94 348.773L469.686 360.335L477.319 360.298L477.118 347.486Z" fill="#CED4EA"/>
<path d="M477.117 347.486L477.319 360.298C477.319 360.298 488.236 360.721 499.179 360.287C508.794 359.91 518.431 358.867 520.699 356.297C523.284 353.367 525.143 330.814 526.312 310.418C527.334 292.578 527.83 276.388 527.83 276.388C527.83 276.388 519.578 280.245 518.111 281.239C511.864 285.468 502.596 339.732 502.596 339.732C502.596 339.732 480.131 346.302 477.117 347.486Z" fill="#DDE3F2"/>
<path d="M486.331 482.142L483.885 491.454L458.494 491.465C458.491 491.465 464.837 479.163 486.331 482.142Z" fill="#2B295E"/>
<path d="M527.83 378.898C529.43 380.499 547.136 380.958 561.368 381.508C573.892 381.984 585.379 382.145 585.379 382.145C587.959 378.923 590.669 372.793 591.884 362.432C595.539 361.985 598.896 361.333 601.944 360.568C612.266 357.983 619.017 354.101 621.619 352.42C622.354 351.947 622.718 351.068 622.528 350.215C620.706 341.985 610.56 299.167 593.118 281.236C592.505 280.607 590.939 278.471 567.793 273.948C566.749 276.782 556.583 281.486 547.687 281.03C546.708 280.979 545.257 279.644 545.24 279.641C538.214 278.649 534.871 274.891 535.203 274.384C534.908 274.41 527.827 276.388 527.827 276.388C517.466 321.657 525.582 376.645 527.83 378.898ZM591.157 325.835C591.995 327.912 592.914 330.324 594.075 332.446C596.64 337.134 599.353 341.163 599.353 341.163C599.146 341.549 598.181 342.065 596.714 342.66C595.559 343.133 594.089 343.66 592.437 344.216C592.42 339.888 593.294 342.328 592.883 336.555C592.491 331.055 592.312 328.703 591.157 325.835Z" fill="#DDE3F2"/>
<path d="M543.723 262.099C543.723 262.099 541.782 278 541.561 280.248L554.447 282.234L562.91 275.237C562.91 275.237 558.741 267.401 559.581 255.765L543.723 262.099Z" fill="url(#paint0_linear)"/>
<path d="M561.371 381.508C573.895 381.984 585.153 386.969 585.153 386.969C587.732 383.747 590.672 372.793 591.887 362.432C595.542 361.985 598.899 361.333 601.947 360.568C600.06 354.055 598.11 347.418 596.711 342.66C595.556 343.133 594.086 343.66 592.435 344.216C592.418 339.888 593.292 342.328 592.88 336.556C592.489 331.052 591.325 322.153 588.059 321.609C585.158 321.125 584.455 334.685 583.146 347.172C582.502 353.344 581.708 359.253 580.428 363.081C579.968 364.453 579.449 365.561 578.847 366.312C573.472 373.066 559.91 377.37 561.371 381.508Z" fill="#CED4EA"/>
<path d="M542.119 263.337C542.119 263.337 560.58 264.179 560.929 252.69C561.278 241.201 563.895 233.572 552.123 232.549C540.351 231.526 537.928 235.839 536.878 239.645C535.825 243.454 537.326 262.821 542.119 263.337Z" fill="#E5B0B4"/>
<path d="M560.927 252.693C560.927 252.693 559.548 237.364 543.103 237.914C526.657 238.464 533.772 222.931 547.901 220.644C547.901 220.644 546.426 226.116 555.317 226.98C573.976 228.791 562.585 250.259 560.927 252.693Z" fill="#555CA3"/>
<path d="M455.103 482.142L452.656 491.454L427.266 491.465C427.263 491.465 433.608 479.163 455.103 482.142Z" fill="#333381"/>
<path d="M584.045 391.838C584.045 391.838 565.462 419.976 532.491 419.789C491.501 419.557 491.881 418.888 491.881 418.888C491.881 418.888 494.362 445.334 488.374 484.072L471.318 484.99C471.318 484.99 463.783 459.544 462.143 451.076C455.105 414.736 463.854 387.547 463.854 387.547C463.854 387.547 473.679 382.973 494.838 379.881C514.318 377.033 534.529 378.464 534.529 378.464C534.529 378.464 581.76 377.342 585.478 384.228C586.281 385.725 584.045 391.838 584.045 391.838Z" fill="#2B295E"/>
<path d="M552.128 281.191L543.651 280.293C543.651 280.293 542.589 280.525 542.794 281.86C542.998 283.195 545.793 286.802 546.846 286.984C547.899 287.165 554.423 283.645 552.128 281.191Z" fill="#C3592D"/>
<path d="M583.464 391.37C583.464 391.37 573.378 419.126 540.413 419.789C488.644 420.829 488.647 421.033 488.647 421.033C488.647 421.033 492.594 447.531 455.863 483.491H435.184C435.184 483.491 449.634 439.709 455.097 425.627C458.664 416.428 471.313 390.367 471.313 390.367C471.313 390.367 487.94 385.005 502.473 383.438C512.55 382.352 542.447 378.461 542.447 378.461C542.447 378.461 581.755 377.339 585.47 384.226C586.279 385.725 583.464 391.37 583.464 391.37Z" fill="#4F549E"/>
<path d="M542.561 271.695C542.561 271.695 543.971 277.984 547.691 281.027L541.953 288.481C541.953 288.481 535.003 280.265 535.208 274.385C535.208 274.382 540.722 271.913 542.561 271.695Z" fill="#CED4EA"/>
<path d="M542.56 271.695C542.56 271.695 543.636 277.615 547.356 280.659L541.842 287.438C541.842 287.438 535.792 280.415 535.207 274.385C535.207 274.382 540.721 271.913 542.56 271.695Z" fill="#DDE3F2"/>
<path d="M561.869 271.695C561.869 271.695 553.095 279.999 547.354 280.659L551.281 290.45C551.281 290.45 568.374 280.339 568.425 274.28C568.428 274.28 563.723 271.749 561.869 271.695Z" fill="#CED4EA"/>
<path d="M561.361 271.318C561.361 271.318 553.094 279.998 547.355 280.659L550.537 289.682C550.537 289.682 567.751 280.004 567.8 273.948C567.8 273.948 563.214 271.369 561.361 271.318Z" fill="#DDE3F2"/>
<path d="M576.409 447.976C607.183 440.684 621.94 418.29 622.409 387.881C622.21 374.684 619.894 360.698 611.96 351.156C601.054 362.614 576.026 390.117 559.277 416.153C551.512 428.217 545.346 440.267 542.959 450.399C542.97 450.401 542.982 450.401 542.993 450.404C553.919 451.844 559.887 451.892 576.409 447.976Z" fill="#D58B2A"/>
<path d="M622.411 387.884C622.218 375.003 620.007 361.372 612.524 351.853C601.351 363.631 576.891 390.582 560.434 416.161C552.596 428.341 546.429 440.354 544.094 450.545C554.339 451.846 560.451 451.761 576.412 447.978C607.189 440.689 621.943 418.292 622.411 387.884Z" fill="#D3652C"/>
<path d="M602.499 340.761C602.499 340.761 576.992 347.721 574.65 350.499L574.852 363.314C574.852 363.314 601.514 364.997 620.783 352.953C621.765 352.338 621.771 350.909 620.795 350.289C616.14 347.333 604.97 340.444 602.499 340.761Z" fill="#DDE3F2"/>
<path d="M499.18 360.287C508.794 359.91 518.432 358.867 520.699 356.297C523.285 353.366 520.796 321.19 521.965 300.794C512.753 319.512 519.578 334.441 517.819 344.216C516.071 353.913 507.358 358.309 499.18 360.287Z" fill="#CED4EA"/>
<path d="M493.94 407.385C494.868 407.249 495.881 406.773 496.86 406.313C497.771 405.886 498.711 405.443 499.511 405.322C509.781 403.737 519.092 401.799 527.308 400.087C529.462 399.639 531.571 399.2 533.642 398.778C552.338 394.969 562.944 392.886 563.051 392.872C562.946 392.886 552.262 394.3 533.54 398.112C531.469 398.534 529.36 398.973 527.203 399.421C518.996 401.13 509.693 403.066 499.44 404.65C498.546 404.789 497.559 405.251 496.608 405.698C495.674 406.138 494.706 406.591 493.875 406.713C491.17 407.107 491.236 407.779 493.94 407.385Z" fill="#333381"/>
<path d="M452.719 475.422L452.895 475.473C459.226 463.525 466.043 449.101 472.371 433.78C473.339 431.439 474.318 429.022 475.286 426.602C476.35 423.932 477.414 421.22 478.444 418.545C478.722 417.828 478.853 416.958 478.952 416.074V416.071C478.765 415.785 478.586 415.49 478.405 415.195C478.402 415.218 478.402 415.24 478.399 415.263C478.288 416.337 478.18 417.448 477.862 418.27C476.835 420.942 475.771 423.652 474.707 426.316C473.739 428.733 472.76 431.147 471.795 433.488C465.478 448.789 459.042 463.494 452.719 475.422Z" fill="#333381"/>
<path d="M548.16 285.995C548.16 285.995 549.766 301.137 550.053 306.204C550.856 320.456 551.151 363.294 551.151 363.294C551.151 363.294 551.574 367.035 549.074 370.016C546.574 372.997 543.963 375.041 543.963 375.041C543.963 375.041 540.296 371.835 538.84 365.816C537.873 361.809 540.197 328.175 542.541 305.77C543.719 294.508 545.665 285.692 545.665 285.692C545.665 285.692 547.578 285.354 548.16 285.995Z" fill="#D3652C"/>
<path d="M555.372 361.069L558.559 354.9C559.172 353.712 560.42 353.058 561.68 353.123C561.831 353.131 571.113 352.244 571.113 352.244C571.113 352.244 566.201 364.564 565.301 365.487C564.981 365.819 564.541 366.006 564.078 366.009C561.916 366.023 555.536 365.861 555.139 363.489C555.082 363.294 555.042 363.096 555.023 362.892C554.966 362.285 555.071 361.653 555.372 361.069Z" fill="#E5B0B4"/>
<path d="M574.649 350.499L568.471 351.785L567.217 363.348L574.851 363.311L574.649 350.499Z" fill="#CED4EA"/>
<path d="M633.975 365.876H206.488C202.972 365.876 200.123 368.721 200.123 372.232C200.123 375.741 202.972 378.589 206.488 378.589H408.28V467.448C392.535 469.803 380.678 479.88 380.565 491.984H408.28H422.793H450.113C450.014 481.306 440.774 472.206 427.79 468.593C426.178 468.145 424.51 467.785 422.793 467.513V378.586H633.975C637.491 378.586 640.34 375.741 640.34 372.23C640.34 368.721 637.491 365.876 633.975 365.876Z" fill="#DC8D39"/>
<path opacity="0.5" d="M450.113 491.984H405.465C405.564 481.306 414.804 472.206 427.791 468.593C440.777 472.206 450.014 481.306 450.113 491.984Z" fill="#EECF70"/>
<path d="M323.622 322.02H265.363L277.424 364.414H335.192L323.622 322.02Z" fill="#DAB656"/>
<path d="M322.729 322.021H264.467L276.531 364.414H334.299L322.729 322.021Z" fill="#EECF70"/>
<path d="M276.532 365.877H351.648V364.413H276.532V365.877Z" fill="#DAB656"/>
<path opacity="0.2" d="M300.277 344.239C300.277 342.419 298.801 340.577 296.979 340.124C295.157 339.67 293.682 340.778 293.682 342.598C293.682 344.417 295.157 346.259 296.979 346.713C298.801 347.166 300.277 346.058 300.277 344.239Z" fill="#DA8B39"/>
<path d="M495.554 322.02H437.295L449.359 364.414H507.127L495.554 322.02Z" fill="#333381"/>
<path d="M494.661 322.021H436.402L448.466 364.414H506.234L494.661 322.021Z" fill="#555CA3"/>
<path d="M448.464 365.877H523.58V364.413H448.464V365.877Z" fill="#555CA3"/>
<path d="M472.209 344.239C472.209 342.419 470.73 340.577 468.911 340.124C467.089 339.67 465.613 340.778 465.613 342.598C465.613 344.417 467.089 346.259 468.911 346.713C470.733 347.166 472.209 346.058 472.209 344.239Z" fill="#DDE3F2"/>
<defs>
<linearGradient id="paint0_linear" x1="552.236" y1="282.235" x2="552.236" y2="255.764" gradientUnits="userSpaceOnUse">
<stop offset="0.512" stop-color="#E5B0B4"/>
<stop offset="1" stop-color="#C78A91"/>
</linearGradient>
</defs>
</svg>
