<svg width="20" height="32" viewBox="0 0 20 32" fill="none" xmlns="http://www.w3.org/2000/svg">
<path d="M1.11111 14.7514L15.3515 0.511215C15.6809 0.181592 16.1205 0 16.5894 0C17.0582 0 17.4978 0.181592 17.8272 0.511215L18.8759 1.55966C19.5583 2.24284 19.5583 3.35321 18.8759 4.03535L6.91789 15.9934L18.8892 27.9646C19.2185 28.2943 19.4004 28.7337 19.4004 29.2022C19.4004 29.6713 19.2185 30.1107 18.8892 30.4406L17.8405 31.4888C17.5108 31.8184 17.0714 32 16.6026 32C16.1338 32 15.6941 31.8184 15.3648 31.4888L1.11111 17.2356C0.780964 16.905 0.599634 16.4635 0.600674 15.9941C0.599634 15.523 0.780964 15.0818 1.11111 14.7514Z" fill="#2C7C7F"/>
</svg>
