<svg width="20" height="32" viewBox="0 0 20 32" fill="none" xmlns="http://www.w3.org/2000/svg">
<path d="M18.8889 14.7514L4.64849 0.511215C4.31912 0.181592 3.87945 0 3.41064 0C2.94183 0 2.50216 0.181592 2.1728 0.511215L1.12409 1.55966C0.441692 2.24284 0.441692 3.35321 1.12409 4.03535L13.0821 15.9934L1.11082 27.9646C0.781462 28.2943 0.599609 28.7337 0.599609 29.2022C0.599609 29.6713 0.781462 30.1107 1.11082 30.4406L2.15953 31.4888C2.48915 31.8184 2.92857 32 3.39738 32C3.86618 32 4.30586 31.8184 4.63522 31.4888L18.8889 17.2356C19.219 16.905 19.4004 16.4635 19.3993 15.9941C19.4004 15.523 19.219 15.0818 18.8889 14.7514Z" fill="#2C7C7F"/>
</svg>
