<?xml version="1.0" encoding="UTF-8" standalone="no"?><!DOCTYPE svg PUBLIC "-//W3C//DTD SVG 1.1//EN" "http://www.w3.org/Graphics/SVG/1.1/DTD/svg11.dtd"><svg width="100%" height="100%" viewBox="0 0 18 22" version="1.1" xmlns="http://www.w3.org/2000/svg" xmlns:xlink="http://www.w3.org/1999/xlink" xml:space="preserve" xmlns:serif="http://www.serif.com/" style="fill-rule:evenodd;clip-rule:evenodd;stroke-linejoin:round;stroke-miterlimit:1.41421;"><g id="Word"><path d="M2,0l11,0l5,5l0,15c0,1.104 -0.896,2 -2,2l-14,0c-1.104,0 -2,-0.896 -2,-2l0,-18c0,-1.104 0.896,-2 2,-2Z" style="fill:#e92427;"/><path d="M14.4,6c-1.325,0 -2.4,-1.075 -2.4,-2.4l0,-3.6l6,6l-3.6,0Z" style="fill:#fff;"/><path d="M4.254,20.108c-0.417,0 -0.757,-0.232 -0.92,-0.407c-0.519,-0.597 -0.524,-1.129 -0.439,-1.472c0.074,-0.297 0.257,-0.571 0.515,-0.769c0.382,-0.293 1.481,-1.079 3.103,-1.747c0.853,-1.548 1.43,-2.806 1.82,-3.808c-0.678,-1.272 -0.9,-2.324 -0.972,-2.838c-0.061,-0.431 -0.027,-0.843 0.099,-1.224c0.319,-0.967 0.971,-1.011 1.245,-0.985c0.056,0.007 1.135,0.154 1.313,1.674c0.009,0.061 0.127,1.024 -0.711,3.306c0.513,0.873 1.264,1.844 2.364,2.799c1.077,-0.012 2.224,0.106 3.428,0.411c0.282,0.072 0.526,0.217 0.706,0.419c0.304,0.341 0.377,0.766 0.204,1.196c0,0 0,0 0,0c0.002,0 -0.071,0.22 -0.231,0.441c-0.341,0.47 -0.984,0.621 -1.5,0.35c-1.155,-0.606 -2.118,-1.258 -2.922,-1.923c-1.619,0.06 -3.05,0.433 -4.219,0.884c-0.528,0.943 -1.151,1.983 -1.887,3.128c-0.145,0.226 -0.344,0.393 -0.576,0.484l0,0c-0.146,0.057 -0.287,0.081 -0.42,0.081Zm1.504,-3.073c-0.918,0.474 -1.545,0.926 -1.808,1.127c-0.1,0.078 -0.17,0.177 -0.195,0.281c-0.05,0.201 0.03,0.426 0.238,0.666c0.005,0.003 0.172,0.165 0.358,0.093l0,0c0.056,-0.022 0.111,-0.071 0.154,-0.138c0.462,-0.719 0.878,-1.394 1.253,-2.029Zm7.109,-1.468c0.542,0.378 1.148,0.748 1.823,1.102c0.126,0.067 0.287,0.03 0.371,-0.086c0.077,-0.106 0.114,-0.219 0.115,-0.22c0.057,-0.146 0.046,-0.218 -0.032,-0.306c-0.062,-0.069 -0.155,-0.122 -0.264,-0.15c-0.691,-0.175 -1.364,-0.284 -2.013,-0.34Zm-3.962,-2.712c-0.298,0.704 -0.672,1.504 -1.145,2.408c0.811,-0.251 1.712,-0.453 2.687,-0.554c-0.634,-0.628 -1.14,-1.255 -1.542,-1.854Zm-0.31,-5.117c-0.108,0 -0.21,0.129 -0.294,0.383c-0.083,0.251 -0.103,0.528 -0.062,0.823c0.049,0.354 0.178,0.988 0.509,1.78c0.449,-1.448 0.392,-2.07 0.39,-2.083c-0.095,-0.814 -0.525,-0.901 -0.529,-0.902c-0.005,0 -0.009,-0.001 -0.014,-0.001Z" style="fill:#fff;fill-rule:nonzero;stroke:#fff;stroke-width:0.2px;"/></g></svg>