<svg width="32" height="26" viewBox="0 0 32 26" fill="none" xmlns="http://www.w3.org/2000/svg">
<path d="M26.6618 8.76267C25.1828 2.87094 19.2078 -0.706291 13.3161 0.772672C8.71181 1.92848 5.36861 5.90786 5.02415 10.6424C1.75494 11.1815 -0.458254 14.2688 0.0808743 17.538C0.560134 20.4443 3.07848 22.5728 6.02404 22.5611H11.0235V20.5613H6.02404C3.81515 20.5613 2.02447 18.7706 2.02447 16.5618C2.02447 14.3529 3.81515 12.5622 6.02404 12.5622C6.57629 12.5622 7.02393 12.1146 7.02393 11.5623C7.01893 6.59228 11.0439 2.55923 16.0139 2.55429C20.3162 2.54998 24.0198 5.59152 24.852 9.8125C24.9342 10.2339 25.2762 10.5559 25.7019 10.6124C28.4355 11.0017 30.3358 13.5332 29.9466 16.2667C29.5971 18.7213 27.5013 20.5489 25.022 20.5613H21.0224V22.5611H25.022C28.8875 22.5494 32.0117 19.4063 31.9999 15.5407C31.9902 12.3229 29.7877 9.52628 26.6618 8.76267Z" fill="#6D6D7E"/>
<path d="M15.3121 12.8522L11.3125 16.8517L12.7223 18.2616L15.0221 15.9718V25.5608H17.0219V15.9718L19.3116 18.2616L20.7215 16.8517L16.7219 12.8522C16.3319 12.4645 15.7021 12.4645 15.3121 12.8522Z" fill="#6D6D7E"/>
</svg>
